<?xml version="1.0" encoding="iso-8859-1"?>
<!-- Generator: Adobe Illustrator 16.0.0, SVG Export Plug-In . SVG Version: 6.00 Build 0)  -->
<!DOCTYPE svg PUBLIC "-//W3C//DTD SVG 1.1//EN" "http://www.w3.org/Graphics/SVG/1.1/DTD/svg11.dtd">
<svg version="1.1" id="Capa_1" xmlns="http://www.w3.org/2000/svg" xmlns:xlink="http://www.w3.org/1999/xlink" x="0px" y="0px"
	 width="208.639px" height="208.639px" viewBox="0 0 208.639 208.639" style="enable-background:new 0 0 208.639 208.639;"
	 xml:space="preserve">
<g>
	<g>
		<path d="M115.438,107.017c8.147-5.48,13.762-16.288,13.762-26.028c0-13.74-11.144-24.877-24.883-24.877
			c-13.737,0-24.865,11.137-24.865,24.877c0,9.74,5.599,20.548,13.762,26.028c-19.485,4.944-33.929,21.86-33.929,34.397
			c0,14.821,90.083,14.821,90.083,0C149.367,128.877,134.923,111.961,115.438,107.017z M104.316,152.521l-12.614-12.617
			l10.62-25.672h-0.113l-4.128-4.737c1.994,0.719,4.077,1.157,6.235,1.157s4.241-0.427,6.223-1.145l-4.116,4.725h-0.113
			l10.62,25.672L104.316,152.521z"/>
		<polygon points="117.167,21.65 109.404,21.65 109.404,0 99.217,0 99.217,21.65 91.465,21.65 104.316,43.778 		"/>
		<polygon points="91.465,186.985 99.229,186.985 99.229,208.639 109.417,208.639 109.417,186.985 117.167,186.985 104.316,164.857 
					"/>
		<polygon points="21.65,99.229 0,99.229 0,109.416 21.65,109.416 21.65,117.168 43.778,104.316 21.65,91.465 		"/>
		<polygon points="186.986,99.217 186.986,91.465 164.858,104.316 186.986,117.168 186.986,109.404 208.639,109.404 208.639,99.217 
					"/>
	</g>
</g>
<g>
</g>
<g>
</g>
<g>
</g>
<g>
</g>
<g>
</g>
<g>
</g>
<g>
</g>
<g>
</g>
<g>
</g>
<g>
</g>
<g>
</g>
<g>
</g>
<g>
</g>
<g>
</g>
<g>
</g>
</svg>
