<?xml version="1.0" encoding="iso-8859-1"?>
<!-- Generator: Adobe Illustrator 16.0.0, SVG Export Plug-In . SVG Version: 6.00 Build 0)  -->
<!DOCTYPE svg PUBLIC "-//W3C//DTD SVG 1.1//EN" "http://www.w3.org/Graphics/SVG/1.1/DTD/svg11.dtd">
<svg version="1.1" id="Capa_1" xmlns="http://www.w3.org/2000/svg" xmlns:xlink="http://www.w3.org/1999/xlink" x="0px" y="0px"
	 width="198.969px" height="198.97px" viewBox="0 0 198.969 198.97" style="enable-background:new 0 0 198.969 198.97;"
	 xml:space="preserve">
<g>
	<g>
		<path d="M28.802,70.726c6.104,0,11.061-7.084,11.061-13.189c0-6.11-4.957-11.061-11.061-11.061
			c-6.104,0-11.061,4.951-11.061,11.061C17.741,63.641,22.691,70.726,28.802,70.726z"/>
		<path d="M23.532,156.416l3.151-39.123c0.648,0.279,1.364,0.45,2.113,0.45c0.755,0,1.471-0.158,2.119-0.45l3.148,39.123
			c0.226,2.752,2.521,4.828,5.228,4.828c0.143,0,0.287-0.012,0.423-0.024c2.893-0.226,5.051-2.759,4.808-5.645l-3.48-43.288V82.429
			c0.429,0.125,0.843,0.244,1.214,0.356l3.188,28.687c0.25,2.234,2.143,3.891,4.338,3.891c0.17,0,0.326-0.006,0.493-0.024
			c2.402-0.268,4.135-2.43,3.867-4.828l-3.504-31.5c-0.024-0.21-0.137-0.377-0.186-0.578c-0.082-0.316-0.152-0.636-0.301-0.929
			c-0.119-0.225-0.28-0.393-0.429-0.587c-0.195-0.262-0.381-0.518-0.63-0.728c-0.192-0.17-0.429-0.268-0.648-0.398
			s-0.405-0.308-0.661-0.402c-0.393-0.143-9.198-3.297-17.291-3.714l-1.117,2.226H29.35l2.95,22.947l-3.504,6.114l-3.498-6.114
			l2.95-22.947h-0.04L27.1,71.673c-8.086,0.417-16.885,3.571-17.284,3.714c-0.262,0.095-0.451,0.271-0.667,0.408
			c-0.226,0.125-0.451,0.223-0.643,0.387c-0.262,0.223-0.444,0.49-0.648,0.752c-0.137,0.189-0.295,0.356-0.405,0.563
			c-0.158,0.292-0.225,0.618-0.313,0.947c-0.049,0.195-0.155,0.362-0.18,0.566l-3.504,31.5c-0.262,2.398,1.464,4.561,3.867,4.828
			c0.161,0.019,0.323,0.024,0.49,0.024c2.195,0,4.092-1.65,4.341-3.891l3.185-28.687c0.375-0.112,0.779-0.231,1.212-0.356v29.858
			l-3.48,43.288c-0.237,2.886,1.921,5.419,4.813,5.645c0.137,0.013,0.28,0.024,0.423,0.024
			C21.02,161.244,23.315,159.168,23.532,156.416z"/>
		<polygon points="18.307,161.244 0,161.244 0,185.217 57.597,185.217 57.597,161.244 39.29,161.244 		"/>
		<path d="M99.485,38.003c6.101,0,11.058-7.085,11.058-13.189c0-6.11-4.957-11.061-11.058-11.061
			c-6.111,0-11.062,4.95-11.062,11.061C88.423,30.918,93.374,38.003,99.485,38.003z"/>
		<path d="M94.214,123.692l3.151-39.126c0.648,0.286,1.364,0.457,2.119,0.457s1.474-0.171,2.119-0.457l3.153,39.126
			c0.214,2.746,2.516,4.829,5.225,4.829c0.141,0,0.28-0.007,0.421-0.025c2.892-0.225,5.048-2.758,4.816-5.645l-3.483-43.29V49.7
			c0.433,0.125,0.841,0.243,1.218,0.356l3.185,28.686c0.25,2.234,2.149,3.891,4.342,3.891c0.158,0,0.322-0.006,0.487-0.024
			c2.399-0.268,4.128-2.433,3.86-4.832l-3.495-31.496c-0.024-0.21-0.134-0.378-0.183-0.579c-0.085-0.316-0.152-0.636-0.305-0.928
			c-0.115-0.225-0.28-0.393-0.426-0.587c-0.189-0.262-0.378-0.518-0.628-0.728c-0.188-0.17-0.432-0.262-0.651-0.393
			c-0.219-0.131-0.408-0.314-0.657-0.399c-0.402-0.149-9.194-3.307-17.293-3.718l-1.108,2.22h-0.024l2.947,22.947l-3.52,6.11
			l-3.499-6.11l2.944-22.947h-0.033l-1.108-2.22c-8.086,0.411-16.885,3.568-17.284,3.718c-0.262,0.091-0.444,0.268-0.667,0.405
			c-0.219,0.125-0.451,0.225-0.643,0.386c-0.262,0.216-0.444,0.484-0.648,0.752c-0.137,0.188-0.292,0.356-0.405,0.563
			c-0.158,0.298-0.226,0.624-0.313,0.947c-0.049,0.195-0.155,0.362-0.186,0.566l-3.498,31.496c-0.262,2.402,1.464,4.563,3.867,4.832
			c0.161,0.018,0.323,0.024,0.484,0.024c2.195,0,4.092-1.656,4.342-3.891l3.185-28.686c0.375-0.113,0.779-0.231,1.218-0.356v29.861
			l-3.48,43.291c-0.237,2.886,1.921,5.419,4.813,5.65c0.137,0.013,0.28,0.019,0.423,0.019
			C91.697,128.527,93.999,126.444,94.214,123.692z"/>
		<polygon points="88.99,128.527 70.683,128.527 70.683,185.217 128.287,185.217 128.287,128.527 109.982,128.527 		"/>
		<path d="M170.167,57.637c6.102,0,11.058-7.084,11.058-13.189c0-6.11-4.956-11.061-11.058-11.061
			c-6.113,0-11.058,4.951-11.058,11.061C159.11,50.553,164.054,57.637,170.167,57.637z"/>
		<path d="M164.907,143.33l3.147-39.129c0.652,0.286,1.364,0.457,2.119,0.457s1.468-0.165,2.113-0.457l3.154,39.129
			c0.219,2.752,2.515,4.822,5.225,4.822c0.14,0,0.279,0,0.42-0.018c2.893-0.226,5.048-2.759,4.816-5.646l-3.483-43.288V69.341
			c0.433,0.125,0.841,0.243,1.212,0.356l3.185,28.689c0.25,2.231,2.144,3.892,4.342,3.892c0.164,0,0.323-0.007,0.493-0.025
			c2.399-0.268,4.129-2.432,3.86-4.834l-3.501-31.493c-0.024-0.213-0.14-0.381-0.188-0.582c-0.086-0.316-0.146-0.636-0.293-0.929
			c-0.121-0.225-0.286-0.393-0.438-0.584c-0.188-0.262-0.377-0.518-0.627-0.737c-0.188-0.161-0.432-0.262-0.651-0.393
			c-0.213-0.131-0.401-0.313-0.657-0.398c-0.39-0.144-9.195-3.301-17.294-3.718l-1.107,2.226h-0.031l2.954,22.947l-3.502,6.11
			l-3.501-6.11l2.947-22.947h-0.037l-1.107-2.226c-8.087,0.417-16.892,3.574-17.287,3.718c-0.263,0.091-0.445,0.268-0.664,0.404
			c-0.231,0.125-0.45,0.226-0.646,0.387c-0.262,0.226-0.438,0.493-0.646,0.755c-0.14,0.186-0.292,0.353-0.408,0.56
			c-0.152,0.292-0.225,0.618-0.311,0.947c-0.049,0.201-0.158,0.362-0.183,0.569l-3.507,31.493c-0.256,2.402,1.467,4.566,3.872,4.834
			c0.158,0.019,0.317,0.025,0.487,0.025c2.198,0,4.092-1.654,4.342-3.892l3.185-28.689c0.378-0.113,0.779-0.231,1.218-0.356v29.861
			l-3.483,43.288c-0.23,2.887,1.919,5.42,4.811,5.646c0.135,0.018,0.28,0.018,0.427,0.018
			C162.385,148.152,164.681,146.082,164.907,143.33z"/>
		<polygon points="180.666,148.152 159.682,148.152 141.372,148.152 141.372,185.217 198.969,185.217 198.969,148.152 		"/>
	</g>
</g>
<g>
</g>
<g>
</g>
<g>
</g>
<g>
</g>
<g>
</g>
<g>
</g>
<g>
</g>
<g>
</g>
<g>
</g>
<g>
</g>
<g>
</g>
<g>
</g>
<g>
</g>
<g>
</g>
<g>
</g>
</svg>
