<?xml version="1.0" encoding="iso-8859-1"?>
<!-- Generator: Adobe Illustrator 16.0.0, SVG Export Plug-In . SVG Version: 6.00 Build 0)  -->
<!DOCTYPE svg PUBLIC "-//W3C//DTD SVG 1.1//EN" "http://www.w3.org/Graphics/SVG/1.1/DTD/svg11.dtd">
<svg version="1.1" id="Capa_1" xmlns="http://www.w3.org/2000/svg" xmlns:xlink="http://www.w3.org/1999/xlink" x="0px" y="0px"
	 width="156.351px" height="156.351px" viewBox="0 0 156.351 156.351" style="enable-background:new 0 0 156.351 156.351;"
	 xml:space="preserve">
<g>
	<g>
		<path d="M123.22,115.268c0-12.531-14.438-29.459-33.923-34.401c8.147-5.483,13.762-16.289,13.762-26.028
			c0-13.74-11.144-24.877-24.881-24.877c-13.737,0-24.865,11.137-24.865,24.877c0,9.739,5.599,20.544,13.761,26.028
			c-19.485,4.942-33.929,21.857-33.929,34.401C33.134,130.088,123.22,130.088,123.22,115.268z M78.172,126.374l-12.614-12.61
			l10.62-25.678h-0.113l-4.128-4.732c1.994,0.713,4.077,1.151,6.235,1.151s4.241-0.427,6.224-1.145l-4.117,4.726h-0.113
			l10.623,25.678L78.172,126.374z"/>
		<polygon points="12.047,19.248 27.361,34.562 34.562,27.355 19.254,12.041 24.731,6.567 0,0 6.561,24.737 		"/>
		<polygon points="144.3,137.109 128.993,121.795 121.783,129.004 137.097,144.312 131.611,149.793 156.351,156.351 
			149.781,131.623 		"/>
		<polygon points="27.349,121.783 12.041,137.097 6.561,131.61 0,156.351 24.731,149.781 19.242,144.301 34.556,128.992 		"/>
		<polygon points="128.993,34.562 144.313,19.254 149.781,24.73 156.351,0 131.611,6.561 137.103,12.047 121.789,27.361 		"/>
	</g>
</g>
<g>
</g>
<g>
</g>
<g>
</g>
<g>
</g>
<g>
</g>
<g>
</g>
<g>
</g>
<g>
</g>
<g>
</g>
<g>
</g>
<g>
</g>
<g>
</g>
<g>
</g>
<g>
</g>
<g>
</g>
</svg>
