<?xml version="1.0" encoding="iso-8859-1"?>
<!-- Generator: Adobe Illustrator 16.0.0, SVG Export Plug-In . SVG Version: 6.00 Build 0)  -->
<!DOCTYPE svg PUBLIC "-//W3C//DTD SVG 1.1//EN" "http://www.w3.org/Graphics/SVG/1.1/DTD/svg11.dtd">
<svg version="1.1" id="Capa_1" xmlns="http://www.w3.org/2000/svg" xmlns:xlink="http://www.w3.org/1999/xlink" x="0px" y="0px"
	 width="164.63px" height="164.63px" viewBox="0 0 164.63 164.63" style="enable-background:new 0 0 164.63 164.63;"
	 xml:space="preserve">
<g>
	<g>
		<polygon points="74.714,162.284 74.732,162.265 74.692,162.265 		"/>
		<path d="M104.757,123.728c-2.453-0.579-4.444-1.992-5.65-4.093c-4.433-7.685-1.79-17.561,5.895-22.012
			c2.947-1.699,6.333-2.259,9.621-1.919c-6.546-3.848-13.762-6.959-21.465-8.92c13.519-9.098,22.828-27.03,22.828-43.178
			c0-22.789-18.486-41.272-41.266-41.272c-22.786,0-41.266,18.475-41.266,41.272c0,16.148,9.311,34.081,22.828,43.178
			C23.958,94.987,0,123.051,0,143.846c0,12.288,37.351,18.426,74.699,18.419l-20.913-20.916l17.622-42.6h-0.179l-6.848-7.849
			c3.31,1.188,6.759,1.905,10.339,1.905c3.578,0,7.021-0.718,10.324-1.899l-6.847,7.837h-0.167l17.619,42.6l-20.91,20.916
			c13.085,0,26.159-0.755,37.643-2.265c-6.333-5.833-10.37-14.127-10.37-23.389C102.005,132.13,102.956,127.747,104.757,123.728z"/>
		<path d="M160.157,103.359l0.013-0.018l-0.963-0.646l-0.055,0.085c-4.646-2.326-10.345-0.7-12.97,3.86
			c-1.236,2.138,1.602,5.322,5.316,7.745L150,116.652c-4.001-3.228-8.981-5.261-14.432-5.614v-2.825
			c0.992,0.268,1.668,0.268,1.668-2.211c0-3.701-1.485-4.755-3.312-4.755c-1.839,0-3.318,1.054-3.318,4.755
			c0,2.479,0.676,2.479,1.662,2.211v2.825c-5.443,0.354-10.437,2.387-14.431,5.614l-1.498-2.266
			c3.727-2.423,6.546-5.607,5.322-7.745c-2.734-4.726-8.781-6.351-13.519-3.616c-4.725,2.728-6.345,8.78-3.617,13.505
			c1.395,2.405,6.491,1.023,10.827-1.528l1.607,2.424c-5.328,4.701-8.701,11.551-8.701,19.193c0,14.156,11.515,25.678,25.665,25.678
			c14.158,0,25.672-11.521,25.672-25.678c0-7.643-3.373-14.486-8.695-19.193l1.596-2.418c4.323,2.558,9.438,3.928,10.82,1.522
			C165.942,111.963,164.504,106.221,160.157,103.359z M151.791,125.615l-1.724,1.012l0.579,0.998l1.704-0.998
			c1.535,2.824,2.479,6.004,2.57,9.407h-2.034v1.151h2.034c-0.092,3.409-1.035,6.588-2.57,9.413l-1.704-0.999l-0.579,0.999
			l1.748,1.011c-1.748,2.813-4.099,5.164-6.905,6.893l-1.011-1.729l-0.986,0.561l0.98,1.723c-2.832,1.534-5.992,2.479-9.402,2.582
			v-2.04h-1.15v2.04c-3.41-0.104-6.601-1.041-9.42-2.582l0.998-1.723l-1.004-0.561l-0.999,1.741
			c-2.813-1.735-5.163-4.092-6.893-6.893l1.741-1.011l-0.585-0.999l-1.717,0.986c-1.534-2.825-2.472-5.979-2.569-9.401h2.033v-1.15
			h-2.033c0.098-3.404,1.035-6.583,2.569-9.408l1.711,0.998l0.579-1.01l-1.729-0.999c1.729-2.813,4.067-5.157,6.881-6.894
			l1.004,1.736l0.993-0.566l-0.986-1.718c2.825-1.54,5.997-2.472,9.413-2.575v2.039h0.463l-3.117,6.236h2.082v12.08l-6.479,3.739
			l-1.041-1.803l-3.971,6.022l7.204-0.433l-1.048-1.79l7.058-4.08c0.036-0.023,0.049-0.098,0.091-0.121
			c0.135-0.104,0.177-0.207,0.269-0.342c0.073-0.121,0.134-0.237,0.158-0.389c0-0.062,0.055-0.098,0.055-0.146v-12.732h2.076
			l-3.111-6.235h0.457l0.006-2.04c3.403,0.098,6.576,1.035,9.407,2.576l-0.998,1.711l1.005,0.572l1.004-1.742
			C147.71,120.452,150.061,122.808,151.791,125.615z"/>
	</g>
</g>
<g>
</g>
<g>
</g>
<g>
</g>
<g>
</g>
<g>
</g>
<g>
</g>
<g>
</g>
<g>
</g>
<g>
</g>
<g>
</g>
<g>
</g>
<g>
</g>
<g>
</g>
<g>
</g>
<g>
</g>
</svg>
