<?xml version="1.0" encoding="iso-8859-1"?>
<!-- Generator: Adobe Illustrator 16.0.0, SVG Export Plug-In . SVG Version: 6.00 Build 0)  -->
<!DOCTYPE svg PUBLIC "-//W3C//DTD SVG 1.1//EN" "http://www.w3.org/Graphics/SVG/1.1/DTD/svg11.dtd">
<svg version="1.1" id="Capa_1" xmlns="http://www.w3.org/2000/svg" xmlns:xlink="http://www.w3.org/1999/xlink" x="0px" y="0px"
	 width="183.788px" height="183.788px" viewBox="0 0 183.788 183.788" style="enable-background:new 0 0 183.788 183.788;"
	 xml:space="preserve">
<g>
	<g>
		<path d="M53.792,38.837c9.771,0,17.705-11.343,17.705-21.127C71.497,7.929,63.562,0,53.792,0c-9.784,0-17.717,7.929-17.717,17.71
			C36.075,27.494,44.008,38.837,53.792,38.837z"/>
		<path d="M96.492,113.61h-5.02v-4.739c1.956-1.434,3.185-3.759,2.897-6.342l-5.604-50.43c-0.037-0.342-0.218-0.61-0.301-0.93
			c-0.128-0.514-0.241-1.021-0.484-1.491c-0.184-0.353-0.446-0.626-0.682-0.941c-0.315-0.413-0.598-0.824-1.004-1.171
			c-0.32-0.263-0.688-0.424-1.048-0.632c-0.357-0.208-0.656-0.493-1.058-0.646c-0.633-0.229-14.731-5.277-27.686-5.945l-1.781,3.56
			h-0.046l4.72,36.741l-5.604,9.787l-5.603-9.787l4.718-36.741h-0.056l-1.779-3.56c-12.955,0.662-27.044,5.716-27.679,5.945
			c-0.409,0.153-0.712,0.443-1.07,0.656c-0.348,0.208-0.718,0.359-1.027,0.622c-0.413,0.347-0.712,0.774-1.037,1.198
			c-0.224,0.304-0.476,0.566-0.653,0.903c-0.248,0.477-0.353,0.998-0.493,1.518c-0.085,0.315-0.259,0.583-0.299,0.908l-5.603,50.431
			c-0.427,3.852,2.342,7.31,6.187,7.737c0.262,0.032,0.519,0.043,0.784,0.043c3.519,0,6.551-2.648,6.948-6.227l5.104-45.938
			c0.595-0.175,1.25-0.364,1.947-0.566v47.806l-5.577,69.32c-0.369,4.628,3.076,8.68,7.704,9.05c0.23,0.022,0.455,0.027,0.686,0.027
			c4.331,0,8.01-3.333,8.363-7.731l5.04-62.655c1.04,0.461,2.183,0.733,3.391,0.733c1.204,0,2.353-0.272,3.389-0.733l5.038,62.655
			c0.353,4.398,4.032,7.731,8.363,7.731c0.23,0,0.455-0.005,0.684-0.027c4.629-0.37,8.075-4.422,7.705-9.05l-5.561-69.309V57.579
			c0.695,0.197,1.342,0.386,1.942,0.566l5.106,45.943c0.374,3.371,3.104,5.822,6.352,6.117v3.404h-5.021
			c-1.539,0-2.801,1.259-2.801,2.801v42.495c0,1.533,1.262,2.805,2.801,2.805h14.708c1.547,0,2.807-1.271,2.807-2.805v-42.495
			C99.299,114.869,98.039,113.61,96.492,113.61z"/>
		<polygon points="129.728,113.254 146.487,113.254 146.487,36.386 159.227,36.386 138.1,0.005 116.972,36.386 129.728,36.386 		"/>
		<path d="M138.094,118.742c-17.942,0-32.523,14.589-32.523,32.515c0,17.948,14.586,32.531,32.523,32.531
			c17.927,0,32.525-14.583,32.525-32.531C170.619,133.331,156.021,118.742,138.094,118.742z M161.454,163.919l-2.174-1.271
			l-0.711,1.275l2.189,1.274c-2.189,3.558-5.177,6.535-8.744,8.739l-1.265-2.204l-1.263,0.721l1.252,2.179
			c-3.582,1.959-7.601,3.141-11.91,3.267v-2.583h-1.463v2.583c-4.317-0.126-8.356-1.308-11.924-3.267l1.265-2.179l-1.275-0.721
			l-1.265,2.21c-3.567-2.199-6.555-5.188-8.744-8.745l2.207-1.274l-0.729-1.265l-2.179,1.26c-1.942-3.578-3.146-7.596-3.265-11.912
			h2.586v-1.462h-2.586c0.118-4.322,1.322-8.351,3.265-11.929l2.179,1.265l0.729-1.273l-2.202-1.271
			c2.189-3.562,5.163-6.54,8.726-8.744l1.278,2.204l1.266-0.723l-1.255-2.172c3.581-1.947,7.619-3.14,11.924-3.272v2.585h1.449
			l0.008-2.585c4.315,0.133,8.344,1.325,11.922,3.272l-1.258,2.172l1.271,0.723l1.267-2.204c3.562,2.194,6.545,5.17,8.739,8.737
			l-2.204,1.278l0.721,1.262l2.179-1.262c1.948,3.587,3.143,7.604,3.269,11.916h-2.577v1.472h2.577
			C164.589,156.313,163.407,160.341,161.454,163.919z"/>
		<path d="M140.589,148.334c-3.787-1.422-5.341-2.363-5.341-3.825c0-1.252,0.933-2.489,3.827-2.489c3.189,0,5.234,1.028,6.395,1.51
			l1.281-5.017c-1.456-0.712-3.464-1.33-6.434-1.473v-3.906h-4.352v4.224c-4.756,0.931-7.512,4.005-7.512,7.902
			c0,4.311,3.249,6.533,8.003,8.131c3.291,1.116,4.701,2.188,4.701,3.874c0,1.767-1.728,2.747-4.258,2.747
			c-2.89,0-5.51-0.931-7.368-1.953l-1.332,5.197c1.686,0.98,4.568,1.769,7.546,1.91v4.225h4.353v-4.542
			c5.108-0.887,7.91-4.269,7.91-8.214C147.998,152.635,145.864,150.196,140.589,148.334z"/>
	</g>
</g>
<g>
</g>
<g>
</g>
<g>
</g>
<g>
</g>
<g>
</g>
<g>
</g>
<g>
</g>
<g>
</g>
<g>
</g>
<g>
</g>
<g>
</g>
<g>
</g>
<g>
</g>
<g>
</g>
<g>
</g>
</svg>
