<?xml version="1.0" encoding="iso-8859-1"?>
<!-- Generator: Adobe Illustrator 16.0.0, SVG Export Plug-In . SVG Version: 6.00 Build 0)  -->
<!DOCTYPE svg PUBLIC "-//W3C//DTD SVG 1.1//EN" "http://www.w3.org/Graphics/SVG/1.1/DTD/svg11.dtd">
<svg version="1.1" id="Capa_1" xmlns="http://www.w3.org/2000/svg" xmlns:xlink="http://www.w3.org/1999/xlink" x="0px" y="0px"
	 width="151.673px" height="151.673px" viewBox="0 0 151.673 151.673" style="enable-background:new 0 0 151.673 151.673;"
	 xml:space="preserve">
<g>
	<g>
		<path d="M94.269,76.181c5.456-3.671,10.181-8.813,13.926-14.668L83.789,80.961c0.785-0.226,1.602-0.378,2.368-0.651l-6.844,7.837
			h-0.171l17.622,36.364l-20.931,20.928l-20.932-20.934L72.524,88.14h-0.183l-6.847-7.849c0.98,0.354,1.997,0.566,3.008,0.828
			L41.765,58.651c3.958,7.039,9.301,13.269,15.631,17.524c-32.324,8.202-56.279,36.268-56.279,57.062
			c0,24.582,149.44,24.582,149.44,0C150.551,112.449,126.602,84.383,94.269,76.181z"/>
		<polygon points="87.022,61.549 87.022,60.115 64.647,60.146 64.647,61.549 64.666,61.61 87.022,61.574 		"/>
		<path d="M75.84,72.748c5.38,0,9.679-3.885,10.738-8.967l-21.471,0.037C66.176,68.869,70.466,72.748,75.84,72.748z"/>
		<path d="M87.205,57.908c0.975-10.339,14.517-12.726,14.517-32.02C101.722,11.597,90.152,0,75.84,0
			C61.536,0,49.945,11.597,49.945,25.888c0,19.324,13.609,21.692,14.501,32.05L87.205,57.908z M76.674,8.979
			c3.395-1.952,10.531,0.755,14.185,7.084c3.642,6.327,2.424,13.871-0.962,15.826c-3.361,1.948-1.583-5.919-5.236-12.249
			C80.997,13.317,73.31,10.93,76.674,8.979z"/>
	</g>
</g>
<g>
</g>
<g>
</g>
<g>
</g>
<g>
</g>
<g>
</g>
<g>
</g>
<g>
</g>
<g>
</g>
<g>
</g>
<g>
</g>
<g>
</g>
<g>
</g>
<g>
</g>
<g>
</g>
<g>
</g>
</svg>
