<?xml version="1.0" encoding="iso-8859-1"?>
<!-- Generator: Adobe Illustrator 16.0.0, SVG Export Plug-In . SVG Version: 6.00 Build 0)  -->
<!DOCTYPE svg PUBLIC "-//W3C//DTD SVG 1.1//EN" "http://www.w3.org/Graphics/SVG/1.1/DTD/svg11.dtd">
<svg version="1.1" id="Capa_1" xmlns="http://www.w3.org/2000/svg" xmlns:xlink="http://www.w3.org/1999/xlink" x="0px" y="0px"
	 width="195.534px" height="195.534px" viewBox="0 0 195.534 195.534" style="enable-background:new 0 0 195.534 195.534;"
	 xml:space="preserve">
<g>
	<path d="M31.937,195.534L31.937,195.534L31.937,195.534z"/>
	<path d="M97.764,195.534L97.764,195.534L97.764,195.534z"/>
	<path d="M163.587,195.534L163.587,195.534L163.587,195.534z"/>
	<g>
		<path d="M38.129,165.162c4.545-3.057,7.663-9.073,7.663-14.498c0-7.654-6.199-13.853-13.85-13.853s-13.847,6.198-13.847,13.853
			c0,5.425,3.118,11.435,7.663,14.498c-10.851,2.74-18.895,12.166-18.895,19.145c0,4.128,12.541,6.187,25.078,6.187l-7.027-7.021
			l5.918-14.297h-0.064l-2.298-2.631c1.108,0.396,2.268,0.64,3.471,0.64c1.206,0,2.356-0.231,3.468-0.634l-2.295,2.631h-0.061
			l5.916,14.298l-7.027,7.021c12.547,0,25.078-2.064,25.078-6.181C57.021,177.328,48.978,167.908,38.129,165.162z"/>
		<path d="M103.95,165.162c4.543-3.057,7.66-9.073,7.66-14.498c0-7.654-6.195-13.853-13.847-13.853s-13.85,6.198-13.85,13.853
			c0,5.425,3.117,11.435,7.663,14.498c-10.848,2.74-18.892,12.166-18.892,19.145c0,4.128,12.538,6.187,25.078,6.187l-7.027-7.021
			l5.916-14.297h-0.061l-2.301-2.631c1.111,0.396,2.271,0.64,3.474,0.64s2.356-0.231,3.468-0.634l-2.296,2.631h-0.061l5.915,14.298
			l-7.026,7.015c12.544,0,25.075-2.064,25.075-6.187C122.839,177.328,114.801,167.908,103.95,165.162z"/>
		<path d="M169.774,165.162c4.542-3.057,7.66-9.073,7.66-14.498c0-7.654-6.193-13.853-13.848-13.853
			c-7.647,0-13.847,6.198-13.847,13.853c0,5.425,3.118,11.435,7.66,14.498c-10.845,2.74-18.888,12.166-18.888,19.145
			c0,4.128,12.537,6.187,25.074,6.187l-7.026-7.021l5.919-14.297h-0.062l-2.302-2.637c1.108,0.402,2.266,0.646,3.471,0.646
			c1.206,0,2.363-0.243,3.472-0.64l-2.296,2.631h-0.067l5.919,14.297l-7.027,7.021c12.544,0,25.082-2.064,25.082-6.187
			C188.669,177.328,180.625,167.908,169.774,165.162z"/>
		<path d="M32.293,127.884c1.72,0,3.118-1.4,3.118-3.117V92.031h59.235v32.735c0,1.717,1.397,3.117,3.118,3.117
			s3.118-1.4,3.118-3.117V92.031h59.235v32.735c0,1.717,1.4,3.117,3.118,3.117c1.717,0,3.117-1.4,3.117-3.117V88.914
			c0-1.72-1.4-3.118-3.117-3.118h-62.353V71.767c0-1.72-1.397-3.118-3.118-3.118s-3.118,1.397-3.118,3.118v14.029H32.293
			c-1.72,0-3.118,1.397-3.118,3.118v35.853C29.175,126.496,30.573,127.884,32.293,127.884z"/>
		<path d="M97.764,62.414c17.202,0,31.207-13.996,31.207-31.213C128.971,13.996,114.966,0,97.764,0
			C80.556,0,66.562,13.996,66.562,31.201C66.557,48.418,80.546,62.414,97.764,62.414z M72.204,31.916h2.481v-1.4h-2.481
			c0.119-4.146,1.267-8.007,3.13-11.441l2.083,1.208l0.707-1.208L76.01,17.85c2.101-3.416,4.95-6.272,8.373-8.385l1.227,2.113
			l1.212-0.7l-1.206-2.082c3.438-1.87,7.298-3.012,11.438-3.13v2.469h0.584l-3.772,7.56h2.557v15.519
			c0,0.125,0.098,0.207,0.137,0.326c0.024,0.11-0.018,0.228,0.042,0.341l5.1,8.829l-2.213,1.285l7.274,4.795l-0.527-8.692
			l-2.213,1.285l-4.92-8.525V15.701h2.558l-3.772-7.557h0.572l0.006-2.472c4.141,0.119,8.007,1.261,11.438,3.13l-1.212,2.083
			l1.225,0.7l1.218-2.119c3.409,2.101,6.271,4.962,8.378,8.385l-2.106,1.23l0.706,1.203l2.07-1.203
			c1.876,3.435,3.015,7.295,3.143,11.436h-2.491v1.4h2.479c-0.128,4.146-1.278,8.007-3.142,11.441l-2.07-1.208l-0.694,1.208
			l2.106,1.224c-2.106,3.416-4.969,6.272-8.391,8.385l-1.218-2.113l-1.212,0.694l1.2,2.082c-3.438,1.87-7.292,3.011-11.433,3.13
			v-2.475h-1.4v2.469c-4.147-0.119-8.014-1.261-11.436-3.13l1.208-2.083l-1.218-0.694l-1.215,2.112
			c-3.422-2.101-6.284-4.969-8.391-8.385l2.119-1.229l-0.7-1.203l-2.088,1.203C73.471,39.911,72.323,36.057,72.204,31.916z"/>
	</g>
</g>
<g>
</g>
<g>
</g>
<g>
</g>
<g>
</g>
<g>
</g>
<g>
</g>
<g>
</g>
<g>
</g>
<g>
</g>
<g>
</g>
<g>
</g>
<g>
</g>
<g>
</g>
<g>
</g>
<g>
</g>
</svg>
