<?xml version="1.0" encoding="iso-8859-1"?>
<!-- Generator: Adobe Illustrator 16.0.0, SVG Export Plug-In . SVG Version: 6.00 Build 0)  -->
<!DOCTYPE svg PUBLIC "-//W3C//DTD SVG 1.1//EN" "http://www.w3.org/Graphics/SVG/1.1/DTD/svg11.dtd">
<svg version="1.1" id="Capa_1" xmlns="http://www.w3.org/2000/svg" xmlns:xlink="http://www.w3.org/1999/xlink" x="0px" y="0px"
	 width="188.378px" height="188.379px" viewBox="0 0 188.378 188.379" style="enable-background:new 0 0 188.378 188.379;"
	 xml:space="preserve">
<g>
	<g>
		<path d="M32.504,51.743c7.814,0,14.169-9.074,14.169-16.897c0-7.828-6.361-14.167-14.169-14.167
			c-7.823,0-14.178,6.339-14.178,14.167S24.682,51.743,32.504,51.743z"/>
		<path d="M66.66,111.558h-4.004v-3.781c1.562-1.149,2.544-3.013,2.314-5.072l-4.496-40.348c-0.026-0.273-0.167-0.492-0.229-0.744
			c-0.117-0.416-0.189-0.812-0.385-1.188c-0.151-0.287-0.353-0.511-0.544-0.757c-0.257-0.336-0.487-0.667-0.807-0.936
			c-0.264-0.208-0.567-0.336-0.835-0.504c-0.294-0.169-0.525-0.399-0.85-0.514c-0.511-0.186-11.785-4.232-22.146-4.763l-1.417,2.846
			h-0.044L36.98,85.19l-4.476,7.828L28.02,85.19l3.765-29.395h-0.044l-1.413-2.846C19.945,53.48,8.695,57.527,8.183,57.713
			c-0.336,0.115-0.577,0.35-0.873,0.525c-0.264,0.161-0.556,0.285-0.796,0.493c-0.346,0.277-0.582,0.618-0.84,0.958
			c-0.185,0.235-0.376,0.448-0.533,0.72c-0.189,0.386-0.273,0.793-0.392,1.215c-0.057,0.257-0.197,0.465-0.234,0.728l-4.479,40.342
			c-0.348,3.075,1.877,5.845,4.949,6.189c0.203,0.022,0.424,0.038,0.638,0.038c2.792,0,5.239-2.117,5.554-4.979l4.069-36.758
			c0.488-0.14,1.018-0.292,1.567-0.449v38.241l-4.469,55.449c-0.294,3.708,2.475,6.948,6.168,7.243
			c0.184,0.017,0.369,0.022,0.548,0.022c3.469,0,6.416-2.671,6.698-6.184l4.032-50.112c0.841,0.366,1.749,0.574,2.715,0.574
			c0.962,0,1.865-0.208,2.706-0.574l4.032,50.112c0.299,3.513,3.229,6.184,6.698,6.184c0.185,0,0.359-0.006,0.542-0.022
			c3.716-0.295,6.458-3.535,6.164-7.243l-4.465-55.449V66.733c0.577,0.15,1.086,0.301,1.562,0.449l4.085,36.758
			c0.292,2.691,2.475,4.662,5.089,4.892v2.726h-4.02c-1.242,0-2.234,1.013-2.234,2.237v33.998c0,1.23,0.998,2.243,2.234,2.243
			h11.757c1.239,0,2.234-1.013,2.234-2.243v-33.991C68.896,112.57,67.899,111.558,66.66,111.558z"/>
		<polygon points="104.603,96.471 104.603,103.591 129.215,103.591 129.215,96.471 140.641,96.471 116.911,76.758 93.18,96.471 		
			"/>
		<polygon points="93.287,69.91 78.293,58.047 78.293,63.762 65.27,63.762 65.27,76.069 78.293,76.069 78.293,81.78 		"/>
		<path d="M178.638,53.004V41.133h-9.634V20.864h-2.413v20.269h-9.633v11.872h-9.74v109.88h-4.085v-53.735H90.67V167.7h52.463h4.085
			h41.16V53.004H178.638z M104.389,144.97h-8.9v-15.502h8.9V144.97z M115.706,162.885h-8.903v-15.502h8.903V162.885z
			 M115.706,144.97h-8.903v-15.502h8.903V144.97z M115.706,127.06h-8.903v-15.502h8.903V127.06z M127.01,162.885h-8.903v-15.502
			h8.903V162.885z M127.01,127.06h-8.903v-15.502h8.903V127.06z M138.329,144.97h-8.904v-15.502h8.904V144.97z M159.372,43.54
			h16.859v9.464h-16.859V43.54z M160.947,144.97h-8.905v-15.502h8.905V144.97z M160.947,127.06h-8.905v-15.502h8.905V127.06z
			 M160.947,109.149h-8.905V93.642h8.905V109.149z M160.947,91.242h-8.905V75.738h8.905V91.242z M172.254,162.885h-8.899v-15.502
			h8.899V162.885z M172.254,144.97h-8.899v-15.502h8.899V144.97z M172.254,91.242h-8.899V75.738h8.899V91.242z M172.254,73.322
			h-8.899v-15.5h8.899V73.322z M183.569,144.97h-8.914v-15.502h8.914V144.97z M183.569,127.06h-8.914v-15.502h8.914V127.06z
			 M183.569,109.149h-8.914V93.642h8.914V109.149z M183.569,73.322h-8.914v-15.5h3.983h4.931V73.322z"/>
	</g>
</g>
<g>
</g>
<g>
</g>
<g>
</g>
<g>
</g>
<g>
</g>
<g>
</g>
<g>
</g>
<g>
</g>
<g>
</g>
<g>
</g>
<g>
</g>
<g>
</g>
<g>
</g>
<g>
</g>
<g>
</g>
</svg>
