<?xml version="1.0" encoding="iso-8859-1"?>
<!-- Generator: Adobe Illustrator 16.0.0, SVG Export Plug-In . SVG Version: 6.00 Build 0)  -->
<!DOCTYPE svg PUBLIC "-//W3C//DTD SVG 1.1//EN" "http://www.w3.org/Graphics/SVG/1.1/DTD/svg11.dtd">
<svg version="1.1" id="Capa_1" xmlns="http://www.w3.org/2000/svg" xmlns:xlink="http://www.w3.org/1999/xlink" x="0px" y="0px"
	 width="204.51px" height="204.51px" viewBox="0 0 204.51 204.51" style="enable-background:new 0 0 204.51 204.51;"
	 xml:space="preserve">
<g>
	<g>
		<path d="M63.451,43.212c10.875,0,19.705-12.623,19.705-23.501C83.156,8.823,74.327,0,63.451,0C52.564,0,43.738,8.829,43.738,19.71
			C43.738,30.589,52.564,43.212,63.451,43.212z"/>
		<path d="M102.035,56.915c-0.143-0.56-0.262-1.117-0.523-1.629c-0.216-0.417-0.524-0.739-0.81-1.108
			c-0.329-0.429-0.63-0.874-1.047-1.23c-0.387-0.323-0.828-0.518-1.26-0.768c-0.381-0.21-0.679-0.515-1.108-0.673
			c-0.707-0.256-16.392-5.879-30.808-6.622l-1.985,3.968h-0.049l5.249,40.879l-6.235,10.894l-6.235-10.894l5.252-40.879H62.41
			l-1.982-3.968c-14.416,0.743-30.099,6.366-30.802,6.622c-0.436,0.165-0.761,0.475-1.16,0.707c-0.405,0.238-0.828,0.417-1.19,0.722
			c-0.438,0.375-0.755,0.831-1.099,1.291c-0.268,0.351-0.566,0.655-0.773,1.054c-0.268,0.523-0.387,1.087-0.536,1.659
			c-0.091,0.362-0.292,0.661-0.335,1.041l-6.235,56.118c-0.475,4.274,2.606,8.135,6.884,8.61c0.292,0.023,0.579,0.049,0.871,0.049
			c3.918,0,7.292-2.954,7.733-6.942l5.681-51.112c0.661-0.201,1.389-0.411,2.162-0.63v53.204l-6.202,77.137
			c-0.414,5.146,3.422,9.658,8.574,10.065c0.256,0.019,0.502,0.03,0.758,0.03c4.819,0,8.917-3.708,9.31-8.604l5.605-69.715
			c1.16,0.512,2.433,0.804,3.772,0.804c1.343,0,2.618-0.292,3.772-0.804l5.605,69.715c0.393,4.896,4.491,8.604,9.311,8.604
			c0.256,0,0.505-0.006,0.761-0.03c5.151-0.407,8.984-4.926,8.573-10.065l-6.205-77.137V64.073c0.773,0.219,1.498,0.429,2.165,0.63
			l5.681,51.112c0.441,3.988,3.815,6.942,7.73,6.942c0.292,0,0.581-0.013,0.874-0.049c4.284-0.476,7.365-4.336,6.884-8.61
			l-6.236-56.118C102.337,57.588,102.13,57.277,102.035,56.915z"/>
		<polygon points="179.435,74.741 176.122,71.438 129.309,118.251 126.021,114.976 121.35,128.956 135.343,124.292 132.615,121.563 
					"/>
		<rect x="112.959" y="152.91" width="18.304" height="51.594"/>
		<rect x="140.458" y="129.771" width="18.304" height="74.738"/>
		<rect x="167.956" y="101.305" width="18.305" height="103.199"/>
	</g>
</g>
<g>
</g>
<g>
</g>
<g>
</g>
<g>
</g>
<g>
</g>
<g>
</g>
<g>
</g>
<g>
</g>
<g>
</g>
<g>
</g>
<g>
</g>
<g>
</g>
<g>
</g>
<g>
</g>
<g>
</g>
</svg>
