<?xml version="1.0" encoding="iso-8859-1"?>
<!-- Generator: Adobe Illustrator 16.0.0, SVG Export Plug-In . SVG Version: 6.00 Build 0)  -->
<!DOCTYPE svg PUBLIC "-//W3C//DTD SVG 1.1//EN" "http://www.w3.org/Graphics/SVG/1.1/DTD/svg11.dtd">
<svg version="1.1" id="Capa_1" xmlns="http://www.w3.org/2000/svg" xmlns:xlink="http://www.w3.org/1999/xlink" x="0px" y="0px"
	 width="167.902px" height="167.902px" viewBox="0 0 167.902 167.902" style="enable-background:new 0 0 167.902 167.902;"
	 xml:space="preserve">
<g>
	<g>
		<polygon points="74.723,163.922 74.748,163.886 74.692,163.886 		"/>
		<path d="M95.655,142.988l-20.907,20.898c7.663,0,15.339-0.237,22.685-0.755c0.201-6.601,1.607-15.442,5.061-23.505h-8.221
			L95.655,142.988z"/>
		<path d="M71.404,100.401h-0.18l-6.847-7.855c3.312,1.193,6.759,1.899,10.339,1.899s7.021-0.706,10.324-1.893l-6.844,7.836h-0.17
			l8.917,21.556c3.105-6.661,12.224-15.99,38.791-16.854c-9.049-7.453-20.191-13.518-32.58-16.666
			c13.515-9.098,22.831-27.03,22.831-43.178c0-22.789-18.486-41.272-41.269-41.272S33.451,22.447,33.451,45.245
			c0,16.148,9.311,34.081,22.828,43.178C23.955,96.625,0,124.69,0,145.485c0,12.288,37.335,18.401,74.692,18.401l-20.907-20.898
			L71.404,100.401z"/>
		<path d="M91.553,128.459h19.866c0,0,0-9.493,18.31-9.493c18.311,0,18.311,9.493,18.311,9.493h19.862c0,0,0-17.232-38.166-17.227
			C91.553,111.24,91.553,128.459,91.553,128.459z"/>
		<rect x="91.553" y="130.261" width="19.866" height="3.131"/>
		<rect x="148.027" y="130.261" width="19.863" height="3.131"/>
		<path d="M129.723,125.518c-25.355,0-26.098,38.411-26.098,38.411h52.184C155.809,163.929,155.079,125.518,129.723,125.518z
			 M129.723,156.652c-6.418,0-11.63-5.206-11.63-11.63c0-6.418,5.212-11.63,11.63-11.63s11.631,5.212,11.631,11.63
			C141.354,151.446,136.141,156.652,129.723,156.652z"/>
		<path d="M129.723,137.91c3.934,0,7.112,3.185,7.112,7.112c0,3.934-3.179,7.112-7.112,7.112c-3.928,0-7.112-3.179-7.112-7.112
			C122.611,141.094,125.795,137.91,129.723,137.91z"/>
	</g>
</g>
<g>
</g>
<g>
</g>
<g>
</g>
<g>
</g>
<g>
</g>
<g>
</g>
<g>
</g>
<g>
</g>
<g>
</g>
<g>
</g>
<g>
</g>
<g>
</g>
<g>
</g>
<g>
</g>
<g>
</g>
</svg>
