<?xml version="1.0" encoding="iso-8859-1"?>
<!-- Generator: Adobe Illustrator 16.0.0, SVG Export Plug-In . SVG Version: 6.00 Build 0)  -->
<!DOCTYPE svg PUBLIC "-//W3C//DTD SVG 1.1//EN" "http://www.w3.org/Graphics/SVG/1.1/DTD/svg11.dtd">
<svg version="1.1" id="Capa_1" xmlns="http://www.w3.org/2000/svg" xmlns:xlink="http://www.w3.org/1999/xlink" x="0px" y="0px"
	 width="213.632px" height="213.632px" viewBox="0 0 213.632 213.632" style="enable-background:new 0 0 213.632 213.632;"
	 xml:space="preserve">
<g>
	<g>
		<path d="M83.482,65.406c10.001,0,18.115-11.597,18.115-21.598c0-10.002-8.12-18.112-18.115-18.112
			c-10.007,0-18.112,8.11-18.112,18.112C65.37,53.81,73.468,65.406,83.482,65.406z"/>
		<path d="M118.927,77.996c-0.121-0.506-0.231-1.023-0.469-1.483c-0.201-0.387-0.48-0.685-0.743-1.023
			c-0.304-0.399-0.59-0.792-0.962-1.136c-0.359-0.292-0.767-0.481-1.156-0.697c-0.366-0.201-0.634-0.481-1.018-0.624
			c-0.657-0.231-15.077-5.401-28.314-6.086l-1.833,3.647h-0.039l4.813,37.561l-5.73,10.011l-5.724-10.011l4.813-37.561h-0.049
			l-1.827-3.647c-13.238,0.685-27.66,5.854-28.302,6.086c-0.399,0.149-0.703,0.441-1.065,0.643
			c-0.375,0.225-0.761,0.393-1.105,0.667c-0.398,0.356-0.691,0.773-1.001,1.184c-0.238,0.32-0.527,0.606-0.707,0.975
			c-0.25,0.478-0.368,1.002-0.493,1.525c-0.085,0.326-0.274,0.605-0.304,0.956l-5.73,51.568c-0.438,3.934,2.393,7.466,6.323,7.904
			c0.268,0.03,0.542,0.055,0.804,0.055c3.602,0,6.689-2.722,7.106-6.388l5.221-46.975c0.609-0.173,1.27-0.374,1.982-0.578v48.893
			l-5.693,70.89c-0.38,4.726,3.142,8.879,7.876,9.256c0.234,0.019,0.466,0.024,0.704,0.024c4.42,0,8.187-3.41,8.555-7.897
			l5.157-64.07c1.047,0.475,2.226,0.736,3.459,0.736c1.236,0,2.42-0.262,3.468-0.736l5.157,64.07
			c0.369,4.487,4.125,7.897,8.555,7.897c0.234,0,0.466-0.006,0.704-0.024c4.731-0.377,8.248-4.53,7.876-9.256l-5.693-70.89V84.569
			c0.709,0.204,1.37,0.398,1.981,0.578l5.219,46.975c0.408,3.666,3.501,6.388,7.106,6.388c0.262,0,0.535-0.018,0.804-0.055
			c3.927-0.438,6.759-3.971,6.326-7.904l-5.729-51.568C119.213,78.626,119.03,78.34,118.927,77.996z"/>
		<path d="M164.833,0h-49.236c-3.77,0-6.859,3.093-6.859,6.862V35.21c0,3.772,3.084,6.859,6.859,6.859h3.36l-9.548,14.471
			l27.177-14.471h28.247c3.775,0,6.862-3.087,6.862-6.859V6.856C171.689,3.087,168.608,0,164.833,0z M127.477,25.696
			c-2.149,0-3.897-1.748-3.897-3.897c0-2.152,1.748-3.896,3.897-3.896c2.155,0,3.896,1.744,3.896,3.896
			C131.373,23.948,129.632,25.696,127.477,25.696z M140.209,25.696c-2.149,0-3.897-1.748-3.897-3.897
			c0-2.152,1.748-3.896,3.897-3.896c2.155,0,3.896,1.744,3.896,3.896C144.105,23.948,142.364,25.696,140.209,25.696z
			 M152.941,25.696c-2.149,0-3.897-1.748-3.897-3.897c0-2.152,1.748-3.896,3.897-3.896c2.155,0,3.896,1.744,3.896,3.896
			C156.838,23.948,155.097,25.696,152.941,25.696z"/>
	</g>
</g>
<g>
</g>
<g>
</g>
<g>
</g>
<g>
</g>
<g>
</g>
<g>
</g>
<g>
</g>
<g>
</g>
<g>
</g>
<g>
</g>
<g>
</g>
<g>
</g>
<g>
</g>
<g>
</g>
<g>
</g>
</svg>
