<?xml version="1.0" encoding="iso-8859-1"?>
<!-- Generator: Adobe Illustrator 16.0.0, SVG Export Plug-In . SVG Version: 6.00 Build 0)  -->
<!DOCTYPE svg PUBLIC "-//W3C//DTD SVG 1.1//EN" "http://www.w3.org/Graphics/SVG/1.1/DTD/svg11.dtd">
<svg version="1.1" id="Capa_1" xmlns="http://www.w3.org/2000/svg" xmlns:xlink="http://www.w3.org/1999/xlink" x="0px" y="0px"
	 width="187.241px" height="187.241px" viewBox="0 0 187.241 187.241" style="enable-background:new 0 0 187.241 187.241;"
	 xml:space="preserve">
<g>
	<g>
		<path d="M128.629,38.176c0,6.186,5.02,11.206,11.206,11.206c5.482,0,10.02-3.928,10.995-9.122l-16.877,1.664l10.112-14.115
			c-1.303-0.536-2.731-0.84-4.235-0.84C133.648,26.969,128.629,31.984,128.629,38.176z"/>
		<path d="M164.634,34.074c-0.211-1.305-0.562-2.555-0.968-3.794l-3.002,1.436L164.634,34.074z"/>
		<path d="M152.269,16.373c-3.679-2.112-7.886-3.412-12.434-3.412c-13.898,0-25.214,11.313-25.214,25.215
			s11.315,25.215,25.214,25.215c13.671,0,24.767-10.944,25.144-24.52l-5.658,0.556c-0.659,10.219-9.097,18.361-19.49,18.361
			c-10.813,0-19.61-8.796-19.61-19.612c0-10.816,8.797-19.611,19.61-19.611c3.321,0,6.42,0.908,9.16,2.375L152.269,16.373z"/>
		<path d="M156.093,19.057l0.057,4.834l2.829-1.948C158.091,20.912,157.134,19.949,156.093,19.057z"/>
		<path d="M168.826,27.826c1.102,3.07,1.74,6.367,1.802,9.794l0.994,0.588l-0.975,0.102c-0.07,16.927-13.863,30.684-30.812,30.684
			c-11.407,0-21.362-6.25-26.692-15.488c1.292-1.519,1.992-3.513,1.643-5.637c-0.485-2.93-2.731-5.067-5.478-5.652
			c-0.171-1.329-0.294-2.673-0.294-4.046c0-16.996,13.82-30.824,30.816-30.824c5.762,0,11.141,1.619,15.759,4.38l0.405-0.577
			L156,11.979c2.922,1.806,5.526,4.068,7.689,6.714l4.613-3.171c-6.682-8.383-16.949-13.784-28.481-13.784
			c-20.083,0-36.424,16.339-36.424,36.427c0,1.507,0.12,2.974,0.295,4.438l-28.863,4.807c-4.305-1.427-15.544-4.791-26.023-5.299
			l-1.646,3.3h-0.044l4.718,36.742l-5.604,9.782l-5.603-9.782l4.718-36.742h-0.051l-1.663-3.34
			c-12.989,0.64-27.171,5.727-27.802,5.956c-0.254,0.096-0.427,0.287-0.663,0.399c-0.421,0.205-0.801,0.429-1.171,0.717
			c-0.364,0.279-0.678,0.578-0.969,0.919c-0.292,0.331-0.544,0.665-0.769,1.053c-0.241,0.413-0.42,0.834-0.577,1.294
			c-0.084,0.236-0.247,0.423-0.303,0.678l-11.208,50.43c-0.839,3.776,1.544,7.52,5.32,8.361c0.509,0.11,1.02,0.164,1.524,0.164
			c3.211,0,6.105-2.222,6.831-5.488l10.342-46.536c0.722-0.225,1.545-0.465,2.433-0.717v47.806l-5.577,69.318
			c-0.369,4.625,3.079,8.68,7.706,9.052c0.229,0.016,0.46,0.027,0.684,0.027c4.335,0,8.019-3.332,8.372-7.731l5.036-62.655
			c1.043,0.46,2.187,0.733,3.39,0.733c1.205,0,2.353-0.273,3.39-0.733l5.038,62.655c0.352,4.399,4.036,7.731,8.372,7.731
			c0.224,0,0.455-0.012,0.684-0.027c4.627-0.372,8.075-4.427,7.704-9.052l-5.575-69.318V59.301c3.556,1.006,5.96,1.866,6.023,1.887
			c0.7,0.258,1.423,0.348,2.135,0.37c0.084,0.005,0.149,0.047,0.234,0.047l0,0l0,0l0,0c0.38,0,0.761-0.037,1.155-0.096l32.742-5.459
			c6.267,11.039,18.106,18.521,31.683,18.521c20.084,0,36.422-16.339,36.422-36.423c0-4.5-0.859-8.788-2.354-12.766L168.826,27.826z
			"/>
		<polygon points="153.302,19.741 139.835,38.528 162.84,36.263 154.716,31.445 187.241,15.946 183.091,8.769 153.4,29.183 		"/>
		<path d="M46.24,40.581c9.773,0,17.708-11.344,17.708-21.127c0-9.781-7.935-17.711-17.708-17.711
			c-9.784,0-17.719,7.93-17.719,17.711C28.521,29.237,36.456,40.581,46.24,40.581z"/>
	</g>
</g>
<g>
</g>
<g>
</g>
<g>
</g>
<g>
</g>
<g>
</g>
<g>
</g>
<g>
</g>
<g>
</g>
<g>
</g>
<g>
</g>
<g>
</g>
<g>
</g>
<g>
</g>
<g>
</g>
<g>
</g>
</svg>
