<?xml version="1.0" encoding="iso-8859-1"?>
<!-- Generator: Adobe Illustrator 16.0.0, SVG Export Plug-In . SVG Version: 6.00 Build 0)  -->
<!DOCTYPE svg PUBLIC "-//W3C//DTD SVG 1.1//EN" "http://www.w3.org/Graphics/SVG/1.1/DTD/svg11.dtd">
<svg version="1.1" id="Capa_1" xmlns="http://www.w3.org/2000/svg" xmlns:xlink="http://www.w3.org/1999/xlink" x="0px" y="0px"
	 width="218.985px" height="218.984px" viewBox="0 0 218.985 218.984" style="enable-background:new 0 0 218.985 218.984;"
	 xml:space="preserve">
<g>
	<g>
		<g>
			<g>
				<path d="M63.964,35.286c0,9.782-7.934,21.133-17.722,21.133c-9.776,0-17.72-11.344-17.72-21.133
					c0-9.788,7.938-17.716,17.72-17.716C56.03,17.57,63.964,25.498,63.964,35.286z"/>
			</g>
			<path d="M110.129,75.03L76.496,63.817c-1.522-0.536-15.125-5.286-27.648-5.897l-1.678,3.337h-0.03l4.713,36.757l-5.605,9.782
				l-5.593-9.782l4.713-36.757h-0.042l-1.671-3.337c-12.995,0.643-27.179,5.724-27.815,5.961c-0.237,0.083-0.411,0.274-0.642,0.387
				c-0.436,0.213-0.834,0.441-1.209,0.743c-0.356,0.274-0.654,0.554-0.935,0.889c-0.308,0.338-0.569,0.683-0.801,1.093
				c-0.234,0.399-0.411,0.804-0.554,1.251c-0.094,0.25-0.25,0.438-0.311,0.7L0.168,119.393c-0.84,3.775,1.547,7.521,5.325,8.367
				c0.518,0.109,1.029,0.158,1.528,0.158c3.218,0,6.104-2.217,6.835-5.48l10.349-46.561c0.718-0.216,1.546-0.454,2.433-0.709v47.825
				l-5.581,69.343c-0.374,4.622,3.075,8.689,7.709,9.055c0.222,0.019,0.448,0.024,0.685,0.024c4.327,0,8.004-3.325,8.367-7.733
				l5.045-62.67c1.035,0.463,2.183,0.731,3.385,0.731c1.209,0,2.363-0.269,3.392-0.731l5.045,62.67
				c0.369,4.408,4.034,7.733,8.375,7.733c0.223,0,0.46-0.006,0.686-0.024c4.625-0.378,8.08-4.433,7.706-9.055l-5.581-69.343V75.167
				c3.55,1.011,5.961,1.87,6.031,1.894c0.024,0.006,0.061,0,0.097,0.012c0.034,0.006,0.04,0.027,0.07,0.046l33.627,11.204
				c0.74,0.256,1.482,0.368,2.22,0.368c2.929,0,5.666-1.857,6.646-4.789C115.78,80.218,113.79,76.245,110.129,75.03z"/>
		</g>
		<g>
			<path d="M212.013,68.832c-1.754-6.299-6.777-10.875-12.751-10.875c-0.066,0-0.128,0.028-0.194,0.028
				c-0.962-11.959-9.499-21.358-20.016-21.358c-5.912,0-11.186,3.023-14.882,7.739c-2.332-2.247-5.285-3.656-8.549-3.656
				c-7.313,0-13.244,6.816-13.433,15.284c-1.278-0.566-2.661-0.917-4.116-0.917c-6.442,0-11.661,6.099-11.661,13.606
				c-4.561,0-8.251,4.302-8.251,9.614c0,5.319,3.69,9.621,8.251,9.621c0.189,0,84.183,0,84.323,0c4.561,0,8.25-4.302,8.25-9.621
				C218.992,73.496,215.971,69.556,212.013,68.832z"/>
			<g>
				<polygon points="142.901,122.937 149.209,122.937 149.209,113.864 154.008,113.864 146.049,100.169 138.103,113.864 
					142.901,113.864 				"/>
				<polygon points="142.901,152.64 149.209,152.64 149.209,143.573 154.008,143.573 146.049,129.879 138.103,143.573 
					142.901,143.573 				"/>
				<polygon points="142.901,182.354 149.209,182.354 149.209,173.27 154.008,173.27 146.049,159.588 138.103,173.27 
					142.901,173.27 				"/>
				<polygon points="165.419,109.705 171.721,109.705 171.721,100.632 176.52,100.632 168.573,86.938 160.621,100.632 
					165.419,100.632 				"/>
				<polygon points="165.419,139.408 171.721,139.408 171.721,130.335 176.52,130.335 168.573,116.641 160.621,130.335 
					165.419,130.335 				"/>
				<polygon points="165.419,169.117 171.721,169.117 171.721,160.044 176.52,160.044 168.573,146.355 160.621,160.044 
					165.419,160.044 				"/>
				<polygon points="187.937,122.937 194.245,122.937 194.245,113.864 199.031,113.864 191.091,100.169 183.138,113.864 
					187.937,113.864 				"/>
				<polygon points="187.937,152.64 194.245,152.64 194.245,143.573 199.031,143.573 191.091,129.879 183.138,143.573 
					187.937,143.573 				"/>
				<polygon points="187.937,182.354 194.245,182.354 194.245,173.27 199.031,173.27 191.091,159.588 183.138,173.27 
					187.937,173.27 				"/>
			</g>
		</g>
	</g>
</g>
<g>
</g>
<g>
</g>
<g>
</g>
<g>
</g>
<g>
</g>
<g>
</g>
<g>
</g>
<g>
</g>
<g>
</g>
<g>
</g>
<g>
</g>
<g>
</g>
<g>
</g>
<g>
</g>
<g>
</g>
</svg>
