<?xml version="1.0" encoding="iso-8859-1"?>
<!-- Generator: Adobe Illustrator 16.0.0, SVG Export Plug-In . SVG Version: 6.00 Build 0)  -->
<!DOCTYPE svg PUBLIC "-//W3C//DTD SVG 1.1//EN" "http://www.w3.org/Graphics/SVG/1.1/DTD/svg11.dtd">
<svg version="1.1" id="Capa_1" xmlns="http://www.w3.org/2000/svg" xmlns:xlink="http://www.w3.org/1999/xlink" x="0px" y="0px"
	 width="204.51px" height="204.51px" viewBox="0 0 204.51 204.51" style="enable-background:new 0 0 204.51 204.51;"
	 xml:space="preserve">
<g>
	<g>
		<path d="M62.124,43.212c10.875,0,19.705-12.623,19.705-23.501C81.829,8.823,73,0,62.124,0C51.237,0,42.408,8.829,42.408,19.71
			C42.408,30.589,51.237,43.212,62.124,43.212z"/>
		<path d="M100.714,56.934c-0.143-0.566-0.268-1.136-0.536-1.653c-0.207-0.393-0.506-0.703-0.773-1.06
			c-0.344-0.454-0.655-0.91-1.096-1.285c-0.362-0.298-0.779-0.484-1.188-0.715c-0.393-0.231-0.715-0.548-1.163-0.713
			c-0.706-0.256-16.395-5.879-30.811-6.622l-1.982,3.968h-0.049l5.249,40.879l-6.235,10.894l-6.235-10.894l5.252-40.879h-0.064
			l-1.982-3.968c-14.416,0.743-30.099,6.366-30.802,6.622c-0.463,0.171-0.797,0.493-1.206,0.737
			c-0.387,0.225-0.786,0.398-1.121,0.679c-0.469,0.393-0.804,0.868-1.166,1.354c-0.25,0.329-0.523,0.625-0.718,0.99
			c-0.28,0.53-0.405,1.111-0.554,1.696c-0.094,0.35-0.286,0.648-0.332,1.017l-6.235,56.118c-0.472,4.274,2.609,8.135,6.884,8.604
			c0.295,0.03,0.582,0.056,0.874,0.056c3.916,0,7.289-2.954,7.733-6.942l5.678-51.112c0.664-0.201,1.392-0.411,2.165-0.63v53.204
			l-6.205,77.137c-0.411,5.146,3.425,9.658,8.574,10.065c0.256,0.019,0.505,0.03,0.761,0.03c4.819,0,8.917-3.708,9.31-8.604
			l5.605-69.715c1.16,0.512,2.433,0.804,3.772,0.804s2.618-0.292,3.772-0.804l5.605,69.715c0.393,4.896,4.491,8.604,9.31,8.604
			c0.256,0,0.505-0.006,0.761-0.03c5.148-0.407,8.984-4.926,8.574-10.065l-6.205-77.137V64.073c0.773,0.219,1.495,0.429,2.165,0.63
			l5.678,51.112c0.444,3.988,3.818,6.942,7.733,6.942c0.292,0,0.578-0.013,0.874-0.049c4.283-0.476,7.361-4.336,6.884-8.61
			l-6.235-56.118C101.007,57.594,100.809,57.29,100.714,56.934z"/>
		<polygon points="125.251,130.296 170.608,84.938 173.61,87.942 178.269,73.962 164.294,78.62 167.302,81.625 121.932,126.995 		
			"/>
		<rect x="114.29" y="152.91" width="18.304" height="51.594"/>
		<rect x="141.782" y="129.771" width="18.311" height="74.738"/>
		<rect x="169.281" y="101.305" width="18.31" height="103.199"/>
	</g>
</g>
<g>
</g>
<g>
</g>
<g>
</g>
<g>
</g>
<g>
</g>
<g>
</g>
<g>
</g>
<g>
</g>
<g>
</g>
<g>
</g>
<g>
</g>
<g>
</g>
<g>
</g>
<g>
</g>
<g>
</g>
</svg>
