<?xml version="1.0" encoding="iso-8859-1"?>
<!-- Generator: Adobe Illustrator 16.0.0, SVG Export Plug-In . SVG Version: 6.00 Build 0)  -->
<!DOCTYPE svg PUBLIC "-//W3C//DTD SVG 1.1//EN" "http://www.w3.org/Graphics/SVG/1.1/DTD/svg11.dtd">
<svg version="1.1" id="Capa_1" xmlns="http://www.w3.org/2000/svg" xmlns:xlink="http://www.w3.org/1999/xlink" x="0px" y="0px"
	 width="172.475px" height="172.476px" viewBox="0 0 172.475 172.476" style="enable-background:new 0 0 172.475 172.476;"
	 xml:space="preserve">
<g>
	<g>
		<path d="M57.662,59.941c7.59,0,13.749-8.811,13.749-16.398c0-7.596-6.159-13.749-13.749-13.749
			c-7.605,0-13.755,6.153-13.755,13.749C43.906,51.13,50.062,59.941,57.662,59.941z"/>
		<path d="M84.582,69.498c-0.094-0.387-0.177-0.773-0.362-1.132c-0.149-0.29-0.368-0.518-0.569-0.773
			c-0.229-0.307-0.441-0.612-0.728-0.862c-0.274-0.231-0.588-0.368-0.88-0.536c-0.274-0.143-0.475-0.369-0.773-0.469
			c-0.499-0.173-11.447-4.101-21.492-4.619l-1.397,2.762h-0.024l3.654,28.521l-4.348,7.599l-4.345-7.599l3.653-28.521h-0.036
			l-1.386-2.762c-10.05,0.518-21.001,4.445-21.485,4.619c-0.308,0.113-0.536,0.338-0.813,0.487c-0.28,0.168-0.579,0.299-0.834,0.5
			c-0.311,0.268-0.53,0.591-0.768,0.911c-0.173,0.243-0.393,0.453-0.536,0.736c-0.189,0.365-0.274,0.758-0.375,1.16
			c-0.067,0.25-0.213,0.454-0.231,0.722l-4.351,39.156c-0.332,2.983,1.821,5.663,4.801,6.004c0.204,0.024,0.411,0.037,0.609,0.037
			c2.74,0,5.084-2.07,5.401-4.848l3.958-35.661c0.463-0.137,0.968-0.286,1.51-0.441v37.126l-4.32,53.815
			c-0.286,3.593,2.387,6.741,5.974,7.027c0.18,0.019,0.362,0.019,0.542,0.019c3.355,0,6.217-2.588,6.491-5.992l3.916-48.646
			c0.797,0.359,1.69,0.561,2.63,0.561c0.944,0,1.833-0.201,2.634-0.561l3.915,48.646c0.274,3.404,3.13,5.992,6.491,5.992
			c0.18,0,0.362,0,0.542-0.019c3.586-0.286,6.26-3.435,5.974-7.027l-4.32-53.815V74.488c0.542,0.155,1.041,0.305,1.507,0.441
			l3.961,35.661c0.317,2.777,2.661,4.848,5.398,4.848c0.194,0,0.398-0.013,0.612-0.037c2.98-0.341,5.124-3.021,4.801-6.004
			l-4.354-39.156C84.798,69.973,84.649,69.754,84.582,69.498z"/>
		<path d="M139.485,0H90.248c-3.766,0-6.859,3.087-6.859,6.859v34.586c0,3.772,3.087,6.859,6.859,6.859h3.367l-13.262,11.28
			l30.89-11.292h28.242c3.775,0,6.868-3.081,6.868-6.859V6.853C146.353,3.087,143.266,0,139.485,0z M117.655,36.632v4.26h-4.086
			v-3.97c-2.795-0.119-5.517-0.874-7.094-1.784l1.248-4.89c1.748,0.953,4.214,1.845,6.93,1.845c2.375,0,4.001-0.923,4.001-2.601
			c0-1.577-1.328-2.584-4.421-3.62c-4.464-1.51-7.514-3.592-7.514-7.645c0-3.675,2.588-6.555,7.051-7.426V6.835h4.092v3.672
			c2.795,0.131,4.677,0.712,6.053,1.379l-1.206,4.725c-1.083-0.466-3.002-1.428-6.01-1.428c-2.722,0-3.586,1.178-3.586,2.35
			c0,1.367,1.455,2.253,5.005,3.581c4.969,1.75,6.972,4.046,6.972,7.806C125.089,32.625,122.459,35.798,117.655,36.632z"/>
	</g>
</g>
<g>
</g>
<g>
</g>
<g>
</g>
<g>
</g>
<g>
</g>
<g>
</g>
<g>
</g>
<g>
</g>
<g>
</g>
<g>
</g>
<g>
</g>
<g>
</g>
<g>
</g>
<g>
</g>
<g>
</g>
</svg>
