<?xml version="1.0" encoding="iso-8859-1"?>
<!-- Generator: Adobe Illustrator 16.0.0, SVG Export Plug-In . SVG Version: 6.00 Build 0)  -->
<!DOCTYPE svg PUBLIC "-//W3C//DTD SVG 1.1//EN" "http://www.w3.org/Graphics/SVG/1.1/DTD/svg11.dtd">
<svg version="1.1" id="Capa_1" xmlns="http://www.w3.org/2000/svg" xmlns:xlink="http://www.w3.org/1999/xlink" x="0px" y="0px"
	 width="204.509px" height="204.51px" viewBox="0 0 204.509 204.51" style="enable-background:new 0 0 204.509 204.51;"
	 xml:space="preserve">
<g>
	<g>
		<rect x="115.907" y="199.755" width="68.588" height="4.755"/>
		<path d="M65.238,43.212c10.875,0,19.705-12.623,19.705-23.501C84.943,8.823,76.114,0,65.238,0C54.351,0,45.522,8.829,45.522,19.71
			C45.522,30.589,54.351,43.212,65.238,43.212z"/>
		<path d="M109.671,18.575v33.676l6.235,6.235V27.578h25.136v3.754h18.322v-3.754h25.13v36.021h-63.474l6.004,6.007h14.012v3.754
			h18.315v-3.754h25.137v36.021H115.9v-7.471l-6.235-6.235v106.794h81.06V18.575H109.671z M184.495,189.701h-68.588v-36.023h25.136
			v3.739h18.322v-3.739h25.13V189.701z M184.495,147.674h-68.588v-36.035h25.136v3.751h18.322v-3.751h25.13V147.674z"/>
		<path d="M87.062,64.067c2.168,0.618,3.946,1.172,5.127,1.559l29.892,29.892c1.522,1.522,3.52,2.283,5.511,2.283
			c1.997,0,3.994-0.761,5.511-2.283c3.045-3.042,3.045-7.974,0-11.024l-31.177-31.177c-0.03-0.03-0.079-0.042-0.115-0.073
			c-0.378-0.368-0.871-0.594-1.321-0.88c-0.433-0.268-0.828-0.611-1.297-0.785c-0.042-0.019-0.073-0.055-0.127-0.076
			c-0.701-0.256-16.483-5.916-30.939-6.628l-1.857,3.717h-0.049l5.249,40.879l-6.235,10.894l-6.235-10.894l5.249-40.879h-0.055
			l-1.851-3.717c-14.456,0.712-30.232,6.372-30.939,6.628c-0.256,0.095-0.426,0.289-0.664,0.399
			c-0.512,0.25-0.974,0.518-1.419,0.868c-0.377,0.298-0.706,0.618-1.023,0.974c-0.335,0.38-0.621,0.764-0.877,1.208
			c-0.268,0.46-0.469,0.929-0.639,1.435c-0.085,0.268-0.268,0.475-0.335,0.761l-12.471,56.117c-0.938,4.202,1.717,8.361,5.919,9.299
			c0.566,0.128,1.132,0.183,1.693,0.183c3.574,0,6.795-2.472,7.599-6.102l11.508-51.779c0.804-0.249,1.717-0.518,2.71-0.797v53.198
			l-6.205,77.138c-0.408,5.151,3.422,9.657,8.574,10.071c0.255,0.019,0.511,0.03,0.761,0.03c4.829,0,8.927-3.708,9.316-8.604
			l5.608-69.721c1.157,0.512,2.43,0.804,3.769,0.804c1.34,0,2.619-0.292,3.775-0.804l5.602,69.721
			c0.396,4.896,4.494,8.604,9.316,8.604c0.25,0,0.505-0.006,0.761-0.03c5.151-0.414,8.987-4.926,8.573-10.071l-6.205-77.138V64.067
			H87.062z"/>
	</g>
</g>
<g>
</g>
<g>
</g>
<g>
</g>
<g>
</g>
<g>
</g>
<g>
</g>
<g>
</g>
<g>
</g>
<g>
</g>
<g>
</g>
<g>
</g>
<g>
</g>
<g>
</g>
<g>
</g>
<g>
</g>
</svg>
