<?xml version="1.0" encoding="iso-8859-1"?>
<!-- Generator: Adobe Illustrator 16.0.0, SVG Export Plug-In . SVG Version: 6.00 Build 0)  -->
<!DOCTYPE svg PUBLIC "-//W3C//DTD SVG 1.1//EN" "http://www.w3.org/Graphics/SVG/1.1/DTD/svg11.dtd">
<svg version="1.1" id="Capa_1" xmlns="http://www.w3.org/2000/svg" xmlns:xlink="http://www.w3.org/1999/xlink" x="0px" y="0px"
	 width="213.157px" height="213.157px" viewBox="0 0 213.157 213.157" style="enable-background:new 0 0 213.157 213.157;"
	 xml:space="preserve">
<g>
	<g>
		<path d="M79.394,82.587c0-7.569-8.717-17.784-20.484-20.771c4.914-3.31,8.306-9.831,8.306-15.713
			c0-8.3-6.716-15.019-15.016-15.019c-8.291,0-15.013,6.719-15.013,15.019c0,5.876,3.386,12.397,8.306,15.713
			c-11.761,2.987-20.478,13.195-20.478,20.771C25.008,91.529,79.394,91.529,79.394,82.587z M50.991,66.177h-0.067l-2.484-2.856
			c1.206,0.436,2.457,0.691,3.76,0.691s2.558-0.256,3.766-0.685l-2.493,2.856h-0.061l6.415,15.5l-7.627,7.614l-7.618-7.614
			L50.991,66.177z"/>
		<path d="M133.767,82.587c0-7.569-8.72-17.784-20.479-20.771c4.914-3.31,8.306-9.831,8.306-15.713
			c0-8.3-6.723-15.019-15.016-15.019c-8.293,0-15.016,6.719-15.016,15.019c0,5.876,3.386,12.397,8.306,15.713
			C88.11,64.804,79.394,75.012,79.394,82.587C79.394,91.529,133.767,91.529,133.767,82.587z M105.376,66.177h-0.07l-2.488-2.856
			c1.203,0.436,2.457,0.691,3.76,0.691c1.303,0,2.558-0.256,3.76-0.685l-2.493,2.856h-0.064l6.415,15.5l-7.617,7.608l-7.627-7.615
			L105.376,66.177z"/>
		<path d="M188.149,82.587c0-7.569-8.714-17.784-20.478-20.771c4.914-3.31,8.306-9.831,8.306-15.713
			c0-8.3-6.723-15.019-15.017-15.019c-8.293,0-15.016,6.719-15.016,15.019c0,5.876,3.386,12.397,8.306,15.713
			c-11.758,2.987-20.483,13.195-20.483,20.771C133.767,91.529,188.149,91.529,188.149,82.587z M159.755,66.177h-0.073l-2.479-2.856
			c1.212,0.436,2.454,0.691,3.77,0.691c1.291,0,2.545-0.256,3.757-0.685l-2.49,2.856h-0.062l6.406,15.5l-7.611,7.614l-7.63-7.614
			L159.755,66.177z"/>
		<polygon points="213.157,111.924 213.157,102.112 193.349,89.292 207.33,102.112 5.828,102.112 19.808,89.292 0,102.112 
			0,111.924 19.808,111.924 19.808,171.063 14.894,171.063 14.894,176.616 7.563,176.616 7.563,182.072 205.594,182.072 
			205.594,176.616 198.263,176.616 198.263,171.063 193.349,171.063 193.349,111.924 		"/>
	</g>
</g>
<g>
</g>
<g>
</g>
<g>
</g>
<g>
</g>
<g>
</g>
<g>
</g>
<g>
</g>
<g>
</g>
<g>
</g>
<g>
</g>
<g>
</g>
<g>
</g>
<g>
</g>
<g>
</g>
<g>
</g>
</svg>
