<?xml version="1.0" encoding="iso-8859-1"?>
<!-- Generator: Adobe Illustrator 16.0.0, SVG Export Plug-In . SVG Version: 6.00 Build 0)  -->
<!DOCTYPE svg PUBLIC "-//W3C//DTD SVG 1.1//EN" "http://www.w3.org/Graphics/SVG/1.1/DTD/svg11.dtd">
<svg version="1.1" id="Capa_1" xmlns="http://www.w3.org/2000/svg" xmlns:xlink="http://www.w3.org/1999/xlink" x="0px" y="0px"
	 width="207.348px" height="207.347px" viewBox="0 0 207.348 207.347" style="enable-background:new 0 0 207.348 207.347;"
	 xml:space="preserve">
<g>
	<g>
		<path d="M35.974,56.681c8.659,0,15.683-10.044,15.683-18.706c0-8.665-7.024-15.686-15.683-15.686
			c-8.668,0-15.695,7.021-15.695,15.686C20.279,46.637,27.306,56.681,35.974,56.681z"/>
		<path d="M66.682,67.574c-0.119-0.429-0.204-0.874-0.411-1.272c-0.186-0.359-0.448-0.649-0.691-0.953s-0.462-0.636-0.761-0.898
			c-0.356-0.305-0.761-0.5-1.172-0.719c-0.262-0.128-0.457-0.341-0.743-0.441c-0.56-0.204-13.049-4.683-24.524-5.267l-1.577,3.148
			h-0.037l4.171,32.534l-4.963,8.681l-4.957-8.681l4.171-32.534h-0.045L33.59,58.06c-10.461,0.53-21.735,4.253-24.085,5.063
			c-0.107,0.037-0.198,0.073-0.299,0.107c-0.058,0.024-0.137,0.048-0.155,0.061c-0.125,0.046-0.207,0.143-0.326,0.195
			c-0.6,0.262-1.166,0.566-1.647,0.996c-0.222,0.207-0.372,0.451-0.566,0.682c-0.304,0.372-0.624,0.715-0.84,1.151
			c-0.195,0.387-0.277,0.807-0.386,1.23c-0.088,0.298-0.25,0.56-0.283,0.892l-4.963,44.667c-0.38,3.397,2.076,6.461,5.474,6.844
			c0.238,0.037,0.469,0.043,0.694,0.043c3.118,0,5.803-2.344,6.159-5.523l4.521-40.675c0.53-0.155,1.108-0.338,1.72-0.506v42.345
			l-4.938,61.396c-0.329,4.092,2.725,7.685,6.823,8.008c0.198,0.018,0.405,0.023,0.603,0.023c3.842,0,7.097-2.947,7.408-6.844
			l4.466-55.49c0.917,0.414,1.933,0.651,2.999,0.651c1.072,0,2.083-0.237,3.005-0.651l4.463,55.49
			c0.313,3.896,3.574,6.844,7.407,6.844c0.201,0,0.405-0.006,0.606-0.023c4.104-0.323,7.152-3.916,6.82-8.008l-4.938-61.396V73.286
			c0.618,0.168,1.199,0.351,1.729,0.506l4.521,40.675c0.347,3.18,3.035,5.523,6.159,5.523c0.225,0,0.454-0.019,0.691-0.043
			c3.407-0.383,5.855-3.446,5.474-6.844l-4.962-44.667C66.919,68.123,66.758,67.867,66.682,67.574z"/>
		<path d="M161.332,82.59H87.385c-2.944,0-5.307,2.375-5.307,5.318c0,2.936,2.363,5.301,5.307,5.301h73.947
			c2.947,0,5.31-2.365,5.31-5.301C166.636,84.965,164.267,82.59,161.332,82.59z"/>
		<path d="M161.332,106.076H87.385c-2.944,0-5.307,2.372-5.307,5.311c0,2.947,2.363,5.297,5.307,5.297h73.947
			c2.947,0,5.31-2.35,5.31-5.297C166.642,108.448,164.267,106.076,161.332,106.076z"/>
		<path d="M161.332,129.543H87.385c-2.944,0-5.307,2.388-5.307,5.315c0,2.941,2.363,5.305,5.307,5.305h73.947
			c2.947,0,5.31-2.363,5.31-5.305C166.636,131.931,164.267,129.543,161.332,129.543z"/>
		<polygon points="207.348,69.158 202.153,65.699 188.653,85.994 178.26,78.182 174.521,83.163 190.188,94.948 		"/>
		<path d="M189.427,104.593c3.751,0,6.783,3.039,6.783,6.78c0,3.751-3.032,6.79-6.783,6.79c-3.744,0-6.783-3.039-6.783-6.79
			C182.644,107.632,185.683,104.593,189.427,104.593z"/>
		<path d="M189.427,128.064c3.751,0,6.783,3.039,6.783,6.783c0,3.745-3.032,6.783-6.783,6.783c-3.744,0-6.783-3.038-6.783-6.783
			C182.644,131.103,185.683,128.064,189.427,128.064z"/>
	</g>
</g>
<g>
</g>
<g>
</g>
<g>
</g>
<g>
</g>
<g>
</g>
<g>
</g>
<g>
</g>
<g>
</g>
<g>
</g>
<g>
</g>
<g>
</g>
<g>
</g>
<g>
</g>
<g>
</g>
<g>
</g>
</svg>
