<?xml version="1.0" encoding="iso-8859-1"?>
<!-- Generator: Adobe Illustrator 16.0.0, SVG Export Plug-In . SVG Version: 6.00 Build 0)  -->
<!DOCTYPE svg PUBLIC "-//W3C//DTD SVG 1.1//EN" "http://www.w3.org/Graphics/SVG/1.1/DTD/svg11.dtd">
<svg version="1.1" id="Capa_1" xmlns="http://www.w3.org/2000/svg" xmlns:xlink="http://www.w3.org/1999/xlink" x="0px" y="0px"
	 width="186.778px" height="186.778px" viewBox="0 0 186.778 186.778" style="enable-background:new 0 0 186.778 186.778;"
	 xml:space="preserve">
<g>
	<g>
		<path d="M132.996,101.312V62.478h-11.703v-2.923h-10.522V44.712H89.727v14.842H79.201v2.923H67.51v114.802h-5.1V40.124H50.25
			V25.303H38.228V0h-3.005v25.303H23.196v14.821H11.042v143.159h51.368h5.1h48.594c5.188,2.235,10.899,3.495,16.892,3.495
			c23.564,0,42.739-19.175,42.739-42.733C175.735,120.479,156.561,101.312,132.996,101.312z M26.201,28.308h21.044v11.816H26.201
			V28.308z M28.159,154.92H17.046v-19.352h11.113V154.92z M28.159,132.561H17.046v-19.363h11.113V132.561z M28.159,110.201H17.046
			V90.85h11.113V110.201z M28.159,65.482H17.046V46.128h6.144h4.969V65.482z M42.277,177.279H31.164v-19.352h11.113V177.279z
			 M42.277,154.92H31.164v-19.352h11.113V154.92z M42.277,87.842H31.164V68.494h11.113V87.842z M42.277,65.482H31.164V46.128h11.113
			V65.482z M56.392,154.92h-11.11v-19.352h11.11V154.92z M56.392,132.561h-11.11v-19.363h11.11V132.561z M56.392,110.201h-11.11
			V90.85h11.11V110.201z M56.392,87.842h-11.11V68.494h11.11V87.842z M115.861,68.494h11.118v19.348h-11.118V68.494z M126.992,90.85
			v10.937c-3.909,0.548-7.636,1.602-11.119,3.136V90.85H126.992z M112.859,90.85v15.527c-2.07,1.097-4.013,2.399-5.852,3.824h-5.255
			V90.85H112.859z M103.488,113.209c-0.606,0.573-1.173,1.169-1.735,1.778v-1.778H103.488z M92.731,47.717h15.031v10.339H92.731
			V47.717z M87.632,68.494h11.116v19.348H87.632V68.494z M87.632,113.209h11.116v5.383c-3.099,4.153-5.444,8.854-6.884,13.969
			h-4.238v-19.352H87.632z M84.627,154.92H73.52v-19.352h11.107V154.92z M84.627,110.201H73.52V90.85h11.107V110.201z
			 M87.632,177.279v-19.352h4.981c1.446,4.189,3.529,8.081,6.135,11.569v7.782H87.632z M101.753,177.279v-4.165
			c1.385,1.486,2.85,2.887,4.427,4.165H101.753z M132.996,179.788c-19.705,0-35.737-16.039-35.737-35.743
			s16.032-35.737,35.737-35.737c19.704,0,35.743,16.033,35.743,35.737S152.7,179.788,132.996,179.788z"/>
		<path d="M134.348,126.447c1.127,0,2.138-0.512,3.032-1.534c0.901-1.029,1.353-2.144,1.353-3.361c0-1.219-0.348-2.217-1.023-2.996
			c-0.676-0.792-1.571-1.193-2.667-1.193c-1.09,0-2.095,0.561-2.996,1.662c-0.913,1.102-1.364,2.247-1.364,3.428
			c0,1.176,0.329,2.144,0.987,2.887C132.332,126.082,133.228,126.447,134.348,126.447z"/>
		<path d="M139.608,163.518c-1.272,0.913-2.362,1.364-3.275,1.364s-1.364-0.779-1.364-2.338c0-0.779,0.061-1.748,0.188-2.911
			l1.108-12.665c0.481-4.957,0.719-7.588,0.719-7.916c0-3.721-1.236-5.578-3.708-5.578c-2.187,0-4.396,1.072-6.632,3.228
			c-2.234,2.155-3.945,4.762-5.108,7.807l1.876,1.303c2.801-4.153,4.664-6.235,5.602-6.235c0.943,0,1.413,1.047,1.413,3.117
			c0,0.78-0.049,1.645-0.128,2.595l-1.432,12.659c-0.341,3.525-0.511,6.034-0.511,7.526c0,1.491,0.335,2.746,1.011,3.757
			c0.682,1.011,1.863,1.504,3.525,1.504c5.304,0,9.152-3.203,11.551-9.603l-1.687-1.169
			C141.935,161.423,140.882,162.61,139.608,163.518z"/>
	</g>
</g>
<g>
</g>
<g>
</g>
<g>
</g>
<g>
</g>
<g>
</g>
<g>
</g>
<g>
</g>
<g>
</g>
<g>
</g>
<g>
</g>
<g>
</g>
<g>
</g>
<g>
</g>
<g>
</g>
<g>
</g>
</svg>
