<?xml version="1.0" encoding="iso-8859-1"?>
<!-- Generator: Adobe Illustrator 16.0.0, SVG Export Plug-In . SVG Version: 6.00 Build 0)  -->
<!DOCTYPE svg PUBLIC "-//W3C//DTD SVG 1.1//EN" "http://www.w3.org/Graphics/SVG/1.1/DTD/svg11.dtd">
<svg version="1.1" id="Capa_1" xmlns="http://www.w3.org/2000/svg" xmlns:xlink="http://www.w3.org/1999/xlink" x="0px" y="0px"
	 width="197.076px" height="197.075px" viewBox="0 0 197.076 197.075" style="enable-background:new 0 0 197.076 197.075;"
	 xml:space="preserve">
<g>
	<g>
		<path d="M186.657,100.124c0.231-5.864-0.749-11.825-2.935-17.491l9.085-5.651l-8.908-14.267l-9.079,5.688
			c-4.146-4.457-9.049-7.925-14.395-10.318l2.387-10.415l-16.374-3.757l-2.381,10.418c-1.961-0.082-3.934,0.03-5.888,0.223V32.744
			c0-9.066-7.374-16.443-16.459-16.443H16.456C7.377,16.301,0,23.678,0,32.744v131.584c0,9.072,7.377,16.446,16.456,16.446H121.71
			c9.085,0,16.459-7.374,16.459-16.446V153.1l0.298,0.061l2.399-10.412c5.852,0.231,11.801-0.73,17.476-2.947l5.675,9.085
			l14.236-8.902l-5.662-9.079c4.457-4.122,7.934-9.066,10.297-14.413l10.418,2.405l3.77-16.373L186.657,100.124z M131.586,164.328
			c0,5.443-4.433,9.864-9.876,9.864H16.456c-5.444,0-9.877-4.421-9.877-9.864V32.744c0-5.438,4.433-9.864,9.877-9.864H121.71
			c5.443,0,9.876,4.427,9.876,9.864V164.328z M158.421,124.121c-6.29,3.934-13.451,5.121-20.259,4.141V68.719
			c11.454-1.632,23.34,3.395,29.867,13.844C176.86,96.674,172.542,115.304,158.421,124.121z"/>
		<path d="M108.85,44.733H29.313c-1.677,0-3.017,1.352-3.017,3.023c0,1.672,1.346,3.018,3.017,3.018h79.537
			c1.681,0,3.02-1.346,3.02-3.018C111.87,46.085,110.531,44.733,108.85,44.733z"/>
		<path d="M108.85,61.662H29.313c-1.677,0-3.017,1.352-3.017,3.023c0,1.672,1.346,3.015,3.017,3.015h79.537
			c1.681,0,3.02-1.343,3.02-3.015C111.87,63.014,110.531,61.662,108.85,61.662z"/>
		<path d="M108.85,78.583H29.313c-1.677,0-3.017,1.361-3.017,3.026c0,1.678,1.346,3.018,3.017,3.018h79.537
			c1.681,0,3.02-1.349,3.02-3.018C111.876,79.944,110.531,78.583,108.85,78.583z"/>
		<path d="M108.85,95.514H29.313c-1.677,0-3.017,1.352-3.017,3.027c0,1.668,1.346,3.014,3.017,3.014h79.537
			c1.681,0,3.02-1.352,3.02-3.014C111.876,96.86,110.531,95.514,108.85,95.514z"/>
		<path d="M108.85,112.436H29.313c-1.677,0-3.017,1.353-3.017,3.021c0,1.669,1.346,3.021,3.017,3.021h79.537
			c1.681,0,3.02-1.357,3.02-3.021C111.876,113.788,110.531,112.436,108.85,112.436z"/>
		<path d="M108.85,129.357H29.313c-1.677,0-3.017,1.358-3.017,3.026c0,1.669,1.346,3.021,3.017,3.021h79.537
			c1.681,0,3.02-1.357,3.02-3.021C111.876,130.716,110.531,129.357,108.85,129.357z"/>
		<path d="M68.165,146.292H29.319c-1.678,0-3.017,1.352-3.017,3.021c0,1.668,1.346,3.02,3.017,3.02h38.846
			c1.666,0,3.005-1.363,3.005-3.02C71.17,147.644,69.831,146.292,68.165,146.292z"/>
	</g>
</g>
<g>
</g>
<g>
</g>
<g>
</g>
<g>
</g>
<g>
</g>
<g>
</g>
<g>
</g>
<g>
</g>
<g>
</g>
<g>
</g>
<g>
</g>
<g>
</g>
<g>
</g>
<g>
</g>
<g>
</g>
</svg>
