<?xml version="1.0" encoding="iso-8859-1"?>
<!-- Generator: Adobe Illustrator 16.0.0, SVG Export Plug-In . SVG Version: 6.00 Build 0)  -->
<!DOCTYPE svg PUBLIC "-//W3C//DTD SVG 1.1//EN" "http://www.w3.org/Graphics/SVG/1.1/DTD/svg11.dtd">
<svg version="1.1" id="Capa_1" xmlns="http://www.w3.org/2000/svg" xmlns:xlink="http://www.w3.org/1999/xlink" x="0px" y="0px"
	 width="223.101px" height="223.101px" viewBox="0 0 223.101 223.101" style="enable-background:new 0 0 223.101 223.101;"
	 xml:space="preserve">
<g>
	<path d="M223.101,130.923l-55.838-32.428v19.58h-15.996c-4.116-9.73-13.214-16.742-28.583-22.159
		c-3.982-1.51-7.985-3.118-11.14-4.734v-9.557c1.303-0.188,2.612-0.262,3.711-0.262c10.011,0,16.654,2.88,21.051,4.792l6.484,2.746
		l7.259-28.308l-3.544-1.729c-6.278-3.048-13.421-4.933-21.702-5.718V38.002H98.617v16.995c-14.042,3.83-23.65,12.69-27.03,24.351
		h-15.75v-19.58L0,92.193l55.837,32.421v-19.534h18.962c6.305,10.047,18.127,15.491,28.969,19.132
		c3.273,1.103,5.8,2.125,7.782,3.081v12.19c-1.982,0.359-3.821,0.401-4.552,0.401c-11.454,0-20.962-4.274-25.614-6.807l-5.468-2.984
		l-7.508,29.265l3.167,1.845c6.503,3.77,16.237,6.54,26.202,7.551v16.344h26.198v-18.104c13.822-3.482,23.814-11.959,27.919-23.206
		h15.381v19.54L223.101,130.923z M119.128,163.099v17.171h-16.514v-15.99c-11.274-0.512-22.235-3.544-28.631-7.252l5.069-19.692
		c7.057,3.866,17.016,7.41,27.934,7.41c9.603,0,16.16-3.702,16.16-10.437c0-6.405-5.367-10.449-17.832-14.663
		c-18.033-6.059-30.303-14.477-30.303-30.82c0-14.815,10.413-26.439,28.439-29.98V42.853h16.505v14.815
		c11.277,0.511,18.876,2.862,24.424,5.562l-4.89,19.029c-4.385-1.852-12.13-5.73-24.241-5.73c-10.976,0-14.486,4.723-14.486,9.447
		c0,5.557,5.886,9.091,20.223,14.471c20.033,7.082,28.119,16.343,28.119,31.511C149.105,146.932,138.486,159.725,119.128,163.099z"
		/>
</g>
<g>
</g>
<g>
</g>
<g>
</g>
<g>
</g>
<g>
</g>
<g>
</g>
<g>
</g>
<g>
</g>
<g>
</g>
<g>
</g>
<g>
</g>
<g>
</g>
<g>
</g>
<g>
</g>
<g>
</g>
</svg>
