<?xml version="1.0" encoding="iso-8859-1"?>
<!-- Generator: Adobe Illustrator 16.0.0, SVG Export Plug-In . SVG Version: 6.00 Build 0)  -->
<!DOCTYPE svg PUBLIC "-//W3C//DTD SVG 1.1//EN" "http://www.w3.org/Graphics/SVG/1.1/DTD/svg11.dtd">
<svg version="1.1" id="Capa_1" xmlns="http://www.w3.org/2000/svg" xmlns:xlink="http://www.w3.org/1999/xlink" x="0px" y="0px"
	 width="191.869px" height="191.869px" viewBox="0 0 191.869 191.869" style="enable-background:new 0 0 191.869 191.869;"
	 xml:space="preserve">
<g>
	<path d="M95.935,0c-36.94,0-66.992,30.053-66.992,66.988c0,29.812,10.842,50.715,31.379,60.531
		c1.272,2.041,2.578,4.258,3.203,6.317c0.719,2.34,1.284,4.638,1.816,6.84c2.018,8.266,4.001,16.206,12.556,20.54
		c-2.106,0.531-3.701,2.353-3.701,4.607v7.37c0,2.654,1.781,6.074,3.962,7.59l14.324,9.97c2.183,1.521,5.725,1.479,7.863-0.088
		l13.423-9.8c2.145-1.565,3.903-5.022,3.903-7.677v-7.377c0-2.252-1.592-4.068-3.695-4.596c8.548-4.334,10.518-12.263,12.536-20.521
		c0.542-2.21,1.101-4.51,1.828-6.883c0.618-2.036,1.888-4.192,3.2-6.31c20.543-9.812,31.385-30.715,31.385-60.526
		C162.931,30.053,132.877,0,95.935,0z M127.558,121.385l-1.004,0.46l-0.583,0.925c-1.672,2.681-3.578,5.712-4.562,8.946
		c-0.761,2.501-1.357,4.931-1.927,7.274c-1.593,6.499-2.808,11.385-6.707,14.488h-11.612v-35.974
		c13.373-2.317,20.694-11.151,20.694-21.493c0-10.471-5.58-16.871-19.409-21.751c-9.891-3.721-13.954-6.162-13.954-9.995
		c0-3.261,2.432-6.518,9.998-6.518c8.368,0,13.701,2.679,16.735,3.957l3.374-13.136c-3.823-1.86-9.07-3.486-16.854-3.838V34.507
		H90.349v11.037c-12.438,2.449-19.633,10.468-19.633,20.695c0,11.278,8.484,17.094,20.921,21.27
		c8.605,2.908,12.314,5.699,12.314,10.118c0,4.646-4.53,7.206-11.157,7.206c-7.551,0-14.417-2.451-19.288-5.117l-3.491,13.6
		c4.406,2.56,11.977,4.65,19.757,5.001v35.153H79.099c-3.908-3.109-5.127-8.007-6.714-14.52c-0.577-2.313-1.165-4.744-1.926-7.238
		c-1.021-3.283-2.904-6.299-4.573-8.946l-0.582-0.92l-0.993-0.454c-23.242-10.55-28.129-35.407-28.129-54.403
		c0-32.941,26.806-59.738,59.748-59.738c32.943,0,59.749,26.796,59.749,59.738C155.685,85.984,150.805,110.841,127.558,121.385z"/>
</g>
<g>
</g>
<g>
</g>
<g>
</g>
<g>
</g>
<g>
</g>
<g>
</g>
<g>
</g>
<g>
</g>
<g>
</g>
<g>
</g>
<g>
</g>
<g>
</g>
<g>
</g>
<g>
</g>
<g>
</g>
</svg>
