<?xml version="1.0" encoding="iso-8859-1"?>
<!-- Generator: Adobe Illustrator 16.0.0, SVG Export Plug-In . SVG Version: 6.00 Build 0)  -->
<!DOCTYPE svg PUBLIC "-//W3C//DTD SVG 1.1//EN" "http://www.w3.org/Graphics/SVG/1.1/DTD/svg11.dtd">
<svg version="1.1" id="Capa_1" xmlns="http://www.w3.org/2000/svg" xmlns:xlink="http://www.w3.org/1999/xlink" x="0px" y="0px"
	 width="182.23px" height="182.229px" viewBox="0 0 182.23 182.229" style="enable-background:new 0 0 182.23 182.229;"
	 xml:space="preserve">
<g>
	<g>
		<path d="M91.109,0.009C40.846,0.009,0,40.873,0,91.103c0,50.253,40.852,91.118,91.109,91.118
			c50.227,0,91.121-40.865,91.121-91.118C182.23,40.873,141.335,0.009,91.109,0.009z M156.54,126.56l-6.076-3.526l-1.998,3.538
			l6.139,3.575c-6.139,9.974-14.505,18.315-24.491,24.472l-3.544-6.168l-3.52,2.027l3.502,6.095
			c-10.018,5.457-21.288,8.793-33.378,9.135v-7.223h-4.099v7.223c-12.102-0.342-23.394-3.678-33.396-9.135l3.535-6.095l-3.553-2.027
			l-3.541,6.181c-10.001-6.145-18.371-14.511-24.518-24.484l6.187-3.575l-2.04-3.513l-6.104,3.507
			c-5.444-10.022-8.799-21.288-9.146-33.381h7.255v-4.092h-7.255c0.347-12.105,3.702-23.392,9.146-33.405l6.104,3.522l2.04-3.541
			l-6.187-3.571c6.141-9.977,14.458-18.313,24.442-24.475l3.599,6.18l3.522-2.04l-3.504-6.086c10.02-5.456,21.312-8.805,33.396-9.14
			v7.222h4.064l0.027-7.222c12.09,0.334,23.373,3.684,33.396,9.14l-3.531,6.086l3.556,2.04l3.544-6.187
			c9.986,6.141,18.347,14.492,24.491,24.475l-6.188,3.578l2.047,3.517l6.076-3.517c5.469,10.032,8.799,21.3,9.171,33.387h-7.229
			v4.104h7.229C165.338,105.254,162.008,116.53,156.54,126.56z"/>
		<path d="M98.084,82.906c-10.599-3.985-14.943-6.61-14.943-10.708c0-3.489,2.618-6.981,10.717-6.981
			c8.939,0,14.675,2.868,17.908,4.244l3.599-14.066c-4.079-1.982-9.706-3.729-18.048-4.116V40.331H85.129v11.822
			c-13.326,2.612-21.038,11.21-21.038,22.155c0,12.071,9.085,18.291,22.408,22.773c9.222,3.117,13.18,6.102,13.18,10.832
			c0,4.975-4.828,7.715-11.932,7.715c-8.086,0-15.433-2.611-20.651-5.479l-3.742,14.565c4.722,2.74,12.809,4.975,21.151,5.346
			v11.825h12.202v-12.696c14.31-2.49,22.152-11.953,22.152-23.022C118.86,94.975,112.88,88.125,98.084,82.906z"/>
	</g>
</g>
<g>
</g>
<g>
</g>
<g>
</g>
<g>
</g>
<g>
</g>
<g>
</g>
<g>
</g>
<g>
</g>
<g>
</g>
<g>
</g>
<g>
</g>
<g>
</g>
<g>
</g>
<g>
</g>
<g>
</g>
</svg>
