<?xml version="1.0" encoding="iso-8859-1"?>
<!-- Generator: Adobe Illustrator 16.0.0, SVG Export Plug-In . SVG Version: 6.00 Build 0)  -->
<!DOCTYPE svg PUBLIC "-//W3C//DTD SVG 1.1//EN" "http://www.w3.org/Graphics/SVG/1.1/DTD/svg11.dtd">
<svg version="1.1" id="Capa_1" xmlns="http://www.w3.org/2000/svg" xmlns:xlink="http://www.w3.org/1999/xlink" x="0px" y="0px"
	 width="191.382px" height="191.382px" viewBox="0 0 191.382 191.382" style="enable-background:new 0 0 191.382 191.382;"
	 xml:space="preserve">
<g>
	<g>
		<path d="M95.69,49.876c3.1,0,6.175-0.234,9.231-0.578c0.7,6.808,1.205,14.51,1.467,22.94l28.613,18.173h2.594
			c-0.024,0.533-0.104,1.035-0.134,1.559l8.872,5.638c0.237-2.384,0.499-4.747,0.615-7.197h20.131
			c-0.536,6.223-1.912,12.203-3.946,17.872l10.766,6.838c3.812-9.597,5.968-20.012,5.968-30.945C179.867,37.762,142.102,0,95.69,0
			C49.276,0,11.514,37.762,11.514,84.176c0,45.51,36.328,82.612,81.5,84.042l-0.779-18.304c-1.632-4.963-3.291-12.19-4.625-21.586
			c1.221-0.141,2.469-0.141,3.702-0.226l-0.399-9.456c-1.489,0.104-2.975,0.237-4.451,0.407c-0.862-8.329-1.446-17.927-1.623-28.643
			h4.871l-0.53-12.471H84.84c0.17-10.717,0.761-20.313,1.623-28.637C89.516,49.642,92.591,49.876,95.69,49.876z M115.882,77.935
			c-0.134-6.993-0.548-18.368-1.747-30.248c5.517-1.27,10.881-3.078,16.008-5.456c4.153,10.29,6.808,22.493,7.453,35.697h-21.714
			V77.935z M145.683,32.866c11.971,11.673,19.875,27.462,21.403,45.068h-20.137c-0.67-14.882-3.642-28.576-8.434-40.118
			C140.994,36.315,143.368,34.638,145.683,32.866z M138.352,26.677c-1.291,0.928-2.595,1.839-3.94,2.685
			c-1.687-3.096-3.501-6.016-5.474-8.659C132.237,22.436,135.367,24.457,138.352,26.677z M126.16,33.785
			c-4.226,1.943-8.609,3.523-13.122,4.637c-1.267-9.097-3.074-17.869-5.656-24.579C114.64,17.503,121.088,24.487,126.16,33.785z
			 M94.744,12.516c0.316-0.006,0.63-0.052,0.946-0.052s0.637,0.045,0.947,0.052c2.305,3.766,5.087,13.18,7.133,27.504
			c-2.673,0.299-5.361,0.503-8.08,0.503s-5.407-0.204-8.08-0.503C89.647,25.696,92.442,16.282,94.744,12.516z M62.444,20.703
			c-1.964,2.643-3.778,5.562-5.474,8.659c-1.346-0.84-2.649-1.75-3.94-2.685C56.011,24.457,59.14,22.436,62.444,20.703z
			 M75.496,77.935H53.794c0.67-13.079,3.413-25.282,7.639-35.615c5.076,2.332,10.376,4.116,15.82,5.368
			C76.044,59.567,75.633,70.947,75.496,77.935z M77.247,120.65c-5.444,1.267-10.745,3.044-15.82,5.37
			c-4.226-10.326-6.963-22.529-7.639-35.615h21.699C75.633,97.402,76.044,108.782,77.247,120.65z M45.695,135.483
			c-11.971-11.679-19.872-27.462-21.4-45.078h20.134c0.661,14.889,3.635,28.583,8.431,40.121
			C50.39,132.037,48.016,133.712,45.695,135.483z M44.435,77.935H24.301c1.528-17.606,9.429-33.401,21.4-45.075
			c2.32,1.772,4.695,3.444,7.164,4.951C48.07,49.353,45.105,63.053,44.435,77.935z M53.03,141.67
			c1.291-0.925,2.594-1.839,3.94-2.685c1.689,3.099,3.504,6.01,5.474,8.664C59.14,145.908,56.011,143.887,53.03,141.67z
			 M65.437,134.46c4.165-1.899,8.473-3.445,12.906-4.529c1.254,9.029,3.051,17.743,5.608,24.43
			C76.854,150.634,70.5,143.655,65.437,134.46z M78.352,38.416c-4.436-1.09-8.744-2.63-12.909-4.533
			C70.506,24.686,76.86,17.71,83.963,13.98C81.399,20.669,79.603,29.383,78.352,38.416z"/>
		<polygon points="101.926,84.17 105.75,174.149 126.453,151.754 149.324,191.382 171.086,178.826 148.209,139.192 177.955,132.464 
					"/>
	</g>
</g>
<g>
</g>
<g>
</g>
<g>
</g>
<g>
</g>
<g>
</g>
<g>
</g>
<g>
</g>
<g>
</g>
<g>
</g>
<g>
</g>
<g>
</g>
<g>
</g>
<g>
</g>
<g>
</g>
<g>
</g>
</svg>
