<?xml version="1.0" encoding="iso-8859-1"?>
<!-- Generator: Adobe Illustrator 16.0.0, SVG Export Plug-In . SVG Version: 6.00 Build 0)  -->
<!DOCTYPE svg PUBLIC "-//W3C//DTD SVG 1.1//EN" "http://www.w3.org/Graphics/SVG/1.1/DTD/svg11.dtd">
<svg version="1.1" id="Capa_1" xmlns="http://www.w3.org/2000/svg" xmlns:xlink="http://www.w3.org/1999/xlink" x="0px" y="0px"
	 width="182.93px" height="182.93px" viewBox="0 0 182.93 182.93" style="enable-background:new 0 0 182.93 182.93;"
	 xml:space="preserve">
<g>
	<g>
		<path d="M171.952,61.05H79.567c-6.034,0-10.973-4.938-10.973-10.976V39.095c0-6.043-4.938-10.976-10.973-10.976H10.973
			C4.938,28.119,0,33.052,0,39.095V163.49c0,6.041,4.938,10.979,10.973,10.979h160.985c6.034,0,10.973-4.938,10.973-10.979V72.028
			C182.924,65.988,177.986,61.05,171.952,61.05z M91.459,161.201c-23.495,0-42.6-19.107-42.6-42.612
			c0-23.491,19.104-42.594,42.6-42.594c23.492,0,42.606,19.103,42.606,42.594C134.065,142.081,114.951,161.201,91.459,161.201z"/>
		<path d="M118.263,102.002l2.887-1.668c-2.874-4.664-6.783-8.574-11.447-11.445l-1.656,2.883l-1.669-0.938l1.65-2.844
			c-4.695-2.549-9.959-4.113-15.616-4.278L92.4,87.087h-0.755l5.169,10.36h-3.452v21.136c0,0.085-0.076,0.152-0.088,0.243
			c-0.031,0.256-0.137,0.433-0.262,0.652c-0.143,0.207-0.231,0.389-0.435,0.56c-0.076,0.036-0.088,0.158-0.152,0.195l-11.709,6.759
			l1.742,2.983l-11.959,0.719l6.588-9.999l1.729,2.984l10.747-6.199V97.447H86.11l5.182-10.354h-0.779V83.72
			c-5.657,0.158-10.924,1.723-15.613,4.277l1.638,2.844l-1.659,0.944l-1.668-2.878c-4.67,2.878-8.562,6.763-11.429,11.438
			l2.88,1.662l-0.962,1.663l-2.844-1.65c-2.548,4.688-4.113,9.968-4.284,15.618h3.395v1.912h-3.395
			c0.165,5.676,1.729,10.924,4.284,15.613l2.856-1.633l0.962,1.645l-2.892,1.681c2.868,4.652,6.777,8.567,11.447,11.448l1.663-2.887
			l1.659,0.926l-1.65,2.861c4.677,2.545,9.956,4.116,15.613,4.275v-3.374h1.918v3.374c5.657-0.159,10.915-1.718,15.604-4.275
			l-1.644-2.861l1.662-0.926l1.656,2.868c4.67-2.868,8.573-6.777,11.453-11.436l-2.88-1.675l0.95-1.656l2.831,1.645
			c2.558-4.689,4.116-9.962,4.287-15.613h-3.386v-1.924h3.386c-0.171-5.65-1.729-10.918-4.287-15.619l-2.831,1.663L118.263,102.002z
			"/>
		<polygon points="182.017,30.409 104.271,8.461 82.313,54.653 174.698,54.653 		"/>
	</g>
</g>
<g>
</g>
<g>
</g>
<g>
</g>
<g>
</g>
<g>
</g>
<g>
</g>
<g>
</g>
<g>
</g>
<g>
</g>
<g>
</g>
<g>
</g>
<g>
</g>
<g>
</g>
<g>
</g>
<g>
</g>
</svg>
