<?xml version="1.0" encoding="iso-8859-1"?>
<!-- Generator: Adobe Illustrator 16.0.0, SVG Export Plug-In . SVG Version: 6.00 Build 0)  -->
<!DOCTYPE svg PUBLIC "-//W3C//DTD SVG 1.1//EN" "http://www.w3.org/Graphics/SVG/1.1/DTD/svg11.dtd">
<svg version="1.1" id="Capa_1" xmlns="http://www.w3.org/2000/svg" xmlns:xlink="http://www.w3.org/1999/xlink" x="0px" y="0px"
	 width="181.968px" height="181.968px" viewBox="0 0 181.968 181.968" style="enable-background:new 0 0 181.968 181.968;"
	 xml:space="preserve">
<g>
	<g>
		<path d="M78.51,136.774c0-5.018,0.709-9.853,1.921-14.492c-0.612-7.429-1.029-15.637-1.172-24.595h14.639
			c5.294-5.717,11.703-10.375,18.906-13.587c-0.152-7.563-0.603-19.796-1.894-32.568c5.968-1.37,11.765-3.328,17.306-5.891
			c3.934,9.764,6.527,21.181,7.6,33.478c0.121,0,0.243-0.019,0.365-0.019c3.361,0,6.625,0.351,9.827,0.904
			c-1.06-14.434-4.03-27.784-8.75-39.141c2.674-1.626,5.243-3.435,7.746-5.35c12.939,12.607,21.476,29.676,23.12,48.704h-8.33
			c8.464,3.824,15.851,9.615,21.556,16.812c0.365-3.312,0.591-6.668,0.591-10.072C181.94,40.803,141.143,0,90.986,0
			S0.027,40.803,0.027,90.953c0,50.15,40.797,90.954,90.954,90.954c2.975,0,5.913-0.171,8.817-0.45
			C86.822,170.873,78.51,154.786,78.51,136.774z M137.081,28.826c-1.4,1.004-2.801,1.988-4.262,2.898
			c-1.827-3.35-3.788-6.498-5.906-9.359C130.475,24.241,133.86,26.424,137.081,28.826z M123.904,36.507
			c-4.566,2.101-9.304,3.809-14.188,5.005c-1.364-9.825-3.324-19.303-6.113-26.555C111.458,18.919,118.425,26.457,123.904,36.507z
			 M89.951,13.523c0.344-0.006,0.679-0.048,1.029-0.048s0.685,0.042,1.029,0.048c2.487,4.065,5.498,14.249,7.706,29.725
			c-2.887,0.323-5.797,0.542-8.729,0.542c-2.932,0-5.842-0.226-8.729-0.542C84.453,27.772,87.47,17.588,89.951,13.523z
			 M81.003,53.273c3.306,0.369,6.622,0.625,9.977,0.625c3.355,0,6.671-0.256,9.98-0.625c0.925,8.991,1.559,19.367,1.747,30.945
			H79.259C79.438,72.634,80.075,62.258,81.003,53.273z M55.051,22.365c-2.125,2.862-4.083,6.01-5.909,9.359
			c-1.453-0.911-2.862-1.894-4.259-2.898C48.101,26.424,51.486,24.241,55.051,22.365z M69.157,84.213H45.705
			c0.725-14.136,3.687-27.316,8.251-38.483c5.486,2.512,11.21,4.445,17.098,5.803C69.75,64.365,69.306,76.662,69.157,84.213z
			 M71.054,130.375c-5.882,1.357-11.606,3.281-17.098,5.803c-4.564-11.168-7.526-24.345-8.251-38.483h23.453
			C69.306,105.244,69.75,117.545,71.054,130.375z M36.964,146.396c-12.937-12.604-21.474-29.679-23.121-48.701h21.762
			c0.716,16.087,3.928,30.884,9.104,43.354C42.033,142.669,39.469,144.477,36.964,146.396z M35.6,84.213H13.837
			c1.653-19.022,10.19-36.097,23.121-48.704c2.506,1.915,5.069,3.724,7.746,5.349C39.527,53.329,36.315,68.131,35.6,84.213z
			 M44.883,153.081c1.397-1.011,2.807-1.997,4.259-2.898c1.827,3.349,3.784,6.497,5.909,9.359
			C51.486,157.666,48.101,155.48,44.883,153.081z M58.288,145.293c4.503-2.059,9.161-3.721,13.956-4.901
			c1.352,9.767,3.291,19.175,6.053,26.408C70.627,162.775,63.762,155.225,58.288,145.293z M72.244,41.513
			c-4.795-1.172-9.453-2.841-13.956-4.899c5.468-9.934,12.339-17.479,20.009-21.507C75.535,22.341,73.596,31.749,72.244,41.513z"/>
		<path d="M136.181,91.578c-24.954,0-45.2,20.244-45.2,45.197s20.246,45.193,45.2,45.193c24.965,0,45.193-20.24,45.193-45.193
			S161.14,91.578,136.181,91.578z M140.357,165.223v9.475h-9.109v-8.816c-6.223-0.28-12.27-1.961-15.795-4.007l2.788-10.869
			c3.897,2.138,9.384,4.086,15.418,4.086c5.298,0,8.927-2.04,8.927-5.761c0-3.531-2.972-5.76-9.853-8.086
			c-9.938-3.35-16.721-7.989-16.721-17.014c0-8.172,5.748-14.59,15.698-16.55v-8.817h9.115v8.172
			c6.224,0.286,10.413,1.589,13.476,3.068l-2.691,10.51c-2.424-1.028-6.698-3.166-13.384-3.166c-6.053,0-8.001,2.6-8.001,5.2
			c0,3.075,3.251,5.03,11.155,7.995c11.058,3.909,15.515,9.018,15.515,17.385C156.896,156.296,151.044,163.359,140.357,165.223z"/>
	</g>
</g>
<g>
</g>
<g>
</g>
<g>
</g>
<g>
</g>
<g>
</g>
<g>
</g>
<g>
</g>
<g>
</g>
<g>
</g>
<g>
</g>
<g>
</g>
<g>
</g>
<g>
</g>
<g>
</g>
<g>
</g>
</svg>
