<?xml version="1.0" encoding="iso-8859-1"?>
<!-- Generator: Adobe Illustrator 16.0.0, SVG Export Plug-In . SVG Version: 6.00 Build 0)  -->
<!DOCTYPE svg PUBLIC "-//W3C//DTD SVG 1.1//EN" "http://www.w3.org/Graphics/SVG/1.1/DTD/svg11.dtd">
<svg version="1.1" id="Capa_1" xmlns="http://www.w3.org/2000/svg" xmlns:xlink="http://www.w3.org/1999/xlink" x="0px" y="0px"
	 width="200.753px" height="200.754px" viewBox="0 0 200.753 200.754" style="enable-background:new 0 0 200.753 200.754;"
	 xml:space="preserve">
<g>
	<g>
		<path d="M188.386,61.757h-17.293c0.012-0.171,0.049-0.326,0.049-0.506v-5.489c0-4.165-3.38-7.551-7.551-7.551h-21.817
			c-4.171,0-7.557,3.386-7.557,7.551v5.489c0,0.174,0.049,0.335,0.049,0.506h-17.281c-0.243,0-0.487,0.055-0.73,0.066
			c2.923,0.719,5.626,1.939,8.013,3.617h64.119c4.786,0,8.671,3.891,8.671,8.674v5.675l-1.376,0.28v3.011v2.569v3.255v25.514
			c0,4.024-3.264,7.294-7.295,7.294h-55.838v3.697h55.838c6.041,0,10.985-4.945,10.985-10.991V88.905V85.65v-2.569l1.382-0.28
			v-8.687C200.748,67.292,195.194,61.757,188.386,61.757z M167.026,61.251c0,0.174-0.086,0.335-0.11,0.506h-28.479
			c-0.03-0.171-0.104-0.326-0.104-0.506v-5.489c0-1.894,1.534-3.434,3.435-3.434h21.817c1.905,0,3.44,1.541,3.44,3.434V61.251z"/>
		<path d="M110.652,68.464H87.818c0.006-0.223,0.064-0.43,0.064-0.661v-7.252c0-5.504-4.473-9.974-9.983-9.974H49.084
			c-5.51,0-9.983,4.469-9.983,9.974v7.252c0,0.237,0.052,0.444,0.064,0.661H16.331C7.329,68.464,0,75.786,0,84.795v11.472
			l1.821,0.369v3.395v4.292v33.71c0,7.983,6.537,14.511,14.51,14.511h94.321c7.978,0,14.511-6.527,14.511-14.511v-33.71v-4.292
			v-3.395l1.82-0.369V84.789C126.99,75.786,119.665,68.464,110.652,68.464z M44.545,60.551c0-2.5,2.027-4.539,4.545-4.539h28.814
			c2.512,0,4.545,2.04,4.545,4.539v7.252c0,0.237-0.106,0.444-0.137,0.661H44.694c-0.037-0.223-0.137-0.43-0.137-0.661v-7.252
			H44.545z M116.552,101.76l-47.614,9.56v3.13c0,2.003-1.635,3.635-3.635,3.635H61.68c-1.994,0-3.629-1.632-3.629-3.635v-3.13
			l-47.611-9.56v-3.398l47.611,9.555v-4.342c0-1.998,1.635-3.617,3.629-3.617h3.623c2,0,3.635,1.619,3.635,3.617v4.342l47.614-9.555
			V101.76z"/>
	</g>
</g>
<g>
</g>
<g>
</g>
<g>
</g>
<g>
</g>
<g>
</g>
<g>
</g>
<g>
</g>
<g>
</g>
<g>
</g>
<g>
</g>
<g>
</g>
<g>
</g>
<g>
</g>
<g>
</g>
<g>
</g>
</svg>
