<?xml version="1.0" encoding="iso-8859-1"?>
<!-- Generator: Adobe Illustrator 16.0.0, SVG Export Plug-In . SVG Version: 6.00 Build 0)  -->
<!DOCTYPE svg PUBLIC "-//W3C//DTD SVG 1.1//EN" "http://www.w3.org/Graphics/SVG/1.1/DTD/svg11.dtd">
<svg version="1.1" id="Capa_1" xmlns="http://www.w3.org/2000/svg" xmlns:xlink="http://www.w3.org/1999/xlink" x="0px" y="0px"
	 width="204.375px" height="204.376px" viewBox="0 0 204.375 204.376" style="enable-background:new 0 0 204.375 204.376;"
	 xml:space="preserve">
<g>
	<path d="M168.618,162.495l-2.174-21.008c0.913-2.155,1.389-4.457,1.389-6.832V123.28c8.513-12.616,13.487-27.806,13.487-44.143
		C181.32,35.5,145.826,0,102.188,0C58.547,0,23.056,35.5,23.056,79.138c0,16.331,4.975,31.521,13.488,44.143v11.375
		c0,2.375,0.466,4.677,1.388,6.832l-2.18,21.008l-8.875,20.393c-1.632,3.77-1.702,7.934-0.21,11.746
		c1.495,3.824,4.393,6.819,8.141,8.451c1.854,0.816,3.848,1.23,5.931,1.23c6.171,0,11.922-3.69,14.297-9.17l1.434-3.312l0.042,0.182
		c1.623,8.111,9.746,13.731,18.033,12.069c8.293-1.632,13.725-9.718,12.09-18.036l-4.707-23.857
		c-0.198-1.023-0.511-2.033-0.91-2.953l-1.839-4.396c7.283,2.223,15,3.44,23.002,3.44c7.998,0,15.719-1.218,22.995-3.44l-1.82,4.366
		c-0.401,0.938-0.719,1.948-0.926,2.995l-4.7,23.846c-0.792,4.019,0.024,8.111,2.308,11.521c2.283,3.41,5.754,5.724,9.749,6.503
		c1.011,0.207,2.021,0.305,3.02,0.305c7.283,0,13.622-5.212,15.053-12.391l0.036-0.152l1.425,3.3
		c2.436,5.614,7.965,9.243,14.091,9.243c2.131,0,4.201-0.432,6.113-1.278c3.763-1.645,6.674-4.646,8.172-8.464
		c1.491-3.812,1.425-7.989-0.207-11.74L168.618,162.495z M167.833,93.986v-0.587c0-3.005-0.828-5.849-2.241-8.397h3.715
		C169.043,88.067,168.502,91.048,167.833,93.986z M149.187,30.908c11.253,10.97,18.682,25.815,20.119,42.368h-3.861
		c0.135-0.983,0.207-1.981,0.207-2.986c0-11.347-8.342-20.712-19.187-22.484c-1.139-4.277-2.43-8.424-4.013-12.239
		C144.779,34.145,147.007,32.574,149.187,30.908z M121.177,85.001h4.207c2.064,2.417,4.634,4.415,7.6,5.827
		c-0.14,0.843-0.219,1.666-0.226,2.472l-9.048,12.492l-3.581,0.767C120.793,98.002,121.074,90.208,121.177,85.001z M119.527,44.844
		c5.182-1.197,10.236-2.893,15.053-5.124c1.077,2.67,2.016,5.492,2.868,8.418c-8.026,1.945-14.347,8.117-16.562,16.029
		C120.641,58.477,120.227,51.755,119.527,44.844z M128.74,70.29c0-7.767,6.296-14.06,14.06-14.06s14.061,6.299,14.061,14.06
		c0,7.764-6.297,14.062-14.061,14.062S128.74,78.054,128.74,70.29z M142.294,25.084c-1.212,0.874-2.436,1.735-3.702,2.527
		c-1.596-2.911-3.295-5.657-5.146-8.145C136.558,21.102,139.494,22.996,142.294,25.084z M130.834,31.77
		c-3.97,1.827-8.099,3.309-12.337,4.36c-1.193-8.556-2.898-16.8-5.328-23.108C120.001,16.462,126.061,23.029,130.834,31.77z
		 M101.29,11.773c0.299-0.006,0.594-0.043,0.898-0.043s0.6,0.037,0.898,0.043c2.161,3.534,4.792,12.395,6.704,25.857
		c-2.515,0.28-5.054,0.475-7.603,0.475c-2.551,0-5.081-0.194-7.603-0.475C96.507,24.168,99.131,15.308,101.29,11.773z
		 M93.508,46.354c2.875,0.326,5.763,0.542,8.68,0.542c2.914,0,5.806-0.223,8.68-0.542c0.811,7.824,1.364,16.849,1.522,26.923H91.995
		C92.15,63.202,92.704,54.178,93.508,46.354z M112.39,85.001c-0.128,8.634-0.578,16.456-1.205,23.458l-7.6,1.613
		c-0.475,0.104-0.94,0.226-1.397,0.371c-0.463-0.146-0.929-0.268-1.416-0.377l-7.581-1.607c-0.63-7.003-1.075-14.818-1.206-23.458
		H112.39z M91.151,13.149c-2.399,6.293-4.089,14.48-5.276,22.98c-4.165-1.023-8.218-2.479-12.133-4.26
		C78.507,23.215,84.481,16.657,91.151,13.149z M78.991,85.001h4.211c0.1,5.2,0.375,13,1.041,21.558l-3.574-0.767l-9.045-12.486
		c-0.006-0.807-0.082-1.628-0.226-2.469C74.354,89.422,76.93,87.419,78.991,85.001z M61.577,84.353
		c-7.767,0-14.06-6.299-14.06-14.062c0-7.767,6.293-14.06,14.06-14.06c7.764,0,14.062,6.299,14.062,14.06
		C75.639,78.054,69.34,84.353,61.577,84.353z M83.494,64.155c-2.207-7.861-8.473-14.005-16.435-15.981
		c0.871-2.904,1.827-5.717,2.917-8.378c4.777,2.186,9.751,3.864,14.873,5.048C84.143,51.755,83.732,58.477,83.494,64.155z
		 M70.929,19.467c-1.851,2.487-3.553,5.225-5.142,8.145c-1.267-0.792-2.487-1.653-3.711-2.527
		C64.883,22.996,67.818,21.102,70.929,19.467z M55.192,30.902c2.183,1.665,4.409,3.236,6.734,4.652
		c-1.583,3.814-2.874,7.967-4.021,12.245c-10.842,1.771-19.181,11.143-19.181,22.484c0,1.004,0.076,2.003,0.207,2.986h-3.86
		C36.51,56.724,43.933,41.878,55.192,30.902z M36.544,93.398v0.587c-0.661-2.932-1.206-5.918-1.467-8.978h3.717
		C37.366,87.544,36.544,90.394,36.544,93.398z M79.287,134.655l9.319,1.985c0.755,3.051,1.586,5.955,2.545,8.488
		C86.843,142.863,82.87,139.216,79.287,134.655z M103.086,146.505c-0.299,0-0.594,0.049-0.898,0.049s-0.6-0.049-0.898-0.049
		c-0.998-1.632-2.095-4.457-3.172-8.3c1.382-0.03,2.755-0.213,4.059-0.64c1.309,0.427,2.682,0.615,4.07,0.64
		C105.174,142.054,104.084,144.873,103.086,146.505z M113.176,145.263c0.986-2.569,1.826-5.517,2.594-8.622l9.682-2.059
		C121.774,139.283,117.658,142.997,113.176,145.263z M166.03,195.035c-0.847,0.378-1.729,0.548-2.606,0.548
		c-2.533,0-4.95-1.473-6.021-3.945l-9.822-22.585c-0.274-0.614-0.438-1.272-0.512-1.942l-0.646-6.235l-2.605,6.224l-4.573,23.188
		c-0.627,3.13-3.361,5.297-6.424,5.297c-0.421,0-0.853-0.036-1.279-0.121c-3.556-0.707-5.87-4.153-5.163-7.709l4.7-23.852
		c0.086-0.432,0.22-0.858,0.384-1.267l10.577-25.239c-0.286-0.877-0.487-1.784-0.487-2.74v-19.863l-5.078,7.021
		c-0.804,1.102-1.967,1.857-3.294,2.137l-25.483,5.408c-0.384,0.085-0.762,0.121-1.145,0.121c-1.742,0-3.34-0.889-4.357-2.271
		c-1.017,1.383-2.612,2.271-4.366,2.271c-0.377,0-0.752-0.036-1.139-0.121l-25.477-5.408c-1.331-0.279-2.497-1.035-3.294-2.137
		l-5.082-7.021v19.863c0,0.956-0.198,1.875-0.487,2.74l10.577,25.239c0.167,0.408,0.304,0.835,0.386,1.267l4.701,23.852
		c0.697,3.556-1.607,7.009-5.164,7.709c-0.429,0.085-0.859,0.121-1.285,0.121c-3.066,0-5.803-2.167-6.421-5.297l-4.576-23.188
		l-2.6-6.224l-0.649,6.235c-0.07,0.664-0.237,1.328-0.511,1.942l-9.822,22.585c-1.072,2.473-3.492,3.945-6.022,3.945
		c-0.874,0-1.76-0.17-2.606-0.548c-3.331-1.437-4.853-5.31-3.407-8.634l9.417-21.653l2.606-25.051
		c-1.023-1.425-1.629-3.167-1.629-5.054V93.398c0-4.826,3.918-8.747,8.744-8.747c4.832,0,8.747,3.915,8.747,8.747v2.758
		l12.708,17.54l23.413,4.969c1.373,0.293,2.47,1.103,3.242,2.149c0.768-1.047,1.87-1.856,3.243-2.149l23.413-4.969l12.708-17.54
		v-2.758c0-4.826,3.915-8.747,8.743-8.747c4.835,0,8.744,3.915,8.744,8.747v41.257c0,1.875-0.603,3.617-1.625,5.048l2.6,25.058
		l9.426,21.652C170.889,189.726,169.354,193.599,166.03,195.035z"/>
</g>
<g>
</g>
<g>
</g>
<g>
</g>
<g>
</g>
<g>
</g>
<g>
</g>
<g>
</g>
<g>
</g>
<g>
</g>
<g>
</g>
<g>
</g>
<g>
</g>
<g>
</g>
<g>
</g>
<g>
</g>
</svg>
