<?xml version="1.0" encoding="iso-8859-1"?>
<!-- Generator: Adobe Illustrator 16.0.0, SVG Export Plug-In . SVG Version: 6.00 Build 0)  -->
<!DOCTYPE svg PUBLIC "-//W3C//DTD SVG 1.1//EN" "http://www.w3.org/Graphics/SVG/1.1/DTD/svg11.dtd">
<svg version="1.1" id="Capa_1" xmlns="http://www.w3.org/2000/svg" xmlns:xlink="http://www.w3.org/1999/xlink" x="0px" y="0px"
	 width="202.422px" height="202.422px" viewBox="0 0 202.422 202.422" style="enable-background:new 0 0 202.422 202.422;"
	 xml:space="preserve">
<g>
	<g>
		<path d="M57.81,42.767c10.766,0,19.504-12.495,19.504-23.257C77.313,8.729,68.575,0,57.81,0C47.02,0,38.282,8.729,38.282,19.51
			C38.282,30.272,47.02,42.767,57.81,42.767z"/>
		<path d="M95.995,56.315c-0.146-0.536-0.256-1.084-0.512-1.583c-0.237-0.441-0.554-0.804-0.865-1.185
			c-0.317-0.387-0.579-0.785-0.944-1.117c-0.438-0.378-0.95-0.621-1.461-0.896c-0.316-0.164-0.572-0.42-0.907-0.557
			c-0.7-0.25-16.246-5.818-30.519-6.552l-1.955,3.921h-0.037l5.182,40.459l-6.162,10.79l-6.174-10.79l5.188-40.459h-0.048
			l-1.942-3.873c-13.013,0.655-27.03,5.289-29.959,6.299c-0.116,0.049-0.237,0.097-0.365,0.131c-0.079,0.03-0.17,0.061-0.189,0.073
			c-0.158,0.058-0.262,0.188-0.414,0.249c-0.736,0.326-1.431,0.691-2.04,1.236c-0.28,0.256-0.469,0.566-0.707,0.853
			c-0.39,0.457-0.773,0.892-1.047,1.428c-0.244,0.487-0.341,0.999-0.475,1.535c-0.116,0.375-0.317,0.694-0.359,1.105l-6.162,55.545
			c-0.469,4.238,2.576,8.038,6.808,8.514c0.298,0.049,0.584,0.049,0.853,0.049c3.885,0,7.228-2.911,7.666-6.869l5.614-50.586
			c0.658-0.188,1.382-0.404,2.144-0.624v52.659l-6.144,76.346c-0.408,5.097,3.392,9.572,8.488,9.975
			c0.25,0.023,0.511,0.03,0.743,0.03c4.78,0,8.835-3.666,9.225-8.507l5.547-69.015c1.157,0.512,2.417,0.816,3.751,0.816
			s2.588-0.305,3.732-0.816l5.553,69.015c0.39,4.841,4.451,8.507,9.225,8.507c0.238,0,0.5-0.007,0.737-0.03
			c5.103-0.402,8.902-4.872,8.495-9.975l-6.144-76.346V63.418c0.767,0.213,1.479,0.429,2.149,0.624l5.614,50.585
			c0.426,3.952,3.769,6.875,7.66,6.875c0.286,0,0.572-0.024,0.865-0.049c4.238-0.475,7.283-4.287,6.814-8.513L96.342,57.39
			C96.293,56.997,96.086,56.672,95.995,56.315z"/>
		<path d="M177.705,47.325h-11.63V39.57c0-2.141-1.048-3.879-2.314-3.879h-18.614c-1.278,0-2.326,1.738-2.326,3.879v7.754h-11.63
			c-6.418,0-11.631,5.218-11.631,11.63v131.83c0,6.412,5.213,11.63,11.631,11.63h46.521c6.418,0,11.637-5.218,11.637-11.63V58.961
			C189.342,52.543,184.123,47.325,177.705,47.325z M181.584,190.785c0,2.132-1.741,3.873-3.879,3.873h-46.521
			c-2.137,0-3.878-1.741-3.878-3.873V58.961c0-2.14,1.741-3.879,3.878-3.879h46.521c2.138,0,3.879,1.739,3.879,3.879V190.785z"/>
		<path d="M135.062,183.027c0,2.144,1.742,3.886,3.873,3.886h31.019c2.137,0,3.872-1.742,3.872-3.886v-59.028l-38.764-22.383
			V183.027z"/>
	</g>
</g>
<g>
</g>
<g>
</g>
<g>
</g>
<g>
</g>
<g>
</g>
<g>
</g>
<g>
</g>
<g>
</g>
<g>
</g>
<g>
</g>
<g>
</g>
<g>
</g>
<g>
</g>
<g>
</g>
<g>
</g>
</svg>
