<?xml version="1.0" encoding="iso-8859-1"?>
<!-- Generator: Adobe Illustrator 16.0.0, SVG Export Plug-In . SVG Version: 6.00 Build 0)  -->
<!DOCTYPE svg PUBLIC "-//W3C//DTD SVG 1.1//EN" "http://www.w3.org/Graphics/SVG/1.1/DTD/svg11.dtd">
<svg version="1.1" id="Capa_1" xmlns="http://www.w3.org/2000/svg" xmlns:xlink="http://www.w3.org/1999/xlink" x="0px" y="0px"
	 width="218.813px" height="218.813px" viewBox="0 0 218.813 218.813" style="enable-background:new 0 0 218.813 218.813;"
	 xml:space="preserve">
<g>
	<g>
		<path d="M130.807,79.436c0.036,0.006,0.061,0.012,0.085,0.021c0-0.058,0-0.128-0.012-0.188
			C130.855,79.329,130.843,79.387,130.807,79.436z"/>
		<path d="M87.924,79.463c0.024-0.006,0.049-0.015,0.085-0.021c-0.036-0.049-0.055-0.113-0.085-0.162
			C87.924,79.335,87.924,79.399,87.924,79.463z"/>
		<path d="M109.403,0C59.807,0,19.46,40.353,19.46,89.943c0,39.183,25.215,72.492,60.243,84.804l1.23-15.333
			c-0.892,0.158-1.821,0.243-2.768,0.243l-1.796-0.104c-4.972-0.548-9.103-3.465-11.53-7.459c-0.338-0.243-0.685-0.463-1.023-0.706
			c0.131-0.104,0.28-0.188,0.411-0.292c-1.333-2.619-1.958-5.645-1.614-8.781l0.274-2.32c-2.369,1.48-4.67,3.063-6.902,4.774
			C43.19,132.299,34.753,115.426,33.122,96.61h21.51c0.688,15.312,3.699,29.393,8.488,41.425l3.172-26.979
			c-0.785-4.682-1.416-9.478-1.665-14.446h3.361l0.429-3.656c0.189-0.74,0.5-1.821,1.118-2.999c0.523-1.017,1.148-1.781,1.446-2.149
			c0.438-0.582,1.172-1.565,2.302-2.533c0.773-0.643,1.51-1.102,2.284-1.513l0.877-0.469h-11.81
			c0.712-13.981,3.641-27.018,8.163-38.06c4.896,2.25,10.001,3.958,15.226,5.261c3.087-4.701,7.703-8.242,13.119-10.105
			c2.146-13.938,4.92-23.203,7.246-27.005c0.344-0.012,0.667-0.058,1.017-0.058s0.673,0.045,1.017,0.052
			c2.326,3.803,5.1,13.073,7.246,27.005c5.407,1.863,10.023,5.404,13.116,10.105c5.298-1.328,10.485-3.06,15.442-5.35
			c4.433,10.988,7.271,24.031,7.952,38.143h-11.63l0.974,0.648c0.177,0.067,1.048,0.536,2.004,1.346
			c1.084,0.923,1.76,1.82,2.112,2.302c0.677,0.816,1.182,1.528,1.62,2.344c0.706,1.391,1.011,2.557,1.169,3.185
			c0.067,0.083,0.402,1.057,0.555,2.326l0.128,1.175h3.081c-0.231,4.816-0.804,9.45-1.522,13.99l3.044,27.374
			c4.774-12.02,7.776-26.077,8.464-41.363h21.508c-1.633,18.815-10.065,35.688-22.859,48.159c-2.223-1.705-4.53-3.288-6.887-4.762
			l0.256,2.289c0.347,3.143-0.28,6.175-1.62,8.806c0.128,0.097,0.286,0.182,0.421,0.279c-0.348,0.256-0.694,0.476-1.035,0.719
			c-2.442,4.007-6.583,6.911-11.576,7.465l-1.735,0.098c-0.949,0-1.881-0.079-2.765-0.243l1.23,15.333
			c35.024-12.312,60.24-45.621,60.24-84.804C199.347,40.347,158.999,0,109.403,0z M54.638,83.278h-21.51
			c1.632-18.818,10.068-35.691,22.865-48.162c2.476,1.891,5.012,3.678,7.657,5.288C58.522,52.738,55.35,67.376,54.638,83.278z
			 M68.024,31.368c-1.434-0.898-2.822-1.875-4.208-2.868c3.188-2.368,6.527-4.521,10.056-6.378
			C71.778,24.947,69.833,28.065,68.024,31.368z M90.871,41.053c-4.737-1.166-9.341-2.813-13.792-4.838
			c5.407-9.828,12.196-17.284,19.784-21.269C94.132,22.091,92.214,31.396,90.871,41.053z M127.933,41.053
			c-1.352-9.721-3.276-19.092-6.047-26.256c7.764,3.915,14.657,11.371,20.076,21.306C137.444,38.185,132.762,39.869,127.933,41.053z
			 M150.779,31.374c-1.803-3.309-3.751-6.427-5.846-9.258c3.531,1.857,6.875,4.016,10.06,6.384
			C153.604,29.499,152.216,30.47,150.779,31.374z M164.169,83.278c-0.712-15.902-3.885-30.534-9.006-42.868
			c2.643-1.617,5.182-3.392,7.66-5.289c12.794,12.465,21.227,29.338,22.859,48.156H164.169z"/>
		<path d="M125.862,64.472c0-9.091-7.374-16.462-16.459-16.462c-9.097,0-16.468,7.371-16.468,16.462
			c0,9.091,7.371,19.629,16.468,19.629C118.488,84.101,125.862,73.563,125.862,64.472z"/>
		<path d="M141.371,150.487c3.568-0.39,6.132-3.611,5.742-7.173l-5.206-46.875c-0.03-0.317-0.201-0.579-0.286-0.892
			c-0.122-0.46-0.213-0.922-0.427-1.346c-0.183-0.356-0.438-0.624-0.676-0.929c-0.286-0.362-0.529-0.725-0.883-1.029
			c-0.322-0.268-0.694-0.429-1.047-0.636c-0.329-0.18-0.572-0.436-0.92-0.566c-0.603-0.213-13.7-4.908-25.735-5.532l-1.669,3.319
			h-0.033l4.378,34.135l-5.206,9.092l-5.206-9.098l4.378-34.136h-0.046l-1.665-3.318c-12.026,0.624-25.127,5.325-25.721,5.532
			c-0.365,0.137-0.64,0.398-0.965,0.584c-0.338,0.201-0.685,0.356-0.999,0.606c-0.365,0.316-0.636,0.697-0.91,1.077
			c-0.216,0.293-0.472,0.548-0.648,0.886c-0.223,0.436-0.329,0.911-0.441,1.385c-0.083,0.299-0.25,0.548-0.28,0.865l-5.206,46.875
			c-0.393,3.562,2.174,6.783,5.742,7.173c0.244,0.03,0.494,0.049,0.731,0.049c3.273,0,6.083-2.467,6.458-5.797l4.747-42.694
			c0.554-0.161,1.16-0.335,1.802-0.523v44.436l-5.176,64.423c-0.344,4.293,2.856,8.062,7.152,8.409
			c0.219,0.019,0.423,0.024,0.648,0.024c4.022,0,7.438-3.1,7.776-7.179l4.683-58.225c0.953,0.427,2.024,0.663,3.148,0.663
			s2.195-0.243,3.148-0.663l4.683,58.225c0.338,4.079,3.757,7.179,7.775,7.179c0.22,0,0.427-0.006,0.646-0.024
			c4.299-0.347,7.502-4.116,7.154-8.409l-5.176-64.423v-44.436c0.652,0.188,1.249,0.368,1.803,0.523l4.743,42.694
			c0.384,3.33,3.191,5.797,6.461,5.797C140.878,150.536,141.128,150.518,141.371,150.487z"/>
	</g>
</g>
<g>
</g>
<g>
</g>
<g>
</g>
<g>
</g>
<g>
</g>
<g>
</g>
<g>
</g>
<g>
</g>
<g>
</g>
<g>
</g>
<g>
</g>
<g>
</g>
<g>
</g>
<g>
</g>
<g>
</g>
</svg>
