<?xml version="1.0" encoding="iso-8859-1"?>
<!-- Generator: Adobe Illustrator 16.0.0, SVG Export Plug-In . SVG Version: 6.00 Build 0)  -->
<!DOCTYPE svg PUBLIC "-//W3C//DTD SVG 1.1//EN" "http://www.w3.org/Graphics/SVG/1.1/DTD/svg11.dtd">
<svg version="1.1" id="Capa_1" xmlns="http://www.w3.org/2000/svg" xmlns:xlink="http://www.w3.org/1999/xlink" x="0px" y="0px"
	 width="224.033px" height="224.033px" viewBox="0 0 224.033 224.033" style="enable-background:new 0 0 224.033 224.033;"
	 xml:space="preserve">
<g>
	<g>
		<path d="M163.36,136.169c0-14.285-16.465-33.572-38.672-39.211c9.286-6.248,15.68-18.575,15.68-29.672
			c0-15.665-12.69-28.36-28.352-28.36c-15.664,0-28.351,12.696-28.351,28.36c0,11.097,6.391,23.418,15.68,29.672
			c-22.21,5.629-38.669,24.926-38.669,39.211C60.675,153.061,163.36,153.061,163.36,136.169z M109.739,105.175h-0.131l-4.695-5.392
			c2.278,0.816,4.634,1.31,7.103,1.31c2.473,0,4.822-0.487,7.1-1.297l-4.706,5.379h-0.116l12.105,29.277l-14.383,14.376
			l-14.392-14.376L109.739,105.175z"/>
		<polygon points="192.284,148.828 214.685,169.367 9.347,169.367 31.749,148.828 0,169.367 0,185.107 224.033,185.107 
			224.033,169.367 		"/>
		<polygon points="157.868,163.973 196.193,163.973 182.425,151.246 159.646,151.246 		"/>
	</g>
</g>
<g>
</g>
<g>
</g>
<g>
</g>
<g>
</g>
<g>
</g>
<g>
</g>
<g>
</g>
<g>
</g>
<g>
</g>
<g>
</g>
<g>
</g>
<g>
</g>
<g>
</g>
<g>
</g>
<g>
</g>
</svg>
