<?xml version="1.0" encoding="iso-8859-1"?>
<!-- Generator: Adobe Illustrator 16.0.0, SVG Export Plug-In . SVG Version: 6.00 Build 0)  -->
<!DOCTYPE svg PUBLIC "-//W3C//DTD SVG 1.1//EN" "http://www.w3.org/Graphics/SVG/1.1/DTD/svg11.dtd">
<svg version="1.1" id="Capa_1" xmlns="http://www.w3.org/2000/svg" xmlns:xlink="http://www.w3.org/1999/xlink" x="0px" y="0px"
	 width="196.883px" height="196.883px" viewBox="0 0 196.883 196.883" style="enable-background:new 0 0 196.883 196.883;"
	 xml:space="preserve">
<g>
	<g>
		<g>
			<path d="M98.438,59.511c-7.326,0-13.254,5.929-13.254,13.242c0,7.311,5.935,15.791,13.254,15.791
				c7.3,0,13.229-8.479,13.229-15.791C111.668,65.44,105.738,59.511,98.438,59.511z"/>
			<path d="M141.765,73.06c-2.769-0.799-5.686,0.815-6.479,3.598l-6.314,22.079l-10.616-8.06c-0.174-0.128-0.369-0.161-0.552-0.268
				c-0.322-0.184-0.619-0.348-0.975-0.465c-0.345-0.118-0.678-0.162-1.033-0.208c-0.209-0.028-0.405-0.124-0.614-0.124h-14.691
				l-1.368,2.72h-0.032l3.525,27.46l-4.176,7.321l-4.193-7.321l3.525-27.46h-0.045l-1.346-2.72H81.683
				c-0.217,0-0.392,0.101-0.611,0.124c-0.346,0.041-0.689,0.096-1.032,0.208c-0.358,0.118-0.654,0.282-0.974,0.465
				c-0.172,0.107-0.38,0.134-0.549,0.262l-10.625,8.054l-6.315-22.073c-0.791-2.786-3.684-4.402-6.465-3.598
				c-2.78,0.796-4.389,3.694-3.604,6.474l8.416,29.431c0.471,1.653,1.744,2.977,3.384,3.524c0.54,0.186,1.093,0.272,1.653,0.272
				c1.127,0,2.241-0.365,3.161-1.065l15.32-11.617h0.329v38.204l-4.167,51.822c-0.275,3.456,2.295,6.487,5.766,6.762
				c0.161,0.017,0.342,0.022,0.502,0.022c3.24,0,5.986-2.484,6.26-5.779l3.765-46.829c0.78,0.339,1.632,0.542,2.541,0.542
				c0.896,0,1.747-0.203,2.527-0.542l3.774,46.829c0.264,3.295,3.011,5.779,6.25,5.779c0.175,0,0.338-0.006,0.514-0.022
				c3.461-0.274,6.042-3.306,5.757-6.762l-4.169-51.822v-38.204h0.341l15.311,11.617c0.919,0.7,2.035,1.065,3.161,1.065
				c0.56,0,1.11-0.087,1.652-0.272c1.644-0.548,2.91-1.861,3.381-3.524l8.418-29.437C146.154,76.753,144.544,73.856,141.765,73.06z"
				/>
		</g>
		<g>
			<path d="M72.169,30.6h-0.875v3.198c0.255,0.033,0.56,0.033,0.999,0.033c1.159,0,2.19-0.435,2.19-1.636
				C74.483,31.054,73.452,30.6,72.169,30.6z"/>
			<path d="M85.521,26.115c-1.73,0-2.746,1.647-2.746,3.855c0,2.218,1.055,3.789,2.769,3.789c1.729,0,2.724-1.647,2.724-3.855
				C88.273,27.87,87.3,26.115,85.521,26.115z"/>
			<path d="M74.207,27.36c0-0.856-0.653-1.311-1.814-1.311c-0.56,0-0.875,0.033-1.092,0.066v2.646h0.84
				C73.484,28.761,74.207,28.206,74.207,27.36z"/>
			<path d="M135.428,32.112l17.847-15.623l-21.869,0.744l7.442-11.036l-30.162,11.737L120.281,0L93.69,17.587L82.199,3.926
				l-1.939,14.419l-26.717-7.935l7.476,17.286l-17.409,10.64l22.449,0.982L60.648,54.43l26.502-8.993l-2.919,8.993l20.599-7.185
				l23.978,7.185l-6.602-12.575l25.062,2.635L135.428,32.112z M76.003,34.712c-0.829,0.657-2.213,1.026-4.466,1.026
				c-1.272,0-2.212-0.084-2.78-0.17V24.419c0.665-0.134,2.033-0.235,3.317-0.235c1.564,0,2.528,0.15,3.351,0.638
				c0.803,0.421,1.368,1.195,1.368,2.218c0,1.016-0.588,1.957-1.871,2.427V29.5c1.299,0.353,2.251,1.335,2.251,2.796
				C77.173,33.327,76.703,34.134,76.003,34.712z M85.404,35.803c-3.361,0-5.327-2.542-5.327-5.775c0-3.401,2.167-5.945,5.512-5.945
				c3.492,0,5.396,2.61,5.396,5.742C90.984,33.546,88.733,35.803,85.404,35.803z M103.72,35.621h-2.698L98.6,31.237
				c-0.677-1.209-1.424-2.678-1.973-4.005l-0.056,0.016c0.07,1.502,0.103,3.1,0.103,4.953v3.42h-2.354V24.266h2.996l2.355,4.159
				c0.676,1.193,1.343,2.61,1.86,3.891h0.044c-0.164-1.502-0.219-3.032-0.219-4.736V24.26h2.363V35.621z M116.869,30.632
				c0,3.502-1.775,5.171-4.739,5.171c-2.857,0-4.547-1.583-4.547-5.204v-6.334h2.569v6.534c0,1.957,0.75,2.949,2.058,2.949
				c1.346,0,2.091-0.941,2.091-2.949v-6.534h2.561v6.367H116.869z M123.532,35.787c-1.298,0-2.582-0.342-3.218-0.695l0.53-2.123
				c0.689,0.353,1.745,0.706,2.846,0.706c1.173,0,1.794-0.486,1.794-1.226c0-0.708-0.541-1.116-1.909-1.604
				c-1.882-0.656-3.105-1.704-3.105-3.351c0-1.937,1.606-3.417,4.295-3.417c1.279,0,2.214,0.269,2.898,0.572l-0.573,2.073
				c-0.456-0.224-1.271-0.544-2.376-0.544c-1.111,0-1.653,0.503-1.653,1.097c0,0.723,0.636,1.042,2.102,1.603
				c2.003,0.739,2.946,1.781,2.946,3.385C128.108,34.167,126.642,35.787,123.532,35.787z"/>
		</g>
	</g>
</g>
<g>
</g>
<g>
</g>
<g>
</g>
<g>
</g>
<g>
</g>
<g>
</g>
<g>
</g>
<g>
</g>
<g>
</g>
<g>
</g>
<g>
</g>
<g>
</g>
<g>
</g>
<g>
</g>
<g>
</g>
</svg>
