<?xml version="1.0" encoding="iso-8859-1"?>
<!-- Generator: Adobe Illustrator 16.0.0, SVG Export Plug-In . SVG Version: 6.00 Build 0)  -->
<!DOCTYPE svg PUBLIC "-//W3C//DTD SVG 1.1//EN" "http://www.w3.org/Graphics/SVG/1.1/DTD/svg11.dtd">
<svg version="1.1" id="Capa_1" xmlns="http://www.w3.org/2000/svg" xmlns:xlink="http://www.w3.org/1999/xlink" x="0px" y="0px"
	 width="206.064px" height="206.063px" viewBox="0 0 206.064 206.063" style="enable-background:new 0 0 206.064 206.063;"
	 xml:space="preserve">
<g>
	<g>
		<path d="M82.938,44.776c10.875,0,19.704-12.623,19.704-23.501c0-2.731-0.56-5.331-1.564-7.703
			c-4.546,3.836-10.976,6.263-18.152,6.263c-7.17,0-13.591-2.426-18.137-6.263c-1.004,2.366-1.568,4.966-1.568,7.703
			C63.221,32.153,72.05,44.776,82.938,44.776z"/>
		<path d="M82.932,15.85c5.389,0,10.918-1.778,16.432-5.27c0.722-0.46,0.941-1.422,0.478-2.15c-0.459-0.725-1.428-0.938-2.149-0.481
			c-2.646,1.678-5.276,2.88-7.876,3.678c0.612-1.12,1.041-2.338,1.041-3.702C90.857,3.553,87.304,0,82.932,0
			c-4.363,0-7.925,3.553-7.925,7.925c0,1.327,0.411,2.524,0.993,3.629c-3.081-0.962-5.818-2.326-7.846-3.61
			c-0.715-0.457-1.689-0.244-2.149,0.48c-0.463,0.728-0.244,1.69,0.481,2.15C71.935,14.029,77.619,15.85,82.932,15.85z
			 M82.932,3.124c2.658,0,4.808,2.159,4.808,4.807c0,2.649-2.156,4.808-4.808,4.808c-2.648,0-4.807-2.158-4.807-4.808
			C78.13,5.273,80.289,3.124,82.932,3.124z"/>
		<path d="M172.217,66.43c3.812-9.557,2.648-22.204-0.768-25.62c-8.031-8.032-21.787,0-21.787,0s-14.534-10.324-21.428,0
			c-2.581,3.879-3.44,14.148-0.384,23.324c0.207,0.624,0.263,1.242,0.414,1.866l-0.772,0.749l-6.839-10.583
			c-0.17-0.262-0.438-0.411-0.639-0.648c-0.348-0.417-0.688-0.804-1.127-1.154c-0.408-0.329-0.858-0.572-1.327-0.804
			c-0.28-0.143-0.493-0.38-0.804-0.493c-0.755-0.274-18.673-6.701-33.832-6.701c-15.159,0-33.076,6.427-33.832,6.701
			c-0.25,0.088-0.411,0.283-0.648,0.393c-0.523,0.25-0.992,0.524-1.446,0.88c-0.374,0.292-0.688,0.606-0.999,0.953
			c-0.344,0.38-0.636,0.773-0.898,1.224c-0.262,0.453-0.457,0.91-0.63,1.409c-0.094,0.274-0.28,0.49-0.344,0.779l-12.47,56.118
			c-0.929,4.201,1.717,8.36,5.918,9.298c0.572,0.128,1.142,0.183,1.696,0.183c3.575,0,6.795-2.473,7.608-6.102L58.39,66.417
			c0.804-0.249,1.714-0.518,2.707-0.791v53.197l-6.205,77.138c-0.411,5.151,3.425,9.657,8.574,10.071
			c0.256,0.019,0.505,0.031,0.761,0.031c4.819,0,8.917-3.709,9.31-8.604l5.605-69.721c1.16,0.511,2.433,0.804,3.772,0.804
			s2.618-0.293,3.772-0.804l5.605,69.721c0.393,4.896,4.491,8.604,9.31,8.604c0.256,0,0.506-0.007,0.762-0.031
			c5.145-0.414,8.981-4.926,8.573-10.071l-6.205-77.138V65.626c1.705,0.487,3.166,0.928,4.287,1.291l10.504,16.249
			c1.267,1.958,3.337,3.249,5.65,3.51c0.305,0.03,0.597,0.049,0.896,0.049c0.688,0,1.339-0.21,1.99-0.384
			c-1.065,5.958-2.046,10.778,0.146,13.348c4.652,5.435,8.793-17.202,19.12-20.265c10.315-3.054,19.814,24.536,24.083,20.265
			C177.186,93.958,166.511,80.721,172.217,66.43z"/>
	</g>
</g>
<g>
</g>
<g>
</g>
<g>
</g>
<g>
</g>
<g>
</g>
<g>
</g>
<g>
</g>
<g>
</g>
<g>
</g>
<g>
</g>
<g>
</g>
<g>
</g>
<g>
</g>
<g>
</g>
<g>
</g>
</svg>
