<?xml version="1.0" encoding="iso-8859-1"?>
<!-- Generator: Adobe Illustrator 16.0.0, SVG Export Plug-In . SVG Version: 6.00 Build 0)  -->
<!DOCTYPE svg PUBLIC "-//W3C//DTD SVG 1.1//EN" "http://www.w3.org/Graphics/SVG/1.1/DTD/svg11.dtd">
<svg version="1.1" id="Capa_1" xmlns="http://www.w3.org/2000/svg" xmlns:xlink="http://www.w3.org/1999/xlink" x="0px" y="0px"
	 width="218.772px" height="218.772px" viewBox="0 0 218.772 218.772" style="enable-background:new 0 0 218.772 218.772;"
	 xml:space="preserve">
<g>
	<g>
		<path d="M96.264,62.853c0,9.183,7.444,19.838,16.635,19.838c9.174,0,16.627-10.656,16.627-19.838
			c0-9.191-7.453-16.635-16.627-16.635C103.714,46.217,96.264,53.661,96.264,62.853z"/>
		<path d="M170.567,123.233l-26.312-31.561c-0.092-0.112-0.22-0.152-0.323-0.256c-0.304-0.325-0.651-0.575-1.022-0.837
			c-0.365-0.25-0.713-0.505-1.12-0.673c-0.128-0.055-0.214-0.161-0.348-0.207c-0.603-0.21-13.907-4.999-26.11-5.593l-1.571,3.133
			h-0.045l4.433,34.501l-5.261,9.183l-5.265-9.183l4.43-34.501h-0.052l-1.546-3.105c-8.522,0.411-17.57,2.844-22.472,4.363
			L59.214,64.524c-0.679-0.569-1.44-0.968-2.244-1.218l7.444-25.114c20.241-13.405,41.078,6.853,59.771-24.394
			C97.037,24.138,93.295-4.712,74.946,1.285c-0.167-0.542-0.505-1.017-1.084-1.19c-0.956-0.332-1.909,0.241-2.183,1.178
			L53.284,63.352c-1.239,0.347-2.426,0.935-3.303,2c-2.101,2.518-1.891,6.074,0.198,8.461L46.75,85.379
			c-0.28,0.941,0.256,1.927,1.19,2.201c0.167,0.064,0.344,0.082,0.505,0.082c0.767,0,1.464-0.499,1.69-1.267l2.938-9.9l29.31,24.423
			c0.256,0.21,0.569,0.311,0.843,0.484c0.286,0.171,0.548,0.362,0.859,0.481c0.493,0.213,1.004,0.313,1.522,0.387
			c0.268,0.052,0.518,0.131,0.798,0.137c0.064,0,0.119,0.03,0.173,0.03c0.7,0,1.379-0.143,2.034-0.359
			c0.076-0.018,0.137-0.006,0.207-0.039c0.061-0.019,2.32-0.822,5.66-1.763v44.889l-5.237,65.081c-0.35,4.342,2.886,8.16,7.234,8.5
			c0.216,0.019,0.423,0.025,0.643,0.025c4.07,0,7.526-3.124,7.861-7.259l4.734-58.827c0.971,0.426,2.043,0.682,3.185,0.682
			c1.136,0,2.208-0.256,3.194-0.682l4.725,58.827c0.338,4.135,3.788,7.259,7.867,7.259c0.207,0,0.42-0.007,0.64-0.025
			c4.348-0.347,7.587-4.158,7.233-8.5l-5.23-65.081v-44.877c1.656,0.469,3.039,0.904,4.025,1.221l25.111,30.139
			c1.297,1.559,3.167,2.368,5.061,2.368c1.485,0,2.978-0.499,4.195-1.527C172.516,130.168,172.905,126.028,170.567,123.233z"/>
	</g>
</g>
<g>
</g>
<g>
</g>
<g>
</g>
<g>
</g>
<g>
</g>
<g>
</g>
<g>
</g>
<g>
</g>
<g>
</g>
<g>
</g>
<g>
</g>
<g>
</g>
<g>
</g>
<g>
</g>
<g>
</g>
</svg>
