<?xml version="1.0" encoding="iso-8859-1"?>
<!-- Generator: Adobe Illustrator 16.0.0, SVG Export Plug-In . SVG Version: 6.00 Build 0)  -->
<!DOCTYPE svg PUBLIC "-//W3C//DTD SVG 1.1//EN" "http://www.w3.org/Graphics/SVG/1.1/DTD/svg11.dtd">
<svg version="1.1" id="Capa_1" xmlns="http://www.w3.org/2000/svg" xmlns:xlink="http://www.w3.org/1999/xlink" x="0px" y="0px"
	 width="204.741px" height="204.741px" viewBox="0 0 204.741 204.741" style="enable-background:new 0 0 204.741 204.741;"
	 xml:space="preserve">
<g>
	<g>
		<path d="M59.77,43.218c10.875,0,19.705-12.62,19.705-23.507S70.646,0,59.77,0C48.883,0,40.054,8.823,40.054,19.71
			C40.054,30.589,48.883,43.218,59.77,43.218z"/>
		<path d="M98.348,56.903c-0.143-0.548-0.256-1.097-0.518-1.602c-0.231-0.451-0.56-0.813-0.874-1.2
			c-0.304-0.393-0.572-0.798-0.953-1.126c-0.441-0.387-0.953-0.624-1.471-0.898c-0.326-0.167-0.575-0.436-0.929-0.569
			c-0.706-0.256-16.395-5.879-30.817-6.619l-1.982,3.958h-0.048l5.249,40.886l-6.235,10.896l-6.235-10.896l5.249-40.886h-0.061
			l-1.952-3.909c-13.144,0.661-27.304,5.337-30.26,6.366c-0.131,0.037-0.25,0.089-0.375,0.131c-0.073,0.031-0.167,0.062-0.198,0.073
			c-0.158,0.058-0.262,0.183-0.408,0.25c-0.752,0.332-1.458,0.706-2.067,1.254c-0.29,0.256-0.475,0.566-0.719,0.855
			c-0.387,0.46-0.779,0.904-1.053,1.446c-0.25,0.487-0.344,1.011-0.487,1.541c-0.106,0.387-0.311,0.709-0.356,1.12l-6.235,56.118
			c-0.472,4.28,2.609,8.129,6.884,8.604c0.295,0.037,0.587,0.049,0.874,0.049c3.916,0,7.295-2.947,7.739-6.93l5.678-51.112
			c0.664-0.201,1.392-0.411,2.165-0.636v53.198l-6.205,77.138c-0.411,5.146,3.425,9.657,8.574,10.071
			c0.255,0.019,0.511,0.03,0.761,0.03c4.826,0,8.924-3.708,9.316-8.604l5.605-69.722c1.16,0.512,2.433,0.816,3.772,0.816
			s2.618-0.305,3.772-0.816l5.605,69.722c0.393,4.896,4.491,8.604,9.316,8.604c0.25,0,0.505-0.012,0.761-0.03
			c5.152-0.414,8.985-4.926,8.574-10.071l-6.211-77.126V64.073c0.773,0.219,1.504,0.429,2.165,0.636l5.678,51.112
			c0.445,3.988,3.818,6.936,7.74,6.936c0.286,0,0.578-0.023,0.874-0.055c4.278-0.469,7.356-4.329,6.884-8.604L98.698,57.98
			C98.653,57.588,98.449,57.277,98.348,56.903z"/>
		<path d="M135.878,63.823l20.74-10.905l20.733,10.905l-3.958-23.093l16.781-16.355l-23.193-3.355L156.619,0l-10.37,21.02
			l-23.193,3.355l16.781,16.355L135.878,63.823z M151.46,28.195l5.158-10.458l5.151,10.458l11.526,1.666l-8.336,8.141l1.967,11.487
			l-10.309-5.425l-10.315,5.425l1.967-11.487l-8.336-8.141L151.46,28.195z"/>
		<path d="M156.619,70.451l-10.37,21.014l-23.193,3.38l16.781,16.35l-3.958,23.096l20.74-10.906l20.733,10.906l-3.958-23.096
			l16.781-16.35l-23.193-3.38L156.619,70.451z M166.927,119.92l-10.309-5.396l-10.315,5.396l1.967-11.472l-8.336-8.136l11.526-1.684
			l5.158-10.437l5.151,10.437l11.526,1.684l-8.336,8.136L166.927,119.92z"/>
		<path d="M166.982,161.929l-10.363-21.014l-10.37,21.014l-23.193,3.367l16.781,16.35l-3.958,23.096l20.74-10.911l20.733,10.911
			l-3.958-23.096l16.781-16.35L166.982,161.929z M166.927,190.396l-10.309-5.42l-10.315,5.42l1.967-11.484l-8.336-8.153
			l11.526-1.662l5.158-10.449l5.151,10.449l11.526,1.662l-8.336,8.153L166.927,190.396z"/>
	</g>
</g>
<g>
</g>
<g>
</g>
<g>
</g>
<g>
</g>
<g>
</g>
<g>
</g>
<g>
</g>
<g>
</g>
<g>
</g>
<g>
</g>
<g>
</g>
<g>
</g>
<g>
</g>
<g>
</g>
<g>
</g>
</svg>
