<?xml version="1.0" encoding="iso-8859-1"?>
<!-- Generator: Adobe Illustrator 16.0.0, SVG Export Plug-In . SVG Version: 6.00 Build 0)  -->
<!DOCTYPE svg PUBLIC "-//W3C//DTD SVG 1.1//EN" "http://www.w3.org/Graphics/SVG/1.1/DTD/svg11.dtd">
<svg version="1.1" id="Capa_1" xmlns="http://www.w3.org/2000/svg" xmlns:xlink="http://www.w3.org/1999/xlink" x="0px" y="0px"
	 width="204.51px" height="204.51px" viewBox="0 0 204.51 204.51" style="enable-background:new 0 0 204.51 204.51;"
	 xml:space="preserve">
<g>
	<g>
		<path d="M102.268,43.212c10.875,0,19.704-12.623,19.704-23.501c0-10.887-8.829-19.71-19.704-19.71
			C91.38,0,82.551,8.829,82.551,19.71C82.551,30.589,91.38,43.212,102.268,43.212z"/>
		<path d="M190.828,114.428l0.098-0.055l-17.981-35.598c2.405-0.673,4.457-2.457,5.304-4.999c1.37-4.086-0.847-8.501-4.92-9.865
			l-37.412-12.47c-1.693-0.606-16.818-5.873-30.757-6.562l-1.856,3.711h-0.049l5.249,40.879l-6.235,10.894l-6.235-10.894
			l5.252-40.879h-0.059l-1.851-3.711c-13.929,0.688-29.058,5.955-30.76,6.562L31.21,63.912c-4.077,1.358-6.29,5.772-4.926,9.865
			c0.85,2.548,2.908,4.332,5.319,5.005l-18.021,35.646l0.07,0.036c-0.429,0.73-0.725,1.498-0.725,2.351
			c0,11.459,9.292,20.752,20.751,20.752c11.46,0,20.752-9.293,20.752-20.752c0-0.871-0.313-1.656-0.755-2.387l0.101-0.055
			L35.78,78.763c0.125-0.031,0.244-0.018,0.368-0.055l37.412-12.47c0.037-0.012,0.064-0.045,0.094-0.058
			c0.03-0.006,0.061,0,0.094-0.012c0.067-0.019,2.743-0.972,6.701-2.095v53.204l-6.205,77.131
			c-0.411,5.151,3.425,9.664,8.573,10.071c0.256,0.019,0.505,0.03,0.761,0.03c4.82,0,8.917-3.708,9.31-8.604l5.605-69.715
			c1.16,0.512,2.433,0.804,3.772,0.804c1.339,0,2.618-0.292,3.771-0.804l5.605,69.715c0.39,4.896,4.494,8.604,9.311,8.604
			c0.256,0,0.505-0.006,0.761-0.03c5.151-0.407,8.987-4.926,8.573-10.071l-6.204-77.131V64.073c3.964,1.123,6.631,2.076,6.704,2.095
			c0.03,0.012,0.061,0.006,0.098,0.012c0.036,0.013,0.061,0.04,0.085,0.052l37.411,12.471c0.128,0.037,0.256,0.024,0.378,0.061
			l-18.023,35.665l0.066,0.036c-0.433,0.73-0.725,1.498-0.725,2.351c0,11.459,9.292,20.752,20.752,20.752
			s20.752-9.293,20.752-20.752C191.583,115.943,191.267,115.158,190.828,114.428z M48.357,110.555
			c-7.861-3.081-21.443-3.094-29.326-0.012l14.666-28.991L48.357,110.555z M156.181,110.543l14.669-28.991l14.669,29.015
			C177.651,107.474,164.066,107.461,156.181,110.543z"/>
	</g>
</g>
<g>
</g>
<g>
</g>
<g>
</g>
<g>
</g>
<g>
</g>
<g>
</g>
<g>
</g>
<g>
</g>
<g>
</g>
<g>
</g>
<g>
</g>
<g>
</g>
<g>
</g>
<g>
</g>
<g>
</g>
</svg>
