<?xml version="1.0" encoding="iso-8859-1"?>
<!-- Generator: Adobe Illustrator 16.0.0, SVG Export Plug-In . SVG Version: 6.00 Build 0)  -->
<!DOCTYPE svg PUBLIC "-//W3C//DTD SVG 1.1//EN" "http://www.w3.org/Graphics/SVG/1.1/DTD/svg11.dtd">
<svg version="1.1" id="Capa_1" xmlns="http://www.w3.org/2000/svg" xmlns:xlink="http://www.w3.org/1999/xlink" x="0px" y="0px"
	 width="204.503px" height="204.504px" viewBox="0 0 204.503 204.504" style="enable-background:new 0 0 204.503 204.504;"
	 xml:space="preserve">
<g>
	<g>
		<path d="M79.484,43.211c10.873,0,19.701-12.623,19.701-23.501C99.185,8.823,90.356,0,79.484,0C68.597,0,59.768,8.829,59.768,19.71
			C59.768,30.589,68.597,43.211,79.484,43.211z"/>
		<path d="M118.065,56.934c-0.14-0.572-0.268-1.136-0.536-1.659c-0.207-0.393-0.499-0.697-0.761-1.042
			c-0.347-0.459-0.664-0.917-1.114-1.297c-0.359-0.292-0.768-0.472-1.169-0.703c-0.396-0.237-0.725-0.554-1.176-0.718
			c-0.706-0.252-16.392-5.879-30.808-6.622l-1.982,3.967h-0.052l5.252,40.879l-6.235,10.89l-6.235-10.89l5.249-40.879h-0.061
			l-1.985-3.974c-14.416,0.743-30.096,6.366-30.802,6.622c-0.454,0.165-0.792,0.493-1.19,0.731
			c-0.387,0.231-0.798,0.399-1.142,0.691c-0.459,0.387-0.792,0.862-1.154,1.337c-0.247,0.335-0.53,0.63-0.728,1.001
			c-0.274,0.53-0.393,1.105-0.548,1.69c-0.095,0.35-0.29,0.648-0.332,1.017l-6.235,56.118c-0.475,4.28,2.606,8.129,6.884,8.604
			c0.292,0.037,0.579,0.049,0.874,0.049c3.915,0,7.289-2.947,7.73-6.93l5.681-51.118c0.661-0.201,1.392-0.411,2.165-0.63v53.198
			l-6.205,77.138c-0.411,5.151,3.422,9.657,8.573,10.071c0.256,0.019,0.506,0.03,0.761,0.03c4.82,0,8.915-3.708,9.307-8.604
			l5.608-69.722c1.157,0.512,2.43,0.805,3.772,0.805c1.339,0,2.618-0.293,3.772-0.805l5.605,69.722
			c0.393,4.896,4.488,8.604,9.308,8.604c0.256,0,0.505-0.006,0.761-0.03c5.148-0.414,8.984-4.926,8.57-10.071l-6.198-77.138V64.067
			c0.773,0.219,1.495,0.429,2.161,0.63l5.682,51.118c0.438,3.982,3.812,6.93,7.727,6.93c0.299,0,0.585-0.012,0.877-0.049
			c4.281-0.475,7.362-4.323,6.881-8.604l-6.235-56.118C118.357,57.594,118.157,57.296,118.065,56.934z"/>
		<polygon points="139.98,99.615 163.07,99.615 163.07,59.527 170.231,59.527 151.525,30.202 132.819,59.527 139.98,59.527 		"/>
		<polygon points="163.07,104.892 139.98,104.892 139.98,144.977 132.819,144.977 151.525,174.302 170.231,144.977 163.07,144.977 
					"/>
	</g>
</g>
<g>
</g>
<g>
</g>
<g>
</g>
<g>
</g>
<g>
</g>
<g>
</g>
<g>
</g>
<g>
</g>
<g>
</g>
<g>
</g>
<g>
</g>
<g>
</g>
<g>
</g>
<g>
</g>
<g>
</g>
</svg>
