<?xml version="1.0" encoding="iso-8859-1"?>
<!-- Generator: Adobe Illustrator 16.0.0, SVG Export Plug-In . SVG Version: 6.00 Build 0)  -->
<!DOCTYPE svg PUBLIC "-//W3C//DTD SVG 1.1//EN" "http://www.w3.org/Graphics/SVG/1.1/DTD/svg11.dtd">
<svg version="1.1" id="Capa_1" xmlns="http://www.w3.org/2000/svg" xmlns:xlink="http://www.w3.org/1999/xlink" x="0px" y="0px"
	 width="201.497px" height="201.496px" viewBox="0 0 201.497 201.496" style="enable-background:new 0 0 201.497 201.496;"
	 xml:space="preserve">
<g>
	<g>
		<circle cx="91.173" cy="36.225" r="17.652"/>
		<path d="M163.744,47.312V30.251l-54.906,22.746l12.958,5.371v3.867c-0.627,0.246-1.255,0.478-1.809,0.907L99.055,79.649
			L83.68,59.652c-0.368-1.547-1.062-2.986-2.021-4.259c-0.816-2.232-2.524-4.128-4.914-5.051c-2.968-1.142-6.147-0.493-8.442,1.386
			c-0.971,0.398-1.863,0.971-2.701,1.62L33.085,63.354c-2.338,0.719-4.146,2.594-4.777,4.957L20.603,97.07
			c-1.017,3.791,1.236,7.688,5.027,8.704c0.615,0.165,1.233,0.237,1.845,0.237c3.136,0,6.01-2.094,6.859-5.261l6.689-24.962
			l15.789-4.859l-11.993,29.505c-1.096,2.679-1.042,5.517-0.149,8.05l-17.801,32.699L2.765,163.287
			c-3.474,3.178-3.706,8.573-0.518,12.057c1.684,1.826,3.976,2.764,6.284,2.764c2.064,0,4.129-0.742,5.77-2.24l25.146-23.066
			c0.691-0.633,1.272-1.388,1.726-2.204l14.815-27.23l16.718,18.755L71.8,174.156c-0.131,4.713,3.581,8.641,8.293,8.768
			c0.082,0,0.162,0,0.244,0c4.6,0,8.394-3.659,8.525-8.293l0.996-35.421c0.058-2.18-0.716-4.292-2.162-5.919L65.934,108.88
			l13.019-32.05L92.16,94.007c1.16,1.51,2.874,2.488,4.765,2.725c0.286,0.036,0.584,0.058,0.871,0.058
			c1.592,0,3.142-0.533,4.409-1.528l22.308-17.598h5.852v-5.225c1.382-2.226,1.389-5.026,0-7.343v-3.194l33.381,13.828V58.672
			c3.142,0,5.688-2.545,5.688-5.687C169.431,49.849,166.879,47.312,163.744,47.312z"/>
		<path d="M169.431,20.938v2.207c16.459,0,29.849,13.394,29.849,29.847c0,16.462-13.39,29.849-29.849,29.849v2.207
			c17.677,0,32.065-14.379,32.065-32.062C201.49,35.32,187.108,20.938,169.431,20.938z"/>
		<path d="M190.438,52.997c0,11.588-9.426,21.008-21.007,21.008v2.207c12.799,0,23.224-10.413,23.224-23.221
			c0-12.794-10.419-23.212-23.224-23.212v2.207C181.012,31.999,190.438,41.418,190.438,52.997z"/>
		<path d="M181.591,52.997c0,6.71-5.456,12.166-12.16,12.166v2.207c7.928,0,14.37-6.448,14.37-14.373s-6.442-14.371-14.37-14.371
			v2.208C176.135,40.84,181.591,46.29,181.591,52.997z"/>
	</g>
</g>
<g>
</g>
<g>
</g>
<g>
</g>
<g>
</g>
<g>
</g>
<g>
</g>
<g>
</g>
<g>
</g>
<g>
</g>
<g>
</g>
<g>
</g>
<g>
</g>
<g>
</g>
<g>
</g>
<g>
</g>
</svg>
