<?xml version="1.0" encoding="iso-8859-1"?>
<!-- Generator: Adobe Illustrator 16.0.0, SVG Export Plug-In . SVG Version: 6.00 Build 0)  -->
<!DOCTYPE svg PUBLIC "-//W3C//DTD SVG 1.1//EN" "http://www.w3.org/Graphics/SVG/1.1/DTD/svg11.dtd">
<svg version="1.1" id="Capa_1" xmlns="http://www.w3.org/2000/svg" xmlns:xlink="http://www.w3.org/1999/xlink" x="0px" y="0px"
	 width="183.776px" height="183.777px" viewBox="0 0 183.776 183.777" style="enable-background:new 0 0 183.776 183.777;"
	 xml:space="preserve">
<g>
	<g>
		<path d="M126.925,38.832c9.772,0,17.705-11.343,17.705-21.12C144.63,7.929,136.697,0,126.925,0c-9.786,0-17.72,7.935-17.72,17.712
			C109.205,27.489,117.139,38.832,126.925,38.832z"/>
		<path d="M169.951,75.443l-8.367-24.811c-0.046-0.129-0.149-0.219-0.196-0.342c-0.183-0.449-0.443-0.832-0.714-1.234
			c-0.247-0.369-0.458-0.738-0.766-1.053c-0.294-0.295-0.641-0.509-0.99-0.75c-0.405-0.292-0.803-0.572-1.265-0.769
			c-0.121-0.05-0.202-0.151-0.328-0.203c-0.635-0.23-14.736-5.283-27.688-5.951l-1.783,3.565h-0.045l4.72,36.736l-5.604,9.788
			l-5.606-9.788l4.724-36.736h-0.061l-1.756-3.524c-10.584,0.537-21.897,3.968-26.053,5.343l-8.608-1.075
			c0.811,0.752,1.557,1.57,2.134,2.539c0.083,0.14,0.168,0.273,0.241,0.422c0.099,0.172,0.22,0.331,0.312,0.514
			c0.121,0.268,0.191,0.55,0.29,0.824c0.111,0.268,0.209,0.539,0.29,0.818c0.126,0.432,0.214,0.856,0.29,1.293
			c0.032,0.198,0.105,0.384,0.12,0.583l0.854,7.694l3.95,0.492c0.139,0.019,0.284,0.019,0.421,0.03c0.055,0,0.101,0.005,0.143,0.005
			c0.109,0,0.208,0.016,0.312,0.016c0.641,0,1.243-0.175,1.832-0.342c0.176-0.052,0.363-0.016,0.542-0.079
			c0.008,0,0.073-0.021,0.115-0.038c0.006,0,0.006,0,0.006,0c0.467-0.164,2.703-0.936,5.906-1.844v47.812l-5.579,69.315
			c-0.365,4.628,3.081,8.685,7.707,9.049c0.229,0.019,0.453,0.028,0.683,0.028c4.333,0,8.017-3.338,8.366-7.732l5.04-62.649
			c1.04,0.461,2.184,0.723,3.388,0.723c1.209,0,2.354-0.262,3.392-0.723l5.037,62.649c0.354,4.395,4.035,7.732,8.363,7.732
			c0.232,0,0.456-0.006,0.686-0.028c4.628-0.364,8.078-4.426,7.704-9.049L146.89,109.8c0.799,0.297,1.62,0.504,2.442,0.504
			c2.479,0,4.88-1.323,6.159-3.655l13.971-25.614C170.399,79.319,170.567,77.297,169.951,75.443z M146.534,93.801V57.573
			c1.084,0.31,2.052,0.594,2.892,0.856l6.271,18.588L146.534,93.801z"/>
		<path d="M54.082,38.832c9.774,0,17.708-11.343,17.708-21.12C71.79,7.929,63.856,0,54.082,0c-9.784,0-17.717,7.935-17.717,17.712
			C36.365,27.489,44.298,38.832,54.082,38.832z"/>
		<path d="M88.75,51.147c-0.129-0.504-0.233-1.01-0.471-1.47c-0.197-0.375-0.477-0.67-0.733-1.001
			c-0.298-0.388-0.559-0.774-0.936-1.094c-0.357-0.307-0.785-0.498-1.198-0.728c-0.325-0.178-0.577-0.438-0.929-0.566
			c-0.636-0.229-14.733-5.283-27.688-5.951l-1.781,3.565h-0.044l4.718,36.736l-5.604,9.792l-5.603-9.792l4.72-36.736h-0.058
			l-1.776-3.565c-12.955,0.668-27.047,5.722-27.679,5.951c-0.39,0.142-0.673,0.421-1.027,0.624c-0.363,0.211-0.75,0.38-1.07,0.654
			c-0.416,0.347-0.717,0.774-1.037,1.206c-0.225,0.296-0.476,0.562-0.651,0.896c-0.252,0.477-0.364,0.998-0.498,1.523
			c-0.085,0.314-0.257,0.583-0.296,0.908l-5.604,50.43c-0.427,3.847,2.342,7.305,6.187,7.732c0.262,0.032,0.52,0.043,0.782,0.043
			c3.519,0,6.551-2.648,6.95-6.227l5.102-45.938c0.597-0.18,1.25-0.369,1.947-0.566v47.806l-5.577,69.32
			c-0.369,4.628,3.079,8.68,7.704,9.05c0.231,0.017,0.455,0.027,0.686,0.027c4.331,0,8.013-3.333,8.366-7.731l5.037-62.655
			c1.042,0.461,2.186,0.723,3.391,0.723c1.204,0,2.353-0.262,3.389-0.723l5.038,62.655c0.353,4.398,4.035,7.731,8.366,7.731
			c0.231,0,0.455-0.005,0.684-0.027c4.626-0.37,8.075-4.427,7.706-9.05l-5.577-69.32V57.573c0.696,0.197,1.347,0.386,1.945,0.566
			l5.103,45.938c0.399,3.578,3.432,6.227,6.949,6.227c0.265,0,0.521-0.011,0.786-0.043c3.847-0.428,6.615-3.886,6.183-7.732
			l-5.601-50.43C89.021,51.752,88.841,51.478,88.75,51.147z"/>
	</g>
</g>
<g>
</g>
<g>
</g>
<g>
</g>
<g>
</g>
<g>
</g>
<g>
</g>
<g>
</g>
<g>
</g>
<g>
</g>
<g>
</g>
<g>
</g>
<g>
</g>
<g>
</g>
<g>
</g>
<g>
</g>
</svg>
