<?xml version="1.0" encoding="iso-8859-1"?>
<!-- Generator: Adobe Illustrator 16.0.0, SVG Export Plug-In . SVG Version: 6.00 Build 0)  -->
<!DOCTYPE svg PUBLIC "-//W3C//DTD SVG 1.1//EN" "http://www.w3.org/Graphics/SVG/1.1/DTD/svg11.dtd">
<svg version="1.1" id="Capa_1" xmlns="http://www.w3.org/2000/svg" xmlns:xlink="http://www.w3.org/1999/xlink" x="0px" y="0px"
	 width="206.014px" height="206.014px" viewBox="0 0 206.014 206.014" style="enable-background:new 0 0 206.014 206.014;"
	 xml:space="preserve">
<g>
	<g>
		<path d="M81.101,43.528c10.955,0,19.857-12.721,19.857-23.675C100.958,8.887,92.055,0,81.101,0
			C70.134,0,61.232,8.887,61.232,19.854C61.238,30.808,70.14,43.528,81.101,43.528z"/>
		<path d="M156.545,37.394c-14.62,0-26.481,11.858-26.481,26.481c0,3.672,0.749,7.164,2.101,10.343l-1.918,1.461l-10.82-20.121
			c-0.183-0.344-0.493-0.551-0.713-0.855c-0.341-0.476-0.651-0.953-1.114-1.34c-0.42-0.368-0.913-0.594-1.419-0.862
			c-0.347-0.192-0.615-0.472-0.998-0.612c-0.713-0.253-16.514-5.922-31.037-6.665l-2.003,3.985h-0.049l5.292,41.184l-6.284,10.973
			l-6.284-10.973l5.297-41.184h-0.067l-1.997-3.985c-14.529,0.743-30.312,6.403-31.037,6.659c-0.231,0.088-0.39,0.277-0.615,0.38
			c-0.475,0.225-0.901,0.493-1.315,0.807c-0.42,0.304-0.792,0.621-1.139,1.001c-0.329,0.356-0.591,0.737-0.84,1.148
			c-0.292,0.475-0.53,0.94-0.712,1.467c-0.073,0.223-0.237,0.39-0.305,0.621L33.49,90.631l-9.286,14.696
			c-2.314,3.669-1.212,8.516,2.46,10.829c1.297,0.828,2.74,1.219,4.184,1.219c2.6,0,5.151-1.298,6.637-3.666l9.938-15.734
			c0.427-0.691,0.761-1.44,0.968-2.226l7.831-30.354c0.853-0.262,1.821-0.548,2.893-0.853v53.6l-6.253,77.704
			c-0.408,5.188,3.453,9.725,8.64,10.139c0.262,0.023,0.512,0.029,0.768,0.029c4.859,0,8.976-3.732,9.377-8.664l5.657-70.232
			c1.157,0.523,2.441,0.816,3.793,0.816c1.358,0,2.637-0.293,3.799-0.816l5.657,70.232c0.39,4.932,4.518,8.664,9.371,8.664
			c0.256,0,0.512-0.006,0.768-0.029c5.193-0.414,9.055-4.957,8.634-10.139l-6.241-77.704V64.548c1.541,0.436,2.898,0.853,3.982,1.19
			l13.7,25.483c1.084,2.027,2.996,3.474,5.249,3.961c0.548,0.125,1.114,0.18,1.662,0.18c1.705,0,3.38-0.554,4.762-1.607l9.92-7.563
			c4.11,2.619,8.957,4.183,14.182,4.183c14.632,0,26.481-11.858,26.481-26.488C183.027,49.252,171.177,37.394,156.545,37.394z
			 M158.622,77.935v4.682h-4.518v-4.356c-3.069-0.14-6.065-0.975-7.812-1.985l1.395-5.373c1.924,1.053,4.64,2.019,7.617,2.019
			c2.624,0,4.408-1.008,4.408-2.844c0-1.745-1.467-2.853-4.871-4.001c-4.914-1.659-8.263-3.955-8.263-8.418
			c0-4.04,2.85-7.207,7.764-8.181v-4.36h4.506v4.043c3.087,0.137,5.146,0.786,6.668,1.513l-1.34,5.194
			c-1.2-0.506-3.301-1.559-6.619-1.559c-2.989,0-3.945,1.285-3.945,2.576c0,1.516,1.613,2.476,5.522,3.952
			c5.468,1.927,7.66,4.46,7.66,8.595C166.788,73.526,163.901,77.019,158.622,77.935z"/>
	</g>
</g>
<g>
</g>
<g>
</g>
<g>
</g>
<g>
</g>
<g>
</g>
<g>
</g>
<g>
</g>
<g>
</g>
<g>
</g>
<g>
</g>
<g>
</g>
<g>
</g>
<g>
</g>
<g>
</g>
<g>
</g>
</svg>
