<?xml version="1.0" encoding="iso-8859-1"?>
<!-- Generator: Adobe Illustrator 16.0.0, SVG Export Plug-In . SVG Version: 6.00 Build 0)  -->
<!DOCTYPE svg PUBLIC "-//W3C//DTD SVG 1.1//EN" "http://www.w3.org/Graphics/SVG/1.1/DTD/svg11.dtd">
<svg version="1.1" id="Capa_1" xmlns="http://www.w3.org/2000/svg" xmlns:xlink="http://www.w3.org/1999/xlink" x="0px" y="0px"
	 width="210.66px" height="210.66px" viewBox="0 0 210.66 210.66" style="enable-background:new 0 0 210.66 210.66;"
	 xml:space="preserve">
<g>
	<g>
		<path d="M105.33,131.062L105.33,131.062L105.33,131.062z"/>
		<path d="M105.33,131.062l-9.579-9.584l8.056-19.482h-0.079l-3.13-3.589c1.513,0.542,3.096,0.874,4.731,0.874
			c1.635,0,3.212-0.325,4.716-0.867l-3.121,3.583h-0.079l8.06,19.482L105.33,131.062c17.089,0,34.175-2.812,34.175-8.439
			c0-9.511-10.954-22.347-25.744-26.095c6.187-4.159,10.442-12.364,10.442-19.747c0-10.425-8.445-18.874-18.873-18.874
			c-10.425,0-18.874,8.449-18.874,18.874c0,7.389,4.256,15.588,10.443,19.747c-14.791,3.748-25.745,16.584-25.745,26.095
			C71.154,128.25,88.237,131.062,105.33,131.062z"/>
		<polygon points="194.569,151.937 194.569,143.691 177.988,132.969 189.692,143.691 20.986,143.691 32.695,132.969 16.09,143.691 
			16.09,151.937 32.695,151.937 32.695,201.43 28.567,201.43 28.567,206.081 22.426,206.081 22.426,210.66 188.255,210.66 
			188.255,206.081 182.093,206.081 182.093,201.43 177.988,201.43 177.988,151.937 		"/>
		<path d="M105.33,50.93c14.044,0,25.468-11.423,25.468-25.471C130.798,11.423,119.362,0,105.33,0
			C91.288,0,79.865,11.423,79.865,25.459C79.865,39.506,91.282,50.93,105.33,50.93z M84.472,26.04h2.027v-1.147h-2.027
			c0.1-3.38,1.035-6.537,2.557-9.341l1.696,0.983l0.576-0.99l-1.723-0.999c1.717-2.786,4.04-5.118,6.835-6.841l1.005,1.729
			L96.4,8.869l-0.978-1.705c2.798-1.525,5.955-2.463,9.335-2.555v2.019h0.478l-3.078,6.168h2.089v12.663
			c0,0.106,0.079,0.167,0.112,0.262c0.024,0.094-0.015,0.188,0.037,0.273l4.158,7.21l-1.809,1.041l5.932,3.916l-0.427-7.097
			l-1.809,1.042l-4.016-6.951v-12.37h2.092l-3.081-6.168h0.466l0.006-2.021c3.38,0.094,6.53,1.029,9.338,2.557l-0.999,1.724
			l0.999,0.566l0.986-1.729c2.789,1.717,5.127,4.049,6.845,6.841l-1.724,1.005l0.578,0.983l1.693-0.983
			c1.528,2.804,2.46,5.955,2.563,9.335h-2.028v1.147h2.022c-0.098,3.38-1.035,6.534-2.564,9.341l-1.698-0.986l-0.566,0.992
			l1.724,0.996c-1.724,2.789-4.062,5.121-6.845,6.841l-0.999-1.72l-0.979,0.566l0.979,1.702c-2.807,1.528-5.951,2.463-9.331,2.558
			v-2.021h-1.145v2.021c-3.38-0.094-6.543-1.029-9.335-2.558l0.983-1.702l-0.989-0.566l-0.993,1.726
			c-2.792-1.714-5.13-4.052-6.847-6.841l1.729-1.002L88.731,34.4l-1.702,0.98C85.507,32.567,84.572,29.42,84.472,26.04z"/>
	</g>
</g>
<g>
</g>
<g>
</g>
<g>
</g>
<g>
</g>
<g>
</g>
<g>
</g>
<g>
</g>
<g>
</g>
<g>
</g>
<g>
</g>
<g>
</g>
<g>
</g>
<g>
</g>
<g>
</g>
<g>
</g>
</svg>
