<?xml version="1.0" encoding="iso-8859-1"?>
<!-- Generator: Adobe Illustrator 16.0.0, SVG Export Plug-In . SVG Version: 6.00 Build 0)  -->
<!DOCTYPE svg PUBLIC "-//W3C//DTD SVG 1.1//EN" "http://www.w3.org/Graphics/SVG/1.1/DTD/svg11.dtd">
<svg version="1.1" id="Capa_1" xmlns="http://www.w3.org/2000/svg" xmlns:xlink="http://www.w3.org/1999/xlink" x="0px" y="0px"
	 width="142.178px" height="142.179px" viewBox="0 0 142.178 142.179" style="enable-background:new 0 0 142.178 142.179;"
	 xml:space="preserve">
<g>
	<path d="M113,0h-83.82c-7.229,0-13.099,5.865-13.099,13.094V129.09c0,7.223,5.871,13.089,13.099,13.089h83.815
		c7.233,0,13.102-5.866,13.102-13.089V13.094C126.106,5.871,120.234,0,113,0z M71.093,137.28c-4.159,0-7.531-3.381-7.531-7.54
		c0-4.147,3.372-7.528,7.531-7.528c4.162,0,7.532,3.381,7.532,7.528C78.625,133.91,75.255,137.28,71.093,137.28z M113.006,116.975
		H29.181c-2.587,0-4.695-2.102-4.695-4.694V13.1c0-2.588,2.107-4.689,4.695-4.689h83.815c2.593,0,4.694,2.101,4.694,4.689v99.181
		h0.012C117.702,114.868,115.588,116.975,113.006,116.975z M100.141,31.305l-15.464,8.928c0,0-4.257-7.387-18.503,0.84
		c-14.249,8.225-9.986,15.609-9.986,15.609l-15.459,8.928c0,0-7.732-13.398,21.971-30.556
		C92.405,17.896,100.152,31.305,100.141,31.305z M57.006,58.096l1.405,2.438L42.949,69.45l-1.407-2.436L57.006,58.096z
		 M102.364,35.145L86.9,44.068l-1.405-2.435l15.456-8.928L102.364,35.145z M36.747,76.914h17.157v26.571H36.747V76.914z
		 M62.516,64.999h17.156v38.486H62.516V64.999z M88.284,50.339h17.154v53.146H88.284V50.339z"/>
</g>
<g>
</g>
<g>
</g>
<g>
</g>
<g>
</g>
<g>
</g>
<g>
</g>
<g>
</g>
<g>
</g>
<g>
</g>
<g>
</g>
<g>
</g>
<g>
</g>
<g>
</g>
<g>
</g>
<g>
</g>
</svg>
