<?xml version="1.0" encoding="iso-8859-1"?>
<!-- Generator: Adobe Illustrator 16.0.0, SVG Export Plug-In . SVG Version: 6.00 Build 0)  -->
<!DOCTYPE svg PUBLIC "-//W3C//DTD SVG 1.1//EN" "http://www.w3.org/Graphics/SVG/1.1/DTD/svg11.dtd">
<svg version="1.1" id="Capa_1" xmlns="http://www.w3.org/2000/svg" xmlns:xlink="http://www.w3.org/1999/xlink" x="0px" y="0px"
	 width="175.118px" height="175.117px" viewBox="0 0 175.118 175.117" style="enable-background:new 0 0 175.118 175.117;"
	 xml:space="preserve">
<g>
	<g>
		<path d="M66.868,171.437l5.791-10.888c6.686,2.083,13.582,2.71,20.265,1.991l3.614,11.74L115,168.653l-3.586-11.776
			c5.961-3.117,11.331-7.508,15.716-12.987l10.875,5.803l9.066-17.062l-10.893-5.76c2.07-6.698,2.715-13.615,1.973-20.302
			l11.764-3.58l-5.65-18.493l-11.74,3.593c-3.142-5.955-7.55-11.322-13.006-15.719l5.833-10.875l-17.086-9.064l-5.785,10.873
			c-6.71-2.049-13.572-2.695-20.273-1.995l-3.599-11.746l-18.475,5.66l3.583,11.773c-5.94,3.13-11.317,7.532-15.719,12.976
			l-10.891-5.793l-9.03,17.028l10.875,5.791c-2.076,6.673-2.731,13.603-1.997,20.312l-11.764,3.593l5.623,18.487l11.768-3.605
			c3.172,5.968,7.538,11.314,13,15.723l-5.8,10.863L66.868,171.437z M56.915,95.657c9.037-16.928,30.023-23.364,46.942-14.34
			c16.915,8.981,23.333,30.001,14.333,46.917c-8.975,16.904-29.992,23.31-46.926,14.322C54.37,133.586,47.949,112.561,56.915,95.657
			z"/>
		<g>
			<path d="M175.118,40.343c0,0,0-39.519-87.556-39.506C0,0.864,0.006,40.337,0.006,40.337h45.568c0,0-0.012-21.771,41.994-21.771
				c41.997,0,41.997,21.766,41.997,21.766L175.118,40.343z"/>
			<rect y="44.49" width="45.568" height="7.185"/>
			<rect x="129.553" y="44.49" width="45.564" height="7.185"/>
		</g>
	</g>
</g>
<g>
</g>
<g>
</g>
<g>
</g>
<g>
</g>
<g>
</g>
<g>
</g>
<g>
</g>
<g>
</g>
<g>
</g>
<g>
</g>
<g>
</g>
<g>
</g>
<g>
</g>
<g>
</g>
<g>
</g>
</svg>
