<?xml version="1.0" encoding="iso-8859-1"?>
<!-- Generator: Adobe Illustrator 16.0.0, SVG Export Plug-In . SVG Version: 6.00 Build 0)  -->
<!DOCTYPE svg PUBLIC "-//W3C//DTD SVG 1.1//EN" "http://www.w3.org/Graphics/SVG/1.1/DTD/svg11.dtd">
<svg version="1.1" id="Capa_1" xmlns="http://www.w3.org/2000/svg" xmlns:xlink="http://www.w3.org/1999/xlink" x="0px" y="0px"
	 width="183.575px" height="183.575px" viewBox="0 0 183.575 183.575" style="enable-background:new 0 0 183.575 183.575;"
	 xml:space="preserve">
<g>
	<g>
		<path d="M113.292,62.578v-2.925H71.145v2.925h-11.71v114.977h-5.11V40.187H42.143V25.339H30.107V0h-3.021v25.339H15.052v14.848
			H2.868v143.388h51.456h5.11h65.592V62.578H113.292z M18.052,28.345h21.081v11.841H18.052V28.345z M20.015,155.164H8.887v-19.381
			h11.128V155.164z M20.015,132.761H8.887v-19.382h11.128V132.761z M20.015,110.37H8.887V91h11.128V110.37z M20.015,65.587H8.887
			V46.21h6.159h4.974v19.377H20.015z M34.156,177.554H23.029v-19.379h11.127V177.554z M34.156,155.164H23.029v-19.381h11.127
			V155.164z M34.156,87.982H23.029V68.601h11.127V87.982z M34.156,65.587H23.029V46.21h11.127V65.587z M48.299,155.164H37.167
			v-19.381h11.132V155.164z M48.299,132.761H37.167v-19.382h11.132V132.761z M48.299,110.37H37.167V91h11.132V110.37z
			 M48.299,87.982H37.167V68.601h11.132V87.982z M76.575,155.164H65.451v-19.381h11.125V155.164z M76.575,110.37H65.451V91h11.125
			V110.37z M90.724,177.554H79.591v-19.379h11.132V177.554z M90.724,132.761H79.591v-19.382h11.132V132.761z M90.724,87.982H79.591
			V68.601h11.132V87.982z M104.851,177.554H93.735v-19.379h11.115V177.554z M104.851,155.164H93.735v-19.381h11.115V155.164z
			 M104.851,132.761H93.735v-19.382h11.115V132.761z M104.851,110.37H93.735V91h11.115V110.37z M119.005,155.164h-11.146v-19.381
			h11.146V155.164z M119.005,110.37h-11.146V91h11.146V110.37z M119.005,87.982h-11.146V68.601h11.146V87.982z"/>
		<path d="M169.725,93.801c0.815,2.14,2.862,3.677,5.294,3.677c3.139,0,5.688-2.55,5.688-5.691c0-3.148-2.55-5.693-5.688-5.693
			c-2.438,0-4.479,1.535-5.294,3.68h-23.5V37.598h23.5c0.815,2.145,2.862,3.686,5.294,3.686c3.139,0,5.688-2.547,5.688-5.691
			c0-3.149-2.55-5.693-5.688-5.693c-2.438,0-4.479,1.535-5.294,3.68h-25.504c-1.115,0-2.013,0.897-2.013,2.014v54.181h-12.027
			c-1.106,0-2.003,0.897-2.003,2.008c0,1.11,0.896,2.008,2.003,2.008h12.027v54.185c0,1.116,0.897,2.008,2.013,2.008h25.509
			c0.821,2.139,2.857,3.683,5.289,3.683c3.139,0,5.688-2.554,5.688-5.69c0-3.152-2.55-5.696-5.688-5.696
			c-2.438,0-4.479,1.542-5.294,3.688h-23.5V93.79h23.5V93.801z"/>
	</g>
</g>
<g>
</g>
<g>
</g>
<g>
</g>
<g>
</g>
<g>
</g>
<g>
</g>
<g>
</g>
<g>
</g>
<g>
</g>
<g>
</g>
<g>
</g>
<g>
</g>
<g>
</g>
<g>
</g>
<g>
</g>
</svg>
