<?xml version="1.0" encoding="iso-8859-1"?>
<!-- Generator: Adobe Illustrator 16.0.0, SVG Export Plug-In . SVG Version: 6.00 Build 0)  -->
<!DOCTYPE svg PUBLIC "-//W3C//DTD SVG 1.1//EN" "http://www.w3.org/Graphics/SVG/1.1/DTD/svg11.dtd">
<svg version="1.1" id="Capa_1" xmlns="http://www.w3.org/2000/svg" xmlns:xlink="http://www.w3.org/1999/xlink" x="0px" y="0px"
	 width="193.294px" height="193.294px" viewBox="0 0 193.294 193.294" style="enable-background:new 0 0 193.294 193.294;"
	 xml:space="preserve">
<g>
	<g>
		<path d="M96.647,0C43.355,0,0,43.354,0,96.646c0,53.293,43.355,96.647,96.647,96.647s96.647-43.354,96.647-96.647
			C193.294,43.354,149.939,0,96.647,0z M175.66,140.482l-6.356-3.672l-1.56,2.697l6.297,3.636
			c-7.636,12.653-18.256,23.272-30.915,30.909l-3.635-6.291l-2.704,1.559l3.666,6.357c-12.568,6.996-26.951,11.04-42.259,11.308
			v-7.331h-3.118v7.331c-15.308-0.268-29.693-4.323-42.249-11.313l3.666-6.345l-2.707-1.56l-3.629,6.278
			C24.311,158.458,6.866,130.393,6.317,98.199h7.319v-3.117H6.317c0.262-15.309,4.314-29.7,11.311-42.256l6.354,3.666l1.559-2.701
			l-6.293-3.635C26.887,37.5,37.506,26.88,50.163,19.241l3.629,6.29l2.707-1.559l-3.666-6.351
			C65.395,10.625,79.78,6.573,95.088,6.312v7.325h3.117V6.312c32.188,0.554,60.265,18.005,75.847,43.856l-6.296,3.636l1.559,2.7
			l6.357-3.672c6.996,12.562,11.046,26.954,11.301,42.262h-7.331v3.118h7.331C186.706,113.532,182.657,127.921,175.66,140.482z"/>
		<path d="M71.127,116.102c-2.987-0.335-5.675-1.814-7.56-4.165c-0.079-0.104-0.131-0.219-0.204-0.322l-18.176,12.288l-2.768-4.799
			l-15.071,22.834l27.304-1.649l-3.212-5.56l23.806-16.1l0.231-2.887c-0.978,0.28-2.021,0.427-3.087,0.427L71.127,116.102z"/>
		<path d="M121.174,41.689l-8.038,13.929c3.988,1.035,6.966,2.052,7.551,2.259l0.816,0.292l1.169,0.773
			c0.121,0.037,0.773,0.386,1.461,0.965c0.244,0.213,0.402,0.393,0.591,0.587l7.258-12.577l5.2,2.999l1.639-27.31l-22.822,15.077
			L121.174,41.689z"/>
		<path d="M96.641,58.361c7.051,0,12.774-8.181,12.774-15.238c0-7.057-5.724-12.781-12.774-12.781
			c-7.058,0-12.787,5.724-12.787,12.781C83.854,50.181,89.583,58.361,96.641,58.361z"/>
		<path d="M121.662,67.254c-0.098-0.369-0.171-0.725-0.348-1.053c-0.14-0.268-0.335-0.481-0.523-0.719
			c-0.213-0.28-0.408-0.566-0.676-0.798c-0.244-0.213-0.542-0.338-0.822-0.499c-0.243-0.137-0.433-0.335-0.712-0.436
			c-0.463-0.161-10.632-3.812-19.976-4.29l-1.291,2.57h-0.03l3.406,26.506L96.647,95.6l-4.04-7.063l3.404-26.506h-0.049l-1.279-2.57
			c-9.347,0.478-19.516,4.128-19.972,4.29c-0.286,0.106-0.5,0.305-0.755,0.454c-0.262,0.149-0.536,0.268-0.773,0.469
			c-0.28,0.243-0.484,0.536-0.709,0.834c-0.167,0.226-0.369,0.426-0.5,0.682c-0.167,0.334-0.25,0.703-0.35,1.072
			c-0.061,0.231-0.186,0.429-0.21,0.673l-4.04,36.386c-0.313,2.776,1.689,5.272,4.463,5.583c0.186,0.019,0.375,0.031,0.566,0.031
			c2.533,0,4.729-1.912,5.015-4.494l3.684-33.149c0.432-0.128,0.904-0.262,1.403-0.405v34.492l-4.028,50.017
			c-0.268,3.337,2.219,6.26,5.562,6.527c0.167,0.013,0.329,0.019,0.493,0.019c3.13,0,5.785-2.405,6.041-5.584l3.635-45.205
			c0.749,0.334,1.577,0.523,2.451,0.523c0.873,0,1.695-0.189,2.45-0.523l3.639,45.205c0.256,3.179,2.91,5.584,6.04,5.584
			c0.158,0,0.323-0.006,0.487-0.019c3.337-0.268,5.833-3.19,5.565-6.527l-4.031-50.017V71.885c0.5,0.143,0.969,0.283,1.407,0.405
			l3.684,33.149c0.286,2.582,2.473,4.494,5.018,4.494c0.188,0,0.378-0.006,0.561-0.031c2.776-0.311,4.779-2.807,4.469-5.583
			l-4.043-36.386C121.85,67.69,121.722,67.486,121.662,67.254z"/>
	</g>
</g>
<g>
</g>
<g>
</g>
<g>
</g>
<g>
</g>
<g>
</g>
<g>
</g>
<g>
</g>
<g>
</g>
<g>
</g>
<g>
</g>
<g>
</g>
<g>
</g>
<g>
</g>
<g>
</g>
<g>
</g>
</svg>
