<?xml version="1.0" encoding="iso-8859-1"?>
<!-- Generator: Adobe Illustrator 16.0.0, SVG Export Plug-In . SVG Version: 6.00 Build 0)  -->
<!DOCTYPE svg PUBLIC "-//W3C//DTD SVG 1.1//EN" "http://www.w3.org/Graphics/SVG/1.1/DTD/svg11.dtd">
<svg version="1.1" id="Capa_1" xmlns="http://www.w3.org/2000/svg" xmlns:xlink="http://www.w3.org/1999/xlink" x="0px" y="0px"
	 width="156.406px" height="156.406px" viewBox="0 0 156.406 156.406" style="enable-background:new 0 0 156.406 156.406;"
	 xml:space="preserve">
<g>
	<g>
		<path d="M84.894,94.083c0,2.456-2.003,4.47-4.469,4.47h-4.465c-2.458,0-4.471-2-4.471-4.47v-3.857L2.23,76.321v46.813
			c0,9.828,8.042,17.871,17.875,17.871h116.177c9.83,0,17.875-8.043,17.875-17.871V76.321L84.894,90.226V94.083z"/>
		<path d="M136.287,37.439H108.16c0.01-0.271,0.076-0.528,0.076-0.818v-8.933c0-6.78-5.505-12.287-12.285-12.287H60.449
			c-6.78,0-12.287,5.507-12.287,12.287v8.933c0,0.29,0.065,0.543,0.077,0.818H20.115C9.021,37.439,0,46.46,0,57.554V71.68
			l71.501,14.353v-5.352c0-2.456,2.005-4.462,4.471-4.462h4.466c2.458,0,4.472,2.006,4.472,4.462v5.352l71.497-14.353V57.554
			C156.402,46.454,147.383,37.439,136.287,37.439z M101.539,36.621c0,0.29-0.121,0.543-0.163,0.818h-46.35
			c-0.045-0.271-0.168-0.528-0.168-0.818v-8.933c0-3.08,2.498-5.587,5.591-5.587h35.502c3.092,0,5.593,2.507,5.593,5.587v8.933
			H101.539z"/>
	</g>
</g>
<g>
</g>
<g>
</g>
<g>
</g>
<g>
</g>
<g>
</g>
<g>
</g>
<g>
</g>
<g>
</g>
<g>
</g>
<g>
</g>
<g>
</g>
<g>
</g>
<g>
</g>
<g>
</g>
<g>
</g>
</svg>
