<?xml version="1.0" encoding="iso-8859-1"?>
<!-- Generator: Adobe Illustrator 16.0.0, SVG Export Plug-In . SVG Version: 6.00 Build 0)  -->
<!DOCTYPE svg PUBLIC "-//W3C//DTD SVG 1.1//EN" "http://www.w3.org/Graphics/SVG/1.1/DTD/svg11.dtd">
<svg version="1.1" id="Capa_1" xmlns="http://www.w3.org/2000/svg" xmlns:xlink="http://www.w3.org/1999/xlink" x="0px" y="0px"
	 width="193.367px" height="193.367px" viewBox="0 0 193.367 193.367" style="enable-background:new 0 0 193.367 193.367;"
	 xml:space="preserve">
<g>
	<g>
		<path d="M3.275,160.133c0,3.896,3.185,7.088,7.082,7.088h11.785v-21.86l-18.861-3.782v18.555H3.275z"/>
		<path d="M44.646,167.221h11.773c3.897,0,7.097-3.197,7.097-7.095v-18.56l-18.864,3.781v21.873H44.646z"/>
		<path d="M21.476,122.282v3.544c0,0.109,0.03,0.213,0.03,0.316H10.351c-4.393,0-7.974,3.58-7.974,7.977v5.603l19.759,3.964v-22.207
			c-0.149-0.152-0.256-0.341-0.393-0.5C21.625,121.411,21.476,121.832,21.476,122.282z"/>
		<path d="M56.419,126.154H45.275c0-0.109,0.024-0.207,0.024-0.322v-3.537c0-0.463-0.137-0.884-0.262-1.304
			c-0.137,0.158-0.241,0.347-0.387,0.499v22.207l19.756-3.964v-5.602C64.401,129.729,60.821,126.154,56.419,126.154z"/>
		<path d="M49.854,89.857l-3.8-11.73V65.912c0-6.997-5.672-12.663-12.662-12.663s-12.666,5.666-12.666,12.663v45.025
			c0,3.733,1.653,7.058,4.229,9.372v64.618c0,4.664,3.778,8.439,8.442,8.439c4.665,0,8.443-3.775,8.443-8.439V120.31
			c2.57-2.32,4.22-5.646,4.22-9.372v-6.144l16.736,13.257c1.291,1.022,2.838,1.521,4.366,1.521c2.076,0,4.134-0.919,5.517-2.667
			c2.415-3.051,1.909-7.472-1.147-9.883L49.854,89.857z"/>
		<circle cx="44.459" cy="36.302" r="17.471"/>
		<path d="M129.848,160.133c0,3.896,3.197,7.088,7.094,7.088h11.771v-21.86l-18.864-3.782V160.133L129.848,160.133z"/>
		<path d="M171.224,167.221h11.782c3.897,0,7.088-3.197,7.088-7.095v-18.56l-18.864,3.781v21.873H171.224z"/>
		<path d="M148.061,122.282v3.544c0,0.109,0.024,0.213,0.024,0.316h-11.144c-4.402,0-7.982,3.58-7.982,7.977v5.603l19.753,3.964
			v-22.207c-0.146-0.152-0.243-0.341-0.384-0.5C148.2,121.411,148.061,121.832,148.061,122.282z"/>
		<path d="M183.006,126.154h-11.155c0-0.109,0.037-0.207,0.037-0.322v-3.537c0-0.463-0.146-0.884-0.269-1.304
			c-0.134,0.158-0.243,0.347-0.39,0.499v22.207l19.76-3.964v-5.602C190.983,129.729,187.402,126.154,183.006,126.154z"/>
		<path d="M172.63,65.906c0-6.997-5.662-12.663-12.653-12.663c-6.99,0-12.665,5.666-12.665,12.663v2.17l-12.403,18.393
			l-24.619-3.422c-3.827-0.506-7.404,2.152-7.928,6.004c-0.536,3.848,2.149,7.401,5.998,7.938l28.966,4.03
			c0.329,0.043,0.651,0.067,0.969,0.067c2.319,0,4.512-1.15,5.839-3.105l3.19-4.737v17.688c0,3.732,1.656,7.058,4.221,9.371v64.612
			c0,4.665,3.781,8.446,8.445,8.446c4.652,0,8.439-3.781,8.439-8.446V120.31c2.576-2.32,4.226-5.646,4.226-9.372V65.906H172.63z"/>
		<path d="M148.9,18.831c9.651,0,17.47,7.822,17.47,17.47s-7.818,17.473-17.47,17.473s-17.47-7.825-17.47-17.473
			S139.249,18.831,148.9,18.831z"/>
		<path d="M96.68,23.83h10.375c2.138,0,3.886-1.745,3.886-3.885V3.885c0-2.134-1.748-3.885-3.886-3.885H79.159
			c-2.137,0-3.885,1.75-3.885,3.885v16.06c0,2.14,1.748,3.885,3.885,3.885h1.915L70.031,37.655L96.68,23.83z M100.321,10.145
			c1.215,0,2.208,0.983,2.208,2.207c0,1.221-0.986,2.207-2.208,2.207c-1.221,0-2.207-0.986-2.207-2.207
			C98.114,11.128,99.106,10.145,100.321,10.145z M93.106,10.145c1.224,0,2.208,0.983,2.208,2.207c0,1.221-0.983,2.207-2.208,2.207
			c-1.208,0-2.205-0.986-2.205-2.207C90.901,11.128,91.891,10.145,93.106,10.145z M85.899,10.145c1.215,0,2.207,0.983,2.207,2.207
			c0,1.221-0.992,2.207-2.207,2.207s-2.208-0.986-2.208-2.207C83.692,11.128,84.679,10.145,85.899,10.145z"/>
		<path d="M112.798,57.539h1.912c2.144,0,3.885-1.753,3.885-3.885v-4.808c0-2.134-1.741-3.885-3.885-3.885H86.816
			c-2.137,0-3.885,1.751-3.885,3.885v4.808c0,2.131,1.748,3.885,3.885,3.885h10.375l26.957,10.854L112.798,57.539z M93.544,53.892
			c-1.209,0-2.208-0.986-2.208-2.207c0-1.224,0.989-2.207,2.208-2.207c1.221,0,2.207,0.983,2.207,2.207
			C95.751,52.905,94.765,53.892,93.544,53.892z M100.763,53.892c-1.221,0-2.207-0.986-2.207-2.207c0-1.224,0.986-2.207,2.207-2.207
			c1.212,0,2.208,0.983,2.208,2.207C102.97,52.905,101.981,53.892,100.763,53.892z M107.979,53.892
			c-1.215,0-2.207-0.986-2.207-2.207c0-1.224,0.992-2.207,2.207-2.207c1.209,0,2.207,0.983,2.207,2.207
			C110.186,52.905,109.188,53.892,107.979,53.892z"/>
	</g>
</g>
<g>
</g>
<g>
</g>
<g>
</g>
<g>
</g>
<g>
</g>
<g>
</g>
<g>
</g>
<g>
</g>
<g>
</g>
<g>
</g>
<g>
</g>
<g>
</g>
<g>
</g>
<g>
</g>
<g>
</g>
</svg>
