<?xml version="1.0" encoding="iso-8859-1"?>
<!-- Generator: Adobe Illustrator 16.0.0, SVG Export Plug-In . SVG Version: 6.00 Build 0)  -->
<!DOCTYPE svg PUBLIC "-//W3C//DTD SVG 1.1//EN" "http://www.w3.org/Graphics/SVG/1.1/DTD/svg11.dtd">
<svg version="1.1" id="Capa_1" xmlns="http://www.w3.org/2000/svg" xmlns:xlink="http://www.w3.org/1999/xlink" x="0px" y="0px"
	 width="167.607px" height="167.607px" viewBox="0 0 167.607 167.607" style="enable-background:new 0 0 167.607 167.607;"
	 xml:space="preserve">
<g>
	<g>
		<path d="M25.881,98.825c4.641,0,8.405-5.379,8.405-10.025c0-4.641-3.764-8.404-8.405-8.404c-4.646,0-8.405,3.764-8.405,8.404
			C17.476,93.446,21.235,98.825,25.881,98.825z"/>
		<path d="M42.337,104.68c-0.062-0.241-0.117-0.479-0.229-0.7c-0.09-0.176-0.212-0.302-0.325-0.45
			c-0.146-0.196-0.284-0.394-0.476-0.558c-0.145-0.12-0.326-0.201-0.492-0.295c-0.17-0.11-0.315-0.236-0.506-0.307
			c-0.302-0.115-6.993-2.512-13.139-2.824l-0.845,1.686H26.3l2.237,17.429l-2.657,4.651l-2.661-4.646l2.234-17.435h-0.026
			l-0.84-1.686c-6.149,0.312-12.838,2.709-13.136,2.824c-0.197,0.065-0.342,0.209-0.509,0.307c-0.168,0.099-0.341,0.175-0.481,0.295
			c-0.203,0.164-0.341,0.361-0.495,0.569c-0.103,0.137-0.222,0.263-0.312,0.427c-0.117,0.232-0.168,0.471-0.234,0.723
			c-0.042,0.148-0.124,0.274-0.14,0.438l-2.662,23.923c-0.203,1.828,1.114,3.472,2.935,3.667c0.124,0.021,0.248,0.021,0.37,0.021
			c1.669,0,3.112-1.258,3.294-2.948l2.421-21.808c0.285-0.081,0.595-0.169,0.926-0.262v22.687l-2.647,32.889
			c-0.178,2.204,1.464,4.124,3.656,4.3c0.112,0.011,0.217,0.011,0.323,0.011c2.059,0,3.807-1.582,3.968-3.672l2.393-29.729
			c0.492,0.227,1.037,0.353,1.615,0.353c0.576,0,1.113-0.126,1.604-0.353l2.395,29.729c0.167,2.09,1.91,3.672,3.966,3.672
			c0.112,0,0.219,0,0.327-0.011c2.197-0.176,3.833-2.096,3.651-4.3l-2.646-32.889v-22.687c0.332,0.093,0.635,0.181,0.92,0.262
			l2.426,21.808c0.191,1.695,1.632,2.948,3.294,2.948c0.124,0,0.248,0,0.371-0.021c1.827-0.195,3.143-1.839,2.938-3.667
			l-2.662-23.923C42.461,104.965,42.377,104.832,42.337,104.68z"/>
		<path d="M141.735,98.825c4.641,0,8.405-5.379,8.405-10.025c0-4.641-3.765-8.404-8.405-8.404c-4.646,0-8.404,3.764-8.404,8.404
			C133.331,93.446,137.09,98.825,141.735,98.825z"/>
		<path d="M158.33,105.128c-0.015-0.163-0.104-0.296-0.14-0.448c-0.062-0.241-0.122-0.479-0.229-0.712
			c-0.094-0.175-0.216-0.295-0.331-0.449c-0.141-0.196-0.284-0.388-0.471-0.552c-0.146-0.126-0.328-0.203-0.497-0.295
			c-0.171-0.105-0.312-0.236-0.504-0.312c-0.299-0.11-6.993-2.506-13.139-2.823l-0.849,1.695h-0.016l2.238,17.424l-2.663,4.65
			l-2.656-4.65l2.238-17.424h-0.025l-0.845-1.695c-6.15,0.317-12.831,2.713-13.133,2.823c-0.197,0.071-0.343,0.207-0.515,0.312
			c-0.164,0.099-0.337,0.169-0.486,0.295c-0.196,0.164-0.335,0.366-0.485,0.562c-0.106,0.144-0.225,0.274-0.309,0.438
			c-0.12,0.219-0.168,0.471-0.233,0.712c-0.04,0.152-0.122,0.285-0.139,0.437l-2.659,23.93c-0.203,1.823,1.112,3.464,2.934,3.672
			c0.126,0.011,0.252,0.021,0.373,0.021c1.668,0,3.106-1.263,3.293-2.954l2.429-21.802c0.284-0.086,0.586-0.174,0.928-0.272v22.688
			l-2.651,32.898c-0.178,2.198,1.456,4.119,3.655,4.296c0.104,0.009,0.214,0.009,0.323,0.009c2.058,0,3.8-1.581,3.968-3.672
			l2.391-29.729c0.499,0.225,1.042,0.345,1.61,0.345c0.575,0,1.115-0.12,1.612-0.345l2.399,29.729
			c0.162,2.091,1.909,3.672,3.959,3.672c0.112,0,0.22,0,0.328-0.009c2.194-0.177,3.831-2.098,3.655-4.296l-2.647-32.898v-22.688
			c0.336,0.099,0.64,0.187,0.925,0.272l2.424,21.802c0.186,1.696,1.633,2.954,3.294,2.954c0.122,0,0.248-0.011,0.366-0.021
			c1.828-0.208,3.142-1.849,2.939-3.672L158.33,105.128z"/>
		<path d="M106.467,59.563l20.936,20.936c0.383,0.378,0.887,0.574,1.391,0.574s1.009-0.187,1.396-0.574
			c0.766-0.771,0.766-2.014,0-2.786l-20.941-20.941c11.931-13.378,11.519-33.959-1.312-46.791C101.498,3.546,92.924,0,83.802,0
			C74.68,0,66.105,3.541,59.673,9.981c-6.432,6.432-9.978,15.004-9.978,24.126c0,8.458,3.074,16.419,8.651,22.66L37.413,77.713
			c-0.768,0.767-0.768,2.016,0,2.786c0.381,0.378,0.885,0.574,1.387,0.574c0.506,0,1.01-0.187,1.396-0.574l20.937-20.941
			c6.245,5.575,14.208,8.657,22.669,8.657C92.267,68.22,100.229,65.139,106.467,59.563z M63.39,13.694
			c5.447-5.445,12.698-8.438,20.417-8.438c7.722,0,14.973,2.999,20.422,8.438c11.257,11.259,11.257,29.576,0,40.832
			c-5.449,5.448-12.7,8.446-20.422,8.446c-7.719,0-14.97-2.998-20.417-8.446c-5.448-5.442-8.443-12.691-8.443-20.418
			C54.951,26.392,57.948,19.141,63.39,13.694z"/>
		<path d="M66.012,49.473l3.894-2.433c1.705,1.838,3.812,3.352,6.191,4.411l-1.037,4.487l7.006,1.609l1.035-4.482
			c2.61,0.107,5.168-0.33,7.508-1.239l2.437,3.893l6.116-3.809l-2.428-3.896c1.831-1.718,3.347-3.808,4.403-6.203l4.478,1.042
			l1.62-7.026l-4.49-1.037c0.11-2.61-0.333-5.155-1.234-7.497l3.88-2.438l-3.813-6.113l-3.898,2.432
			c-1.701-1.849-3.803-3.357-6.192-4.416l1.046-4.479l-7.022-1.62l-1.027,4.484c-2.615-0.101-5.168,0.337-7.512,1.248l-2.423-3.894
			l-6.121,3.822l2.428,3.882c-1.844,1.71-3.353,3.822-4.405,6.203l-4.482-1.048l-1.613,7.029l4.476,1.029
			c-0.088,2.618,0.343,5.148,1.24,7.504l-3.888,2.432L66.012,49.473z M71.2,31.193c1.604-6.963,8.561-11.313,15.524-9.693
			c6.961,1.608,11.295,8.558,9.693,15.527c-1.605,6.954-8.555,11.295-15.518,9.698C73.923,45.101,69.581,38.165,71.2,31.193z"/>
	</g>
</g>
<g>
</g>
<g>
</g>
<g>
</g>
<g>
</g>
<g>
</g>
<g>
</g>
<g>
</g>
<g>
</g>
<g>
</g>
<g>
</g>
<g>
</g>
<g>
</g>
<g>
</g>
<g>
</g>
<g>
</g>
</svg>
