<?xml version="1.0" encoding="iso-8859-1"?>
<!-- Generator: Adobe Illustrator 16.0.0, SVG Export Plug-In . SVG Version: 6.00 Build 0)  -->
<!DOCTYPE svg PUBLIC "-//W3C//DTD SVG 1.1//EN" "http://www.w3.org/Graphics/SVG/1.1/DTD/svg11.dtd">
<svg version="1.1" id="Capa_1" xmlns="http://www.w3.org/2000/svg" xmlns:xlink="http://www.w3.org/1999/xlink" x="0px" y="0px"
	 width="175.234px" height="175.234px" viewBox="0 0 175.234 175.234" style="enable-background:new 0 0 175.234 175.234;"
	 xml:space="preserve">
<g>
	<path d="M158.561,90.153c0.354-9.38-1.224-18.938-4.749-28.041l14.614-9.073l-14.31-22.853l-14.554,9.097
		c-6.674-7.146-14.504-12.708-23.09-16.542l3.849-16.699L94.065,0.01l-3.869,16.708c-9.359-0.353-18.932,1.211-28.029,4.713
		L53.045,6.848L30.281,21.114l9.091,14.578c-7.173,6.616-12.784,14.517-16.569,23.126L6.092,54.946L0,81.199l16.711,3.846
		c-0.316,9.42,1.224,18.925,4.741,28.047l-14.581,9.084l14.297,22.854l14.581-9.104c6.609,7.167,14.52,12.738,23.081,16.531
		l-3.815,16.685l26.214,6.083l3.879-16.721c9.365,0.384,18.919-1.163,28.028-4.719l9.085,14.59l22.847-14.285l-9.134-14.554
		c7.161-6.637,12.775-14.54,16.544-23.132l16.69,3.872l6.065-26.263L158.561,90.153z M87.626,32.942
		c5.855,0,10.617,4.753,10.617,10.62c0,5.86-4.756,12.662-10.617,12.662S77,49.423,77,43.562C77,37.695,81.765,32.942,87.626,32.942
		z M108.594,98.143c-0.274,0.066-0.549,0.098-0.816,0.098c-1.498,0-2.868-1.018-3.252-2.546L98.06,69.843l-1.699,15.795
		l11.016,21.51c0,0.81-4.5,2.637-11.016,3.623l2.174,26.986c0.183,2.314-1.547,4.336-3.86,4.531c-0.109,0-0.226,0.012-0.341,0.012
		c-2.162,0-4.001-1.668-4.178-3.873l-2.167-26.986c-0.125,0-0.244,0-0.362,0s-0.244,0-0.362,0l-2.168,26.986
		c-0.176,2.205-2.015,3.873-4.18,3.873c-0.112,0-0.222-0.012-0.341-0.012c-2.314-0.189-4.034-2.211-3.854-4.531l2.171-26.986
		c-6.516-0.986-11.012-2.813-11.012-3.623l11.012-21.522l-1.696-15.777l-6.467,25.852c-0.387,1.527-1.754,2.545-3.255,2.545
		c-0.268,0-0.542-0.031-0.816-0.104c-1.802-0.445-2.896-2.271-2.445-4.068l6.723-26.88c0.012-0.04,0.042-0.07,0.049-0.113
		c0.061-0.219,0.186-0.405,0.292-0.612c0.107-0.192,0.195-0.399,0.332-0.566c0.024-0.03,0.037-0.082,0.067-0.112
		c0.28-0.323,7.015-7.861,15.957-7.861s15.676,7.538,15.957,7.861c0.03,0.03,0.037,0.076,0.067,0.112
		c0.14,0.167,0.226,0.381,0.335,0.572c0.104,0.201,0.219,0.387,0.28,0.606c0.012,0.042,0.036,0.073,0.055,0.113l6.716,26.88
		C111.493,95.865,110.396,97.686,108.594,98.143z"/>
</g>
<g>
</g>
<g>
</g>
<g>
</g>
<g>
</g>
<g>
</g>
<g>
</g>
<g>
</g>
<g>
</g>
<g>
</g>
<g>
</g>
<g>
</g>
<g>
</g>
<g>
</g>
<g>
</g>
<g>
</g>
</svg>
