<?xml version="1.0" encoding="iso-8859-1"?>
<!-- Generator: Adobe Illustrator 16.0.0, SVG Export Plug-In . SVG Version: 6.00 Build 0)  -->
<!DOCTYPE svg PUBLIC "-//W3C//DTD SVG 1.1//EN" "http://www.w3.org/Graphics/SVG/1.1/DTD/svg11.dtd">
<svg version="1.1" id="Capa_1" xmlns="http://www.w3.org/2000/svg" xmlns:xlink="http://www.w3.org/1999/xlink" x="0px" y="0px"
	 width="183.788px" height="183.788px" viewBox="0 0 183.788 183.788" style="enable-background:new 0 0 183.788 183.788;"
	 xml:space="preserve">
<g>
	<g>
		<path d="M52.14,38.837c9.773,0,17.708-11.343,17.708-21.127C69.848,7.929,61.913,0,52.14,0c-9.781,0-17.715,7.929-17.715,17.71
			C34.425,27.494,42.358,38.837,52.14,38.837z"/>
		<path d="M113.125,75.94L85.111,47.924c-0.027-0.028-0.073-0.038-0.105-0.071c-0.343-0.332-0.786-0.534-1.188-0.791
			c-0.39-0.241-0.747-0.55-1.166-0.706c-0.042-0.017-0.069-0.05-0.113-0.074c-0.634-0.23-14.814-5.311-27.803-5.951l-1.671,3.34
			h-0.044l4.718,36.742l-5.603,9.787l-5.604-9.787l4.719-36.742h-0.051l-1.665-3.34c-12.987,0.64-27.17,5.721-27.802,5.951
			c-0.231,0.09-0.381,0.266-0.594,0.358c-0.459,0.226-0.882,0.466-1.279,0.78c-0.341,0.274-0.633,0.562-0.918,0.873
			c-0.305,0.345-0.562,0.69-0.792,1.083c-0.24,0.413-0.418,0.834-0.572,1.289c-0.077,0.242-0.24,0.424-0.301,0.679L6.072,101.773
			c-0.841,3.776,1.541,7.519,5.316,8.356c0.511,0.114,1.021,0.164,1.524,0.164c3.211,0,6.108-2.217,6.831-5.482L30.08,58.273
			c0.724-0.224,1.548-0.465,2.438-0.715v47.806l-5.563,69.341c-0.369,4.629,3.075,8.685,7.705,9.05
			c0.23,0.022,0.459,0.027,0.684,0.027c4.337,0,8.017-3.33,8.369-7.731l5.038-62.646c1.042,0.457,2.185,0.72,3.389,0.72
			c1.208,0,2.355-0.263,3.39-0.72l5.045,62.651c0.353,4.4,4.034,7.732,8.369,7.732c0.225,0,0.455-0.006,0.684-0.025
			c4.629-0.373,8.074-4.421,7.705-9.053l-5.575-69.318V57.584c1.944,0.555,3.548,1.053,4.606,1.407l26.862,26.862
			c1.367,1.368,3.159,2.052,4.952,2.052c1.794,0,3.586-0.684,4.954-2.052C115.861,83.114,115.861,78.682,113.125,75.94z"/>
		<path d="M87.245,181.824h18.165v-69.035H87.245V181.824z M90.16,117.144h12.346v1.773H90.16V117.144z M90.16,121.391h12.346v1.762
			H90.16V121.391z M90.16,175.695h12.346v1.768H90.16V175.695z"/>
		<path d="M109.471,112.789v69.035h18.16v-59.787v-9.248H109.471z M124.72,177.462h-12.345v-1.768h12.345V177.462z M124.72,123.153
			h-12.345v-1.762h12.345V123.153z M124.72,118.917h-12.345v-1.773h12.345V118.917z"/>
		<path d="M143.369,112.953l-15.737,9.084l34.518,59.787l15.736-9.084L143.369,112.953z M132.332,124.357l10.692-6.178l0.888,1.537
			l-10.693,6.173L132.332,124.357z M135.335,129.56l-0.879-1.526l10.685-6.178l0.887,1.526L135.335,129.56z M161.607,175.06
			l10.692-6.173l0.883,1.532l-10.684,6.173L161.607,175.06z"/>
	</g>
</g>
<g>
</g>
<g>
</g>
<g>
</g>
<g>
</g>
<g>
</g>
<g>
</g>
<g>
</g>
<g>
</g>
<g>
</g>
<g>
</g>
<g>
</g>
<g>
</g>
<g>
</g>
<g>
</g>
<g>
</g>
</svg>
